Callisto.glyphspackage
{
glyphname = numbersign;
layers = (
{
layerId = m01;
shapes = (
{
closed = 1;
nodes = (
(482,735,l),
(485,750,o),
(435,760,o),
(432,745,c),
(292,-170,l),
(289,-185,o),
(339,-195,o),
(342,-180,c)
);
},
{
closed = 1;
nodes = (
(82,-170,l),
(79,-185,o),
(129,-195,o),
(132,-180,c),
(272,735,l),
(275,750,o),
(225,760,o),
(222,745,c)
);
},
{
closed = 1;
nodes = (
(67,502,o),
(57,422,o),
(72,420,c),
(542,420,l),
(557,418,o),
(567,498,o),
(552,500,c),
(82,500,l)
);
},
{
closed = 1;
nodes = (
(7,147,o),
(-3,67,o),
(12,65,c),
(482,65,l),
(497,63,o),
(507,143,o),
(492,145,c),
(22,145,l)
);
}
);
userData = {
com.schriftgestaltung.Glyphs.layer.corners = (
{
name = _segment.bulge;
origin = _corner00;
type = Segment;
},
{
name = _segment.bulge;
origin = _corner01;
type = Segment;
},
{
name = _segment.bulge;
origin = _corner02;
type = Segment;
},
{
name = _segment.bulge;
origin = _corner03;
type = Segment;
},
{
name = _segment.bulge;
origin = _corner04;
type = Segment;
},
{
name = _segment.bulge;
origin = _corner05;
type = Segment;
},
{
name = _segment.bulge;
origin = _corner06;
type = Segment;
},
{
name = _segment.bulge;
origin = _corner07;
type = Segment;
}
);
};
width = 564;
},
{
layerId = m002;
shapes = (
{
closed = 1;
nodes = (
(512,735,l),
(514,750,o),
(434,760,o),
(432,745,c),
(292,-170,l),
(290,-185,o),
(370,-195,o),
(372,-180,c)
);
},
{
closed = 1;
nodes = (
(82,-170,l),
(80,-185,o),
(160,-195,o),
(162,-180,c),
(302,735,l),
(304,750,o),
(224,760,o),
(222,745,c)
);
},
{
closed = 1;
nodes = (
(67,501,o),
(57,391,o),
(72,390,c),
(572,390,l),
(587,389,o),
(597,499,o),
(582,500,c),
(82,500,l)
);
},
{
closed = 1;
nodes = (
(7,176,o),
(-3,66,o),
(12,65,c),
(512,65,l),
(527,64,o),
(537,174,o),
(522,175,c),
(22,175,l)
);
}
);
userData = {
com.schriftgestaltung.Glyphs.layer.corners = (
{
name = _segment.bulge;
origin = _corner00;
type = Segment;
},
{
name = _segment.bulge;
origin = _corner01;
type = Segment;
},
{
name = _segment.bulge;
origin = _corner02;
type = Segment;
},
{
name = _segment.bulge;
origin = _corner03;
type = Segment;
},
{
name = _segment.bulge;
origin = _corner04;
type = Segment;
},
{
name = _segment.bulge;
origin = _corner05;
type = Segment;
},
{
name = _segment.bulge;
origin = _corner06;
type = Segment;
},
{
name = _segment.bulge;
origin = _corner07;
type = Segment;
}
);
};
width = 594;
}
);
unicode = 35;
}
{
glyphname = ampersand;
layers = (
{
background = {
shapes = (
{
closed = 1;
nodes = (
(243,445,l),
(359,528,o),
(399,565,o),
(399,630,cs),
(399,706,o),
(346,770,o),
(251,770,cs),
(183,770,o),
(100,703,o),
(100,620,cs),
(100,533,o),
(165,471,o),
(239,379,cs),
(478,82,ls),
(576,-40,o),
(670,-31,o),
(771,74,c),
(739,105,l),
(715,85,o),
(689,68,o),
(660,68,cs),
(632,68,o),
(601,81,o),
(551,143,cs),
(281,475,ls),
(200,574,o),
(180,612,o),
(180,650,cs),
(180,685,o),
(201,709,o),
(244,709,cs),
(281,709,o),
(320,671,o),
(320,622,cs),
(320,571,o),
(293,539,o),
(216,484,c)
);
},
{
closed = 1;
nodes = (
(527,159,l),
(690,350,l,{
name = _corner02;
}),
(610,350,l,{
name = _corner03;
}),
(490,203,l)
);
},
{
closed = 1;
nodes = (
(450,153,l),
(326,5,o),
(115,74,o),
(115,259,cs),
(115,344,o),
(186,393,o),
(228,429,c),
(191,468,l),
(127,411,o),
(30,330,o),
(30,230,cs),
(30,109,o),
(113,-10,o),
(258,-10,cs),
(345,-10,o),
(402,28,o),
(492,114,c)
);
}
);
};
layerId = m01;
shapes = (
{
closed = 1;
nodes = (
(245,445,l),
(364,528,o),
(405,565,o),
(408,630,cs),
(410,706,o),
(360,770,o),
(265,770,cs),
(197,770,o),
(111,703,o),
(108,620,cs),
(105,533,o),
(168,471,o),
(239,379,cs),
(468,82,ls),
(562,-39,o),
(655,-31,o),
(760,74,c),
(771,85,o),
(740,116,o),
(729,105,c),
(705,85,o),
(678,68,o),
(649,68,cs),
(621,68,o),
(586,81,o),
(538,143,cs),
(241,523,ls),
(201,574,o),
(178,602,o),
(179,640,cs),
(181,685,o),
(212,709,o),
(255,709,cs),
(292,709,o),
(330,671,o),
(328,622,cs),
(327,571,o),
(299,539,o),
(220,484,c)
);
},
{
closed = 1;
nodes = (
(519,159,l),
(597,247,l),
(640,295,o),
(660,287,o),
(722,322,c),
(730,326,o),
(725,351,o),
(716,351,c),
(660,351,o),
(646,350,o),
(629,350,c),
(599,350,l),
(582,350,o),
(568,351,o),
(512,351,c),
(503,351,o),
(499,326,o),
(506,322,c),
(569,287,o),
(562,295,o),
(520,245,c),
(484,203,l)
);
},
{
closed = 1;
nodes = (
(442,153,l),
(313,5,o),
(104,74,o),
(110,249,cs),
(113,334,o),
(187,393,o),
(230,429,c),
(194,468,l),
(128,411,o),
(18,330,o),
(15,230,cs),
(11,109,o),
(99,-10,o),
(244,-10,cs),
(331,-10,o),
(390,28,o),
(483,114,c)
);
}
);
userData = {
com.schriftgestaltung.Glyphs.layer.corners = (
{
name = _corner.serif;
origin = _corner00;
scale = "{0.7, 1}";
type = Corner;
},
{
name = _corner.serif;
options = 1;
origin = _corner01;
scale = "{-0.7, 1}";
type = Corner;
},
{
name = _segment.bulge;
origin = _corner02;
type = Segment;
}
);
};
width = 793;
},
{
background = {
shapes = (
{
closed = 1;
nodes = (
(238,439,l),
(491,554,o),
(407,770,o),
(251,770,cs),
(173,770,o),
(90,713,o),
(90,630,cs),
(90,543,o),
(155,471,o),
(229,379,cs),
(468,82,ls),
(566,-40,o),
(660,-31,o),
(761,74,c),
(724,110,l,{
name = _corner00;
}),
(700,90,o),
(679,68,o),
(650,68,cs),
(622,68,o),
(591,81,o),
(541,143,cs),
(271,475,ls),
(229,526,o),
(170,572,o),
(170,640,cs),
(170,695,o),
(211,713,o),
(244,713,cs),
(341,713,o),
(361,536,o),
(211,488,c)
);
},
{
closed = 1;
nodes = (
(191,478,l),
(127,431,o),
(20,350,o),
(20,230,cs),
(20,109,o),
(113,-10,o),
(258,-10,cs),
(376,-10,o),
(519,80,o),
(640,350,c,{
name = _corner01;
}),
(570,350,l,{
name = _corner02;
}),
(440,-25,o),
(110,41,o),
(110,245,cs),
(110,351,o),
(185,392,o),
(218,429,c)
);
}
);
};
layerId = m002;
shapes = (
{
closed = 1;
nodes = (
(278,439,l),
(346,482,o),
(438,530,o),
(438,625,cs),
(438,689,o),
(398,770,o),
(281,770,cs),
(203,770,o),
(90,733,o),
(90,600,cs),
(90,533,o),
(145,471,o),
(219,379,cs),
(458,82,ls),
(556,-40,o),
(700,-31,o),
(801,74,c),
(811,85,o),
(774,121,o),
(764,110,c),
(735,93,o),
(708,85,o),
(685,85,cs),
(642,85,o),
(609,109,o),
(581,143,cs),
(291,499,ls),
(245,556,o),
(190,612,o),
(190,650,cs),
(190,685,o),
(211,708,o),
(249,708,cs),
(278,708,o),
(325,676,o),
(325,620,cs),
(325,560,o),
(289,520,o),
(241,488,c)
);
},
{
closed = 1;
nodes = (
(540,127,l),
(607,221,l),
(645,274,o),
(668,272,o),
(731,306,c),
(740,311,o),
(731,351,o),
(721,351,c),
(665,351,o),
(649,350,o),
(629,350,c),
(587,350,l),
(574,350,o),
(564,351,o),
(529,351,c),
(523,351,o),
(517,311,o),
(523,306,c),
(562,272,o),
(558,273,o),
(521,220,c),
(492,177,l)
);
},
{
closed = 1;
nodes = (
(462,137,l),
(310,30,o),
(160,130,o),
(160,265,cs),
(160,341,o),
(205,412,o),
(258,439,c),
(231,498,l),
(167,451,o),
(20,380,o),
(20,230,cs),
(20,79,o),
(133,-10,o),
(268,-10,cs),
(348,-10,o),
(441,25,o),
(490,87,c)
);
}
);
userData = {
com.schriftgestaltung.Glyphs.layer.corners = (
{
name = _segment.bulge;
origin = _corner00;
type = Segment;
},
{
name = _corner.serif;
origin = _corner01;
scale = "{0.8, 1}";
type = Corner;
},
{
name = _corner.serif;
options = 1;
origin = _corner02;
scale = "{-0.5, 1}";
type = Corner;
}
);
};
width = 823;
}
);
unicode = 38;
}
{
glyphname = quotesingle;
layers = (
{
layerId = m01;
shapes = (
{
closed = 1;
nodes = (
(133,628,o),
(166,739,o),
(170,759,c),
(159,782,o),
(80,796,o),
(61,778,c),
(58,758,o),
(51,642,o),
(50,521,c),
(49,509,o),
(89,502,o),
(93,513,c)
);
}
);
width = 155;
},
{
layerId = m002;
shapes = (
{
closed = 1;
nodes = (
(163,623,o),
(196,734,o),
(200,754,c),
(189,777,o),
(90,796,o),
(71,778,c),
(68,758,o),
(61,642,o),
(60,521,c),
(59,509,o),
(119,497,o),
(123,508,c)
);
}
);
width = 220;
}
);
unicode = 39;
}
{
glyphname = parenleft;
layers = (
{
layerId = m01;
shapes = (
{
closed = 1;
nodes = (
(0,597,o),
(0,23,o),
(300,-190,c),
(312,-200,o),
(337,-170,o),
(325,-160,c),
(115,23,o),
(115,597,o),
(325,780,c),
(337,790,o),
(312,820,o),
(300,810,c)
);
}
);
userData = {
com.schriftgestaltung.Glyphs.layer.corners = (
{
name = _segment.bulge;
origin = _corner00;
type = Segment;
},
{
name = _segment.bulge;
origin = _corner01;
type = Segment;
}
);
};
width = 350;
},
{
layerId = m002;
shapes = (
{
closed = 1;
nodes = (
(10,487,o),
(10,133,o),
(290,-180,c),
(295,-194,o),
(350,-174,o),
(345,-160,c),
(195,163,o),
(195,457,o),
(345,780,c),
(350,794,o),
(295,814,o),
(290,800,c)
);
}
);
userData = {
com.schriftgestaltung.Glyphs.layer.corners = (
{
name = _segment.bulge;
origin = _corner00;
type = Segment;
},
{
name = _segment.bulge;
origin = _corner01;
type = Segment;
}
);
};
width = 350;
}
);
unicode = 40;
}
{
glyphname = plus;
layers = (
{
layerId = m01;
shapes = (
{
closed = 1;
nodes = (
(346,505,o),
(281,505,o),
(281,490,c),
(286,285,l),
(91,290,l),
(76,290,o),
(76,225,o),
(91,225,c),
(286,230,l),
(281,25,l),
(281,10,o),
(346,10,o),
(346,25,c),
(341,230,l),
(536,225,l),
(551,225,o),
(551,290,o),
(536,290,c),
(341,285,l),
(346,490,l)
);
}
);
userData = {
com.schriftgestaltung.Glyphs.layer.corners = (
{
name = _segment.bulge;
origin = _corner00;
type = Segment;
},
{
name = _segment.bulge;
origin = _corner01;
type = Segment;
},
{
name = _segment.bulge;
origin = _corner02;
type = Segment;
},
{
name = _segment.bulge;
origin = _corner03;
type = Segment;
}
);
};
width = 627;
},
{
layerId = m002;
shapes = (
{
closed = 1;
nodes = (
(351,485,o),
(271,485,o),
(271,470,c),
(276,295,l),
(111,300,l),
(96,300,o),
(96,220,o),
(111,220,c),
(276,225,l),
(271,50,l),
(271,35,o),
(351,35,o),
(351,50,c),
(346,225,l),
(511,220,l),
(526,220,o),
(526,300,o),
(511,300,c),
(346,295,l),
(351,470,l)
);
}
);
userData = {
com.schriftgestaltung.Glyphs.layer.corners = (
{
name = _segment.bulge;
origin = _corner00;
type = Segment;
},
{
name = _segment.bulge;
origin = _corner01;
type = Segment;
},
{
name = _segment.bulge;
origin = _corner02;
type = Segment;
},
{
name = _segment.bulge;
origin = _corner03;
type = Segment;
}
);
};
width = 622;
}
);
unicode = 43;
}
{
glyphname = comma;
layers = (
{
background = {
shapes = (
{
closed = 1;
nodes = (
(199,6,o),
(224,46,o),
(224,72,c),
(207,109,o),
(166,133,o),
(141,133,c),
(105,116,o),
(81,76,o),
(81,50,c),
(97,13,o),
(138,-10,o),
(163,-10,c)
);
}
);
};
hints = (
{
name = _segment.bulge;
origin = (0,3);
type = Segment;
}
);
layerId = m01;
shapes = (
{
closed = 1;
nodes = (
(155,3,o),
(133,-43,o),
(61,-135,c),
(101,-165,l),
(208,-46,o),
(285,69,o),
(156,133,c),
(123,125,o),
(89,83,o),
(86,55,c)
);
}
);
userData = {
com.schriftgestaltung.Glyphs.layer.corners = (
{
name = _segment.bulge;
origin = _corner00;
type = Segment;
}
);
};
width = 304;
},
{
background = {
shapes = (
{
closed = 1;
nodes = (
(207,9,o),
(236,57,o),
(236,87,c),
(216,131,o),
(168,160,o),
(138,160,c),
(95,140,o),
(66,92,o),
(66,61,c),
(86,17,o),
(134,-10,o),
(164,-10,c)
);
}
);
};
hints = (
{
name = _segment.bulge;
origin = (0,3);
type = Segment;
}
);
layerId = m002;
shapes = (
{
closed = 1;
nodes = (
(136,3,o),
(124,-43,o),
(52,-135,c),
(92,-170,l),
(209,-56,o),
(286,89,o),
(157,163,c),
(114,165,o),
(60,103,o),
(67,55,c)
);
}
);
userData = {
com.schriftgestaltung.Glyphs.layer.corners = (
{
name = _segment.bulge;
origin = _corner00;
type = Segment;
}
);
};
width = 285;
}
);
unicode = 44;
}
{
glyphname = hyphen;
layers = (
{
layerId = m01;
shapes = (
{
closed = 1;
nodes = (
(62,258,o),
(72,198,o),
(87,200,c),
(372,230,l),
(387,232,o),
(373,322,o),
(358,320,c),
(77,260,l)
);
}
);
userData = {
com.schriftgestaltung.Glyphs.layer.corners = (
{
name = _segment.bulge;
origin = _corner00;
type = Segment;
},
{
name = _segment.bulge;
origin = _corner01;
type = Segment;
}
);
};
width = 448;
},
{
layerId = m002;
shapes = (
{
closed = 1;
nodes = (
(62,278,o),
(72,198,o),
(87,200,c),
(372,230,l),
(387,233,o),
(363,353,o),
(348,350,c),
(77,280,l)
);
}
);
userData = {
com.schriftgestaltung.Glyphs.layer.corners = (
{
name = _segment.bulge;
origin = _corner00;
type = Segment;
},
{
name = _segment.bulge;
origin = _corner01;
type = Segment;
}
);
};
width = 448;
}
);
unicode = 45;
}
{
glyphname = period;
layers = (
{
layerId = m01;
shapes = (
{
closed = 1;
nodes = (
(198,6,o),
(223,46,o),
(223,72,c),
(206,109,o),
(165,133,o),
(140,133,c),
(104,116,o),
(80,76,o),
(80,50,c),
(96,13,o),
(137,-10,o),
(162,-10,c)
);
}
);
width = 303;
},
{
layerId = m002;
shapes = (
{
closed = 1;
nodes = (
(207,9,o),
(236,57,o),
(236,87,c),
(216,131,o),
(168,160,o),
(138,160,c),
(95,140,o),
(66,92,o),
(66,61,c),
(86,17,o),
(134,-10,o),
(164,-10,c)
);
}
);
width = 303;
}
);
unicode = 46;
}
{
glyphname = slash;
layers = (
{
hints = (
{
name = _segment.bulge;
origin = (0,3);
type = Segment;
},
{
name = _segment.bulge;
origin = (0,1);
type = Segment;
}
);
layerId = m01;
shapes = (
{
closed = 1;
nodes = (
(30,-130,l),
(80,-150,l),
(420,845,l),
(370,865,l)
);
}
);
userData = {
com.schriftgestaltung.Glyphs.layer.corners = (
{
name = _segment.bulge;
origin = _corner00;
type = Segment;
},
{
name = _segment.bulge;
origin = _corner01;
type = Segment;
}
);
};
width = 450;
},
{
hints = (
{
name = _segment.bulge;
origin = (0,3);
type = Segment;
},
{
name = _segment.bulge;
origin = (0,1);
type = Segment;
}
);
layerId = m002;
shapes = (
{
closed = 1;
nodes = (
(30,-130,l),
(100,-150,l),
(410,765,l),
(340,785,l)
);
}
);
userData = {
com.schriftgestaltung.Glyphs.layer.corners = (
{
name = _segment.bulge;
origin = _corner00;
type = Segment;
},
{
name = _segment.bulge;
origin = _corner01;
type = Segment;
}
);
};
width = 440;
}
);
unicode = 47;
}
{
glyphname = equal;
layers = (
{
layerId = m01;
shapes = (
{
closed = 1;
nodes = (
(46,380,o),
(46,310,o),
(61,310,c),
(561,310,l),
(576,310,o),
(576,380,o),
(561,380,c),
(311,370,l),
(61,380,l)
);
},
{
closed = 1;
nodes = (
(576,140,o),
(576,210,o),
(561,210,c),
(61,210,l),
(46,210,o),
(46,140,o),
(61,140,c),
(311,150,l),
(561,140,l)
);
}
);
userData = {
com.schriftgestaltung.Glyphs.layer.corners = (
{
name = _segment.bulge;
origin = _corner00;
type = Segment;
},
{
name = _segment.bulge;
origin = _corner01;
type = Segment;
},
{
name = _segment.bulge;
origin = _corner02;
scale = "{-1, -1}";
type = Segment;
},
{
name = _segment.bulge;
origin = _corner03;
scale = "{-1, -1}";
type = Segment;
}
);
};
width = 622;
},
{
layerId = m002;
shapes = (
{
closed = 1;
nodes = (
(46,395,o),
(46,310,o),
(61,310,c),
(561,310,l),
(576,310,o),
(576,395,o),
(561,395,c),
(311,385,l),
(61,395,l)
);
},
{
closed = 1;
nodes = (
(576,125,o),
(576,210,o),
(561,210,c),
(61,210,l),
(46,210,o),
(46,125,o),
(61,125,c),
(311,135,l),
(561,125,l)
);
}
);
userData = {
com.schriftgestaltung.Glyphs.layer.corners = (
{
name = _segment.bulge;
origin = _corner00;
type = Segment;
},
{
name = _segment.bulge;
origin = _corner01;
type = Segment;
},
{
name = _segment.bulge;
origin = _corner02;
scale = "{-1, -1}";
type = Segment;
},
{
name = _segment.bulge;
origin = _corner03;
scale = "{-1, -1}";
type = Segment;
}
);
};
width = 622;
}
);
unicode = 61;
}
{
glyphname = question;
layers = (
{
background = {
shapes = (
{
closed = 1;
nodes = (
(396,746,o),
(158,807,o),
(60,753,cs),
(33,738,o),
(69,636,o),
(100,652,cs),
(257,735,o),
(311,665,o),
(311,569,c),
(116,405,l),
(201,230,l),
(251,230,l),
(186,355,l),
(256,409,o),
(326,463,o),
(396,517,c)
);
}
);
};
hints = (
{
name = _segment.bulge;
origin = (0,15);
type = Segment;
}
);
layerId = m01;
shapes = (
{
closed = 1;
nodes = (
(396,737,o),
(251,811,o),
(141,811,cs),
(110,811,o),
(81,805,o),
(44,785,cs),
(9,766,o),
(46,664,o),
(92,688,cs),
(198,744,o),
(306,752,o),
(306,630,cs),
(306,481,o),
(-6,524,o),
(131,270,c),
(171,280,l),
(127,452,o),
(396,435,o),
(396,597,cs)
);
},
{
pos = (16,0);
ref = period;
}
);
userData = {
com.schriftgestaltung.Glyphs.layer.corners = (
{
name = _segment.bulge;
origin = _corner00;
type = Segment;
}
);
};
width = 466;
},
{
background = {
shapes = (
{
closed = 1;
nodes = (
(396,746,o),
(158,807,o),
(60,753,cs),
(33,738,o),
(69,636,o),
(100,652,cs),
(257,735,o),
(311,665,o),
(311,569,c),
(116,405,l),
(201,230,l),
(251,230,l),
(186,355,l),
(256,409,o),
(326,463,o),
(396,517,c)
);
}
);
};
hints = (
{
name = _segment.bulge;
origin = (0,15);
type = Segment;
}
);
layerId = m002;
shapes = (
{
closed = 1;
nodes = (
(396,737,o),
(251,811,o),
(141,811,cs),
(110,811,o),
(81,805,o),
(44,785,cs),
(9,766,o),
(36,624,o),
(82,648,cs),
(188,704,o),
(266,732,o),
(266,630,cs),
(266,481,o),
(-66,524,o),
(131,270,c),
(181,280,l),
(137,452,o),
(396,435,o),
(396,597,cs)
);
},
{
pos = (26,0);
ref = period;
}
);
userData = {
com.schriftgestaltung.Glyphs.layer.corners = (
{
name = _segment.bulge;
origin = _corner00;
type = Segment;
}
);
};
width = 466;
}
);
unicode = 63;
}
{
glyphname = B;
layers = (
{
anchors = (
{
name = bottom;
pos = (364,0);
},
{
name = center;
pos = (364,380);
},
{
name = top;
pos = (364,760);
}
);
background = {
shapes = (
{
closed = 1;
nodes = (
(79,0,l,{
name = _corner03;
}),
(296,0,ls),
(465,0,o),
(550,105,o),
(550,210,cs),
(550,291,o),
(498,373,o),
(393,404,c),
(473,432,o),
(514,499,o),
(514,568,cs),
(514,663,o),
(437,760,o),
(276,760,cs),
(79,760,l,{
name = _corner04;
})
);
},
{
closed = 1;
nodes = (
(179,360,l),
(201,364,o),
(224,365,o),
(256,365,cs),
(351,365,o),
(445,324,o),
(445,210,cs),
(445,108,o),
(365,59,o),
(253,59,cs),
(230,59,o),
(205,61,o),
(179,65,c)
);
},
{
closed = 1;
nodes = (
(179,697,l),
(198,700,o),
(217,702,o),
(235,702,cs),
(335,702,o),
(415,652,o),
(415,550,cs),
(415,448,o),
(326,418,o),
(220,418,cs),
(207,418,o),
(193,418,o),
(179,419,c)
);
}
);
};
hints = (
{
name = _corner.serif;
options = 1;
origin = (0,14);
scale = (0.8,-1.1);
type = Corner;
},
{
name = _corner.serif;
origin = (0,0);
scale = (0.8,1.1);
type = Corner;
}
);
layerId = m01;
shapes = (
{
closed = 1;
nodes = (
(153,0,l),
(370,0,ls),
(539,0,o),
(624,105,o),
(624,210,cs),
(624,291,o),
(572,373,o),
(467,404,c),
(547,432,o),
(588,499,o),
(588,568,cs),
(588,663,o),
(511,760,o),
(350,760,cs),
(153,760,l)
);
},
{
closed = 1;
nodes = (
(253,360,l),
(275,364,o),
(298,365,o),
(330,365,cs),
(425,365,o),
(519,324,o),
(519,210,cs),
(519,108,o),
(439,59,o),
(327,59,cs),
(304,59,o),
(279,61,o),
(253,65,c)
);
},
{
closed = 1;
nodes = (
(253,697,l),
(272,700,o),
(291,702,o),
(309,702,cs),
(409,702,o),
(489,652,o),
(489,550,cs),
(489,430,o),
(362,411,o),
(253,419,c)
);
}
);
userData = {
com.schriftgestaltung.Glyphs.layer.corners = (
{
name = _corner.serif;
origin = _corner00;
scale = "{0.8, 1.1}";
type = Corner;
},
{
name = _corner.serif;
options = 1;
origin = _corner01;
scale = "{0.8, -1.1}";
type = Corner;
},
{
name = _corner.serif;
options = 1;
origin = _corner02;
scale = "{0.8, -1.1}";
type = Corner;
},
{
name = _corner.serif;
origin = _corner03;
scale = "{0.8, 1.1}";
type = Corner;
}
);
};
width = 694;
},
{
anchors = (
{
name = bottom;
pos = (339,0);
},
{
name = center;
pos = (339,380);
},
{
name = top;
pos = (339,760);
}
);
background = {
shapes = (
{
closed = 1;
nodes = (
(109,0,l,{
name = _corner05;
}),
(326,0,ls),
(495,0,o),
(580,105,o),
(580,210,cs),
(580,291,o),
(528,373,o),
(423,404,c),
(503,432,o),
(544,499,o),
(544,568,cs),
(544,663,o),
(467,760,o),
(306,760,cs),
(109,760,l,{
name = _corner06;
})
);
},
{
closed = 1;
nodes = (
(209,360,l),
(231,364,o),
(254,365,o),
(286,365,cs),
(381,365,o),
(475,324,o),
(475,210,cs),
(475,108,o),
(395,59,o),
(283,59,cs),
(260,59,o),
(235,61,o),
(209,65,c)
);
},
{
closed = 1;
nodes = (
(209,697,l),
(228,700,o),
(247,702,o),
(265,702,cs),
(365,702,o),
(445,652,o),
(445,550,cs),
(445,448,o),
(356,418,o),
(250,418,cs),
(237,418,o),
(223,418,o),
(209,419,c)
);
}
);
};
hints = (
{
name = _corner.serif;
options = 1;
origin = (0,14);
scale = (0.8,-1.1);
type = Corner;
},
{
name = _corner.serif;
origin = (0,0);
scale = (0.8,1.1);
type = Corner;
}
);
layerId = m002;
shapes = (
{
closed = 1;
nodes = (
(109,0,l),
(396,0,ls),
(570,0,o),
(657,110,o),
(657,216,cs),
(657,300,o),
(602,381,o),
(493,404,c),
(572,433,o),
(611,500,o),
(611,568,cs),
(611,663,o),
(535,760,o),
(386,760,cs),
(109,760,l)
);
},
{
closed = 1;
nodes = (
(259,352,l),
(274,353,o),
(290,354,o),
(307,354,cs),
(398,354,o),
(505,331,o),
(505,205,cs),
(505,104,o),
(418,70,o),
(324,70,cs),
(302,70,o),
(280,72,o),
(259,75,c)
);
},
{
closed = 1;
nodes = (
(259,687,l),
(275,689,o),
(290,690,o),
(305,690,cs),
(405,690,o),
(459,642,o),
(459,560,cs),
(459,464,o),
(388,420,o),
(259,426,c)
);
}
);
userData = {
com.schriftgestaltung.Glyphs.layer.corners = (
{
name = _corner.serif;
origin = _corner00;
scale = "{0.8, 1.1}";
type = Corner;
},
{
name = _corner.serif;
options = 1;
origin = _corner01;
scale = "{0.8, -1.1}";
type = Corner;
},
{
name = _corner.serif;
options = 1;
origin = _corner02;
scale = "{0.8, -1.1}";
type = Corner;
},
{
name = _corner.serif;
origin = _corner03;
scale = "{0.8, 1.1}";
type = Corner;
}
);
};
width = 677;
}
);
unicode = 66;
}
{
glyphname = C;
layers = (
{
anchors = (
{
name = bottom;
pos = (411,0);
},
{
name = top;
pos = (461,760);
}
);
background = {
shapes = (
{
closed = 1;
nodes = (
(685,565,l),
(650,760,l,{
name = _corner02;
}),
(580,723,o),
(548,767,o),
(423,770,cs),
(207,776,o),
(20,597,o),
(20,375,cs),
(20,131,o),
(205,-9,o),
(380,-9,cs),
(509,-9,o),
(613,45,o),
(700,145,c),
(665,179,l),
(445,-51,o),
(127,92,o),
(127,404,cs),
(127,597,o),
(257,712,o),
(395,712,cs),
(484,712,o),
(587,663,o),
(650,555,c)
);
}
);
};
hints = (
{
name = _segment.bulge;
origin = (0,0);
type = Segment;
},
{
name = _segment.bulge;
origin = (0,14);
type = Segment;
}
);
layerId = m01;
shapes = (
{
closed = 1;
nodes = (
(725,570,l),
(690,730,l),
(623,760,o),
(554,774,o),
(488,774,cs),
(263,774,o),
(70,612,o),
(70,375,cs),
(70,131,o),
(255,-9,o),
(430,-9,cs),
(559,-9,o),
(663,45,o),
(750,145,c),
(715,179,l),
(640,101,o),
(554,66,o),
(473,66,cs),
(316,66,o),
(177,198,o),
(177,414,cs),
(177,609,o),
(321,712,o),
(456,712,cs),
(552,712,o),
(608,678,o),
(685,560,c)
);
}
);
userData = {
com.schriftgestaltung.Glyphs.layer.corners = (
{
name = _segment.bulge;
origin = _corner00;
type = Segment;
},
{
name = _segment.bulge;
origin = _corner01;
type = Segment;
}
);
};
width = 792;
},
{
anchors = (
{
name = bottom;
pos = (391,0);
},
{
name = top;
pos = (430,760);
}
);
background = {
shapes = (
{
closed = 1;
nodes = (
(715,565,l),
(680,760,l,{
name = _corner02;
}),
(610,723,o),
(578,767,o),
(453,770,cs),
(237,776,o),
(50,597,o),
(50,375,cs),
(50,131,o),
(235,-9,o),
(410,-9,cs),
(539,-9,o),
(643,45,o),
(730,145,c),
(695,179,l),
(475,-51,o),
(157,92,o),
(157,404,cs),
(157,597,o),
(287,712,o),
(425,712,cs),
(514,712,o),
(617,663,o),
(680,555,c)
);
}
);
};
hints = (
{
name = _segment.bulge;
origin = (0,0);
type = Segment;
},
{
name = _segment.bulge;
origin = (0,14);
type = Segment;
}
);
layerId = m002;
shapes = (
{
closed = 1;
nodes = (
(705,560,l),
(670,730,l),
(603,760,o),
(534,774,o),
(468,774,cs),
(243,774,o),
(50,612,o),
(50,375,cs),
(50,131,o),
(235,-9,o),
(410,-9,cs),
(539,-9,o),
(643,45,o),
(730,145,c),
(685,189,l),
(613,129,o),
(541,103,o),
(475,103,cs),
(327,103,o),
(212,236,o),
(212,421,cs),
(212,579,o),
(284,697,o),
(429,697,cs),
(512,697,o),
(585,631,o),
(645,540,c)
);
}
);
userData = {
com.schriftgestaltung.Glyphs.layer.corners = (
{
name = _segment.bulge;
origin = _corner00;
type = Segment;
},
{
name = _segment.bulge;
origin = _corner01;
type = Segment;
}
);
};
width = 782;
}
);
unicode = 67;
}
{
glyphname = E;
layers = (
{
anchors = (
{
name = bottom;
pos = (354,0);
},
{
name = ogonek;
pos = (620,9);
},
{
name = top;
pos = (354,760);
},
{
name = topleft;
pos = (43,760);
}
);
layerId = m01;
shapes = (
{
closed = 1;
nodes = (
(608,-1,l),
(620,9,l),
(654,179,l),
(660,193,o),
(627,207,o),
(621,193,c),
(554,83,o),
(540,55,o),
(398,55,cs),
(271,55,o),
(253,60,o),
(253,119,cs),
(253,365,l),
(387,365,l),
(452,365,o),
(449,359,o),
(484,296,c),
(488,289,o),
(513,293,o),
(513,302,c),
(513,358,o),
(512,372,o),
(512,393,cs),
(512,413,o),
(513,427,o),
(513,483,c),
(513,492,o),
(488,496,o),
(484,489,c),
(449,426,o),
(452,420,o),
(387,420,c),
(253,420,l),
(253,640,ls),
(253,699,o),
(271,704,o),
(398,704,cs),
(520,704,o),
(524,686,o),
(591,576,c),
(597,562,o),
(630,576,o),
(624,590,c),
(599,760,l),
(588,769,l),
(448,760,l),
(181,760,l),
(161,760,o),
(145,761,o),
(81,761,c),
(71,761,o),
(66,734,o),
(75,729,c),
(146,691,o),
(153,694,o),
(153,623,c),
(153,137,l),
(153,65,o),
(146,68,o),
(75,30,c),
(66,25,o),
(71,-2,o),
(81,-2,c),
(145,-2,o),
(161,-1,o),
(181,-1,c)
);
}
);
userData = {
com.schriftgestaltung.Glyphs.layer.corners = (
{
name = _corner.serif;
options = 1;
origin = _corner00;
scale = "{0.8, 1.1}";
type = Corner;
},
{
name = _corner.mitre;
options = 1;
origin = _corner01;
scale = "{1, -1}";
type = Corner;
},
{
name = _corner.serif;
origin = _corner02;
scale = "{0.8, -1.1}";
type = Corner;
},
{
name = _segment.bulge;
origin = _corner03;
type = Segment;
},
{
name = _corner.mitre;
origin = _corner04;
type = Corner;
},
{
name = _segment.bulge;
origin = _corner05;
type = Segment;
}
);
};
width = 725;
},
{
anchors = (
{
name = bottom;
pos = (356,0);
},
{
name = ogonek;
pos = (640,10);
},
{
name = top;
pos = (356,760);
},
{
name = topleft;
pos = (20,760);
}
);
layerId = m002;
shapes = (
{
closed = 1;
nodes = (
(615,-1,l),
(640,19,l),
(681,189,l),
(687,203,o),
(629,227,o),
(623,213,c),
(566,103,o),
(487,75,o),
(405,75,cs),
(278,75,o),
(280,85,o),
(280,144,cs),
(280,355,l),
(384,355,ls),
(449,355,o),
(461,342,o),
(490,271,cs),
(495,258,o),
(542,271,o),
(540,283,cs),
(535,316,o),
(534,344,o),
(534,390,cs),
(534,436,o),
(535,464,o),
(540,497,cs),
(542,509,o),
(494,518,o),
(490,509,cs),
(461,438,o),
(449,425,o),
(384,425,cs),
(280,425,l),
(280,615,ls),
(280,674,o),
(278,684,o),
(405,684,cs),
(477,684,o),
(536,676,o),
(593,566,c),
(597,551,o),
(655,565,o),
(651,580,c),
(628,750,l),
(605,769,l),
(475,760,l),
(158,760,l),
(138,760,o),
(122,761,o),
(66,761,c),
(56,761,o),
(47,717,o),
(56,712,c),
(119,674,o),
(130,672,o),
(130,601,c),
(130,159,l),
(130,87,o),
(119,85,o),
(56,47,c),
(47,42,o),
(56,-2,o),
(66,-2,c),
(122,-2,o),
(138,-1,o),
(158,-1,c)
);
}
);
userData = {
com.schriftgestaltung.Glyphs.layer.corners = (
{
name = _corner.serif;
options = 1;
origin = _corner00;
scale = "{0.8, 1.1}";
type = Corner;
},
{
name = _corner.mitre;
options = 1;
origin = _corner01;
scale = "{1, -1}";
type = Corner;
},
{
name = _corner.serif;
origin = _corner02;
scale = "{0.8, -1.1}";
type = Corner;
},
{
name = _segment.bulge;
origin = _corner03;
type = Segment;
},
{
name = _corner.mitre;
origin = _corner04;
type = Corner;
},
{
name = _segment.bulge;
origin = _corner05;
type = Segment;
}
);
};
width = 711;
}
);
unicode = 69;
}
{
glyphname = G;
layers = (
{
anchors = (
{
name = bottom;
pos = (436,0);
},
{
name = top;
pos = (456,740);
}
);
background = {
shapes = (
{
closed = 1;
nodes = (
(685,565,l,{
name = _corner00;
}),
(650,760,l,{
name = _corner01;
}),
(580,723,o),
(548,767,o),
(423,770,cs),
(207,776,o),
(20,597,o),
(20,375,cs),
(20,131,o),
(205,-9,o),
(380,-9,cs),
(509,-9,o),
(613,45,o),
(700,145,c),
(665,179,l,{
name = _corner02;
}),
(445,-51,o),
(127,92,o),
(127,404,cs),
(127,597,o),
(257,712,o),
(395,712,cs),
(484,712,o),
(587,663,o),
(650,555,c)
);
}
);
};
layerId = m01;
shapes = (
{
closed = 1;
nodes = (
(635,60,l),
(730,115,l),
(730,233,l),
(730,304,o),
(735,301,o),
(779,339,c),
(785,344,o),
(782,371,o),
(775,371,c),
(735,371,o),
(725,370,o),
(713,370,c),
(663,370,l),
(643,370,o),
(627,371,o),
(563,371,c),
(553,371,o),
(548,344,o),
(557,339,c),
(628,301,o),
(635,304,o),
(635,233,c)
);
},
{
closed = 1;
nodes = (
(177,609,o),
(321,717,o),
(456,711,cs),
(552,707,o),
(608,678,o),
(685,560,c),
(689,545,o),
(729,555,o),
(725,570,c),
(690,730,l),
(623,760,o),
(554,774,o),
(488,774,cs),
(263,774,o),
(70,612,o),
(70,375,cs),
(70,131,o),
(255,-9,o),
(430,-9,cs),
(559,-9,o),
(653,45,o),
(730,115,c),
(685,149,l),
(495,-41,o),
(177,102,o),
(177,424,cs)
);
}
);
userData = {
com.schriftgestaltung.Glyphs.layer.corners = (
{
name = _corner.serif;
origin = _corner00;
scale = "{0.5, 1.1}";
type = Corner;
},
{
name = _corner.serif;
options = 1;
origin = _corner01;
scale = "{0.8, -1.1}";
type = Corner;
},
{
name = _segment.bulge;
origin = _corner02;
type = Segment;
}
);
};
width = 852;
},
{
anchors = (
{
name = bottom;
pos = (396,0);
},
{
name = top;
pos = (396,760);
}
);
background = {
shapes = (
{
closed = 1;
nodes = (
(705,570,l,{
name = _corner03;
}),
(670,730,l),
(603,760,o),
(534,774,o),
(468,774,cs),
(243,774,o),
(50,612,o),
(50,375,cs),
(50,131,o),
(235,-9,o),
(410,-9,cs),
(539,-9,o),
(643,45,o),
(730,145,c),
(685,189,l,{
name = _corner04;
}),
(612,128,o),
(535,100,o),
(465,100,cs),
(319,100,o),
(212,223,o),
(212,421,cs),
(212,579,o),
(284,697,o),
(429,697,cs),
(532,697,o),
(595,631,o),
(645,550,c)
);
}
);
};
layerId = m002;
shapes = (
{
closed = 1;
nodes = (
(585,60,l),
(710,115,l),
(710,211,l),
(710,282,o),
(717,284,o),
(757,322,c),
(762,327,o),
(757,371,o),
(750,371,c),
(715,371,o),
(705,370,o),
(693,370,c),
(613,370,l),
(593,370,o),
(577,371,o),
(521,371,c),
(511,371,o),
(502,327,o),
(511,322,c),
(574,284,o),
(585,282,o),
(585,211,c)
);
},
{
closed = 1;
nodes = (
(212,579,o),
(284,697,o),
(429,697,cs),
(512,697,o),
(585,631,o),
(645,550,c),
(650,536,o),
(710,556,o),
(705,570,c),
(670,730,l),
(603,760,o),
(534,774,o),
(468,774,cs),
(243,774,o),
(50,612,o),
(50,375,cs),
(50,131,o),
(235,-9,o),
(410,-9,cs),
(539,-9,o),
(643,51,o),
(710,115,c),
(605,119,l),
(438,45,o),
(212,145,o),
(212,421,cs)
);
}
);
userData = {
com.schriftgestaltung.Glyphs.layer.corners = (
{
name = _corner.serif;
origin = _corner00;
scale = "{0.5, 1.1}";
type = Corner;
},
{
name = _corner.serif;
options = 1;
origin = _corner01;
scale = "{0.8, -1.1}";
type = Corner;
},
{
name = _segment.bulge;
origin = _corner02;
type = Segment;
}
);
};
width = 792;
}
);
unicode = 71;
}
{
glyphname = H;
layers = (
{
anchors = (
{
name = bottom;
pos = (453,0);
},
{
name = center;
pos = (453,380);
},
{
name = top;
pos = (453,760);
},
{
name = topleft;
pos = (64,760);
}
);
hints = (
{
name = _corner.serif;
origin = (0,0);
scale = (0.8,1.1);
type = Corner;
},
{
name = _corner.serif;
options = 1;
origin = (0,1);
scale = (0.8,-1.1);
type = Corner;
},
{
name = _corner.serif;
origin = (0,2);
scale = (0.8,1.1);
type = Corner;
},
{
name = _corner.serif;
options = 1;
origin = (0,3);
scale = (0.8,-1.1);
type = Corner;
},
{
name = _corner.serif;
origin = (1,0);
scale = (0.8,1.1);
type = Corner;
},
{
name = _corner.serif;
options = 1;
origin = (1,1);
scale = (0.8,-1.1);
type = Corner;
},
{
name = _corner.serif;
origin = (1,2);
scale = (0.8,1.1);
type = Corner;
},
{
name = _corner.serif;
options = 1;
origin = (1,3);
scale = (0.8,-1.1);
type = Corner;
}
);
layerId = m01;
shapes = (
{
closed = 1;
nodes = (
(153,0,l),
(253,0,l),
(253,760,l),
(153,760,l)
);
},
{
closed = 1;
nodes = (
(653,0,l),
(753,0,l),
(753,760,l),
(653,760,l)
);
},
{
closed = 1;
nodes = (
(199,365,l),
(689,365,l),
(689,420,l),
(199,420,l)
);
}
);
userData = {
com.schriftgestaltung.Glyphs.layer.corners = (
{
name = _corner.serif;
origin = _corner00;
scale = "{0.8, 1.1}";
type = Corner;
},
{
name = _corner.serif;
options = 1;
origin = _corner01;
scale = "{0.8, -1.1}";
type = Corner;
},
{
name = _corner.serif;
origin = _corner02;
scale = "{0.8, 1.1}";
type = Corner;
},
{
name = _corner.serif;
options = 1;
origin = _corner03;
scale = "{0.8, -1.1}";
type = Corner;
},
{
name = _corner.serif;
origin = _corner04;
scale = "{0.8, 1.1}";
type = Corner;
},
{
name = _corner.serif;
options = 1;
origin = _corner05;
scale = "{0.8, -1.1}";
type = Corner;
},
{
name = _corner.serif;
origin = _corner06;
scale = "{0.8, 1.1}";
type = Corner;
},
{
name = _corner.serif;
options = 1;
origin = _corner07;
scale = "{0.8, -1.1}";
type = Corner;
}
);
};
width = 906;
},
{
anchors = (
{
name = bottom;
pos = (414,0);
},
{
name = center;
pos = (414,380);
},
{
name = top;
pos = (414,760);
},
{
name = topleft;
pos = (20,760);
}
);
hints = (
{
name = _corner.serif;
origin = (0,0);
scale = (0.8,1.1);
type = Corner;
},
{
name = _corner.serif;
options = 1;
origin = (0,1);
scale = (0.8,-1.1);
type = Corner;
},
{
name = _corner.serif;
origin = (0,2);
scale = (0.8,1.1);
type = Corner;
},
{
name = _corner.serif;
options = 1;
origin = (0,3);
scale = (0.8,-1.1);
type = Corner;
},
{
name = _corner.serif;
origin = (1,0);
scale = (0.8,1.1);
type = Corner;
},
{
name = _corner.serif;
options = 1;
origin = (1,1);
scale = (0.8,-1.1);
type = Corner;
},
{
name = _corner.serif;
origin = (1,2);
scale = (0.8,1.1);
type = Corner;
},
{
name = _corner.serif;
options = 1;
origin = (1,3);
scale = (0.8,-1.1);
type = Corner;
}
);
layerId = m002;
shapes = (
{
closed = 1;
nodes = (
(109,0,l),
(254,0,l),
(254,760,l),
(109,760,l)
);
},
{
closed = 1;
nodes = (
(574,0,l),
(719,0,l),
(719,760,l),
(574,760,l)
);
},
{
closed = 1;
nodes = (
(175,345,l),
(645,345,l),
(650,425,l),
(180,425,l)
);
}
);
userData = {
com.schriftgestaltung.Glyphs.layer.corners = (
{
name = _corner.serif;
origin = _corner00;
scale = "{0.8, 1.1}";
type = Corner;
},
{
name = _corner.serif;
options = 1;
origin = _corner01;
scale = "{0.8, -1.1}";
type = Corner;
},
{
name = _corner.serif;
origin = _corner02;
scale = "{0.8, 1.1}";
type = Corner;
},
{
name = _corner.serif;
options = 1;
origin = _corner03;
scale = "{0.8, -1.1}";
type = Corner;
},
{
name = _corner.serif;
origin = _corner04;
scale = "{0.8, 1.1}";
type = Corner;
},
{
name = _corner.serif;
options = 1;
origin = _corner05;
scale = "{0.8, -1.1}";
type = Corner;
},
{
name = _corner.serif;
origin = _corner06;
scale = "{0.8, 1.1}";
type = Corner;
},
{
name = _corner.serif;
options = 1;
origin = _corner07;
scale = "{0.8, -1.1}";
type = Corner;
}
);
};
width = 828;
}
);
unicode = 72;
}
{
glyphname = I;
layers = (
{
anchors = (
{
name = bottom;
pos = (203,0);
},
{
name = ogonek;
pos = (330,10);
},
{
name = top;
pos = (203,730);
},
{
name = topleft;
pos = (64,760);
}
);
hints = (
{
name = _corner.serif;
origin = (0,0);
scale = (0.8,1.1);
type = Corner;
},
{
name = _corner.serif;
options = 1;
origin = (0,1);
scale = (0.8,-1.1);
type = Corner;
},
{
name = _corner.serif;
origin = (0,2);
scale = (0.8,1.1);
type = Corner;
},
{
name = _corner.serif;
options = 1;
origin = (0,3);
scale = (0.8,-1.1);
type = Corner;
}
);
layerId = m01;
shapes = (
{
closed = 1;
nodes = (
(153,0,l),
(253,0,l),
(253,760,l),
(153,760,l)
);
}
);
userData = {
com.schriftgestaltung.Glyphs.layer.corners = (
{
name = _corner.serif;
origin = _corner00;
scale = "{0.8, 1.1}";
type = Corner;
},
{
name = _corner.serif;
options = 1;
origin = _corner01;
scale = "{0.8, -1.1}";
type = Corner;
},
{
name = _corner.serif;
origin = _corner02;
scale = "{0.8, 1.1}";
type = Corner;
},
{
name = _corner.serif;
options = 1;
origin = _corner03;
scale = "{0.8, -1.1}";
type = Corner;
}
);
};
width = 406;
},
{
anchors = (
{
name = bottom;
pos = (179,0);
},
{
name = ogonek;
pos = (322,10);
},
{
name = top;
pos = (179,760);
},
{
name = topleft;
pos = (20,760);
}
);
hints = (
{
name = _corner.serif;
origin = (0,0);
scale = (0.8,1.1);
type = Corner;
},
{
name = _corner.serif;
options = 1;
origin = (0,1);
scale = (0.8,-1.1);
type = Corner;
},
{
name = _corner.serif;
origin = (0,2);
scale = (0.8,1.1);
type = Corner;
},
{
name = _corner.serif;
options = 1;
origin = (0,3);
scale = (0.8,-1.1);
type = Corner;
}
);
layerId = m002;
shapes = (
{
closed = 1;
nodes = (
(109,0,l),
(249,0,l),
(249,760,l),
(109,760,l)
);
}
);
userData = {
com.schriftgestaltung.Glyphs.layer.corners = (
{
name = _corner.serif;
origin = _corner00;
scale = "{0.8, 1.1}";
type = Corner;
},
{
name = _corner.serif;
options = 1;
origin = _corner01;
scale = "{0.8, -1.1}";
type = Corner;
},
{
name = _corner.serif;
origin = _corner02;
scale = "{0.8, 1.1}";
type = Corner;
},
{
name = _corner.serif;
options = 1;
origin = _corner03;
scale = "{0.8, -1.1}";
type = Corner;
}
);
};
width = 358;
}
);
unicode = 73;
}
{
glyphname = J;
layers = (
{
anchors = (
{
name = bottom;
pos = (241,0);
},
{
name = top;
pos = (241,760);
}
);
hints = (
{
name = _corner.serif;
origin = (0,10);
scale = (0.8,1.1);
type = Corner;
},
{
name = _corner.serif;
options = 1;
origin = (0,11);
scale = (0.8,-1.1);
type = Corner;
}
);
layerId = m01;
shapes = (
{
closed = 1;
nodes = (
(191,125,ls),
(191,3,o),
(164,-44,o),
(72,-142,c),
(63,-152,o),
(88,-181,o),
(102,-173,c),
(248,-67,o),
(291,-32,o),
(291,160,cs),
(291,760,l),
(191,760,l)
);
}
);
userData = {
com.schriftgestaltung.Glyphs.layer.corners = (
{
name = _corner.serif;
origin = _corner00;
scale = "{0.8, 1.1}";
type = Corner;
},
{
name = _corner.serif;
options = 1;
origin = _corner01;
scale = "{0.8, -1.1}";
type = Corner;
}
);
};
width = 444;
},
{
anchors = (
{
name = bottom;
pos = (184,0);
},
{
name = top;
pos = (184,760);
}
);
hints = (
{
name = _corner.serif;
origin = (0,10);
scale = (0.8,1.1);
type = Corner;
},
{
name = _corner.serif;
options = 1;
origin = (0,11);
scale = (0.8,-1.1);
type = Corner;
}
);
layerId = m002;
shapes = (
{
closed = 1;
nodes = (
(109,125,ls),
(109,3,o),
(82,-44,o),
(-10,-142,c),
(-19,-152,o),
(16,-201,o),
(30,-193,c),
(176,-87,o),
(259,-32,o),
(259,160,cs),
(259,760,l),
(109,760,l)
);
}
);
userData = {
com.schriftgestaltung.Glyphs.layer.corners = (
{
name = _corner.serif;
origin = _corner00;
scale = "{0.8, 1.1}";
type = Corner;
},
{
name = _corner.serif;
options = 1;
origin = _corner01;
scale = "{0.8, -1.1}";
type = Corner;
}
);
};
width = 368;
}
);
unicode = 74;
}
{
glyphname = K;
layers = (
{
anchors = (
{
name = bottom;
pos = (403,0);
},
{
name = top;
pos = (403,760);
}
);
layerId = m01;
shapes = (
{
closed = 1;
nodes = (
(153,138,l),
(153,66,o),
(146,69,o),
(75,31,c),
(66,26,o),
(71,-1,o),
(81,-1,c),
(145,-1,o),
(161,0,o),
(181,0,c),
(225,0,l),
(245,0,o),
(261,-1,o),
(325,-1,c),
(335,-1,o),
(340,26,o),
(331,31,c),
(260,69,o),
(253,66,o),
(253,138,c),
(253,623,l),
(253,694,o),
(260,691,o),
(331,729,c),
(340,734,o),
(335,761,o),
(325,761,c),
(261,761,o),
(245,760,o),
(225,760,c),
(181,760,l),
(161,760,o),
(145,761,o),
(81,761,c),
(71,761,o),
(66,734,o),
(75,729,c),
(146,691,o),
(153,694,o),
(153,623,c)
);
},
{
closed = 1;
nodes = (
(290,369,l),
(574,0,l),
(651,0,l),
(671,0,o),
(687,-1,o),
(751,-1,c),
(761,-1,o),
(766,26,o),
(757,31,c),
(686,69,o),
(665,61,o),
(620,117,c),
(364,435,l)
);
},
{
closed = 1;
nodes = (
(563,620,ls),
(645,700,o),
(666,701,o),
(738,729,c),
(746,734,o),
(742,761,o),
(731,761,c),
(667,761,o),
(651,760,o),
(631,760,c),
(601,760,l),
(581,760,o),
(565,761,o),
(501,761,c),
(491,761,o),
(486,734,o),
(495,729,c),
(558,695,o),
(535,680,o),
(445,587,cs),
(243,380,l),
(243,307,l)
);
}
);
userData = {
com.schriftgestaltung.Glyphs.layer.corners = (
{
name = _corner.serif;
origin = _corner00;
scale = "{0.8, 1.1}";
type = Corner;
},
{
name = _corner.serif;
options = 1;
origin = _corner01;
scale = "{0.8, -1.1}";
type = Corner;
},
{
name = _corner.serif;
origin = _corner02;
scale = "{0.8, 1.1}";
type = Corner;
},
{
name = _corner.serif;
options = 1;
origin = _corner03;
scale = "{0.8, -1.1}";
type = Corner;
},
{
name = _corner.serif;
options = 1;
origin = _corner04;
scale = "{0.8, -1.1}";
type = Corner;
}
);
};
width = 782;
},
{
anchors = (
{
name = bottom;
pos = (377,0);
},
{
name = top;
pos = (377,760);
}
);
background = {
shapes = (
{
closed = 1;
nodes = (
(109,0,l,{
name = _corner00;
}),
(209,0,l,{
name = _corner01;
}),
(209,760,l,{
name = _corner02;
}),
(109,760,l,{
name = _corner03;
})
);
},
{
closed = 1;
nodes = (
(246,369,l),
(530,0,l),
(670,0,l,{
name = _corner04;
}),
(320,435,l)
);
},
{
closed = 1;
nodes = (
(519,620,ls),
(601,700,o),
(622,701,o),
(694,729,c),
(702,734,o),
(698,761,o),
(687,761,c),
(623,761,o),
(607,760,o),
(587,760,c),
(557,760,l),
(537,760,o),
(521,761,o),
(457,761,c),
(447,761,o),
(442,734,o),
(451,729,c),
(514,695,o),
(491,680,o),
(401,587,cs),
(199,380,l),
(199,307,l)
);
}
);
};
layerId = m002;
shapes = (
{
closed = 1;
nodes = (
(109,160,l),
(109,88,o),
(98,86,o),
(35,48,c),
(26,43,o),
(35,-1,o),
(45,-1,c),
(101,-1,o),
(117,0,o),
(137,0,c),
(231,0,l),
(251,0,o),
(267,-1,o),
(323,-1,c),
(333,-1,o),
(342,43,o),
(333,48,c),
(270,86,o),
(259,88,o),
(259,160,c),
(259,601,l),
(259,672,o),
(270,674,o),
(333,712,c),
(342,717,o),
(333,761,o),
(323,761,c),
(267,761,o),
(251,760,o),
(231,760,c),
(137,760,l),
(117,760,o),
(101,761,o),
(45,761,c),
(35,761,o),
(26,717,o),
(35,712,c),
(98,674,o),
(109,672,o),
(109,601,c)
);
},
{
closed = 1;
nodes = (
(246,369,l),
(530,0,l),
(647,0,l),
(667,0,o),
(683,-1,o),
(739,-1,c),
(749,-1,o),
(758,43,o),
(749,48,c),
(686,86,o),
(661,83,o),
(615,138,c),
(350,455,l)
);
},
{
closed = 1;
nodes = (
(569,620,ls),
(617,665,o),
(652,681,o),
(724,709,cs),
(733,712,o),
(728,761,o),
(717,761,c),
(653,761,o),
(637,760,o),
(617,760,c),
(567,760,l),
(547,760,o),
(531,761,o),
(467,761,c),
(457,761,o),
(452,715,o),
(461,709,cs),
(506,679,o),
(492,670,o),
(411,587,cs),
(209,380,l),
(239,307,l)
);
}
);
userData = {
com.schriftgestaltung.Glyphs.layer.corners = (
{
name = _corner.serif;
origin = _corner00;
scale = "{0.8, 1.1}";
type = Corner;
},
{
name = _corner.serif;
options = 1;
origin = _corner01;
scale = "{0.8, -1.1}";
type = Corner;
},
{
name = _corner.serif;
origin = _corner02;
scale = "{0.8, 1.1}";
type = Corner;
},
{
name = _corner.serif;
options = 1;
origin = _corner03;
scale = "{0.8, -1.1}";
type = Corner;
},
{
name = _corner.serif;
options = 1;
origin = _corner04;
scale = "{0.8, -1.1}";
type = Corner;
}
);
};
width = 753;
}
);
unicode = 75;
}
{
glyphname = L;
layers = (
{
anchors = (
{
name = bottom;
pos = (344,0);
},
{
name = center;
pos = (344,380);
},
{
name = top;
pos = (224,730);
},
{
name = topright;
pos = (375,760);
}
);
layerId = m01;
shapes = (
{
closed = 1;
nodes = (
(588,-1,l),
(600,9,l),
(634,179,l),
(640,193,o),
(607,207,o),
(601,193,c),
(534,83,o),
(520,55,o),
(398,55,cs),
(271,55,o),
(253,60,o),
(253,119,cs),
(253,623,l),
(253,694,o),
(261,691,o),
(341,729,c),
(351,734,o),
(346,761,o),
(334,761,c),
(262,761,o),
(244,760,o),
(222,760,c),
(181,760,l),
(161,760,o),
(145,761,o),
(81,761,c),
(71,761,o),
(66,734,o),
(75,729,c),
(146,691,o),
(153,694,o),
(153,623,c),
(153,137,l),
(153,65,o),
(146,68,o),
(75,30,c),
(66,25,o),
(71,-2,o),
(81,-2,c),
(145,-2,o),
(161,-1,o),
(181,-1,c)
);
}
);
userData = {
com.schriftgestaltung.Glyphs.layer.corners = (
{
name = _corner.mitre;
options = 1;
origin = _corner00;
scale = "{1, -1}";
type = Corner;
},
{
name = _segment.bulge;
origin = _corner01;
type = Segment;
},
{
name = _corner.serif;
origin = _corner02;
scale = "{0.8, -1.1}";
type = Corner;
},
{
name = _corner.serif;
options = 1;
origin = _corner03;
scale = "{0.8, 1.1}";
type = Corner;
},
{
name = _corner.serif;
origin = _corner04;
scale = "{0.9, 1.1}";
type = Corner;
}
);
};
width = 655;
},
{
anchors = (
{
name = bottom;
pos = (356,0);
},
{
name = center;
pos = (356,380);
},
{
name = top;
pos = (356,760);
},
{
name = topright;
pos = (691,760);
}
);
layerId = m002;
shapes = (
{
closed = 1;
nodes = (
(625,-1,l),
(649,19,l),
(681,194,l),
(684,209,o),
(621,223,o),
(618,208,c),
(561,98,o),
(477,70,o),
(395,70,cs),
(298,70,o),
(280,75,o),
(280,134,cs),
(280,601,l),
(280,672,o),
(293,674,o),
(364,712,c),
(374,717,o),
(364,761,o),
(352,761,c),
(289,761,o),
(271,760,o),
(249,760,c),
(158,760,l),
(138,760,o),
(122,761,o),
(66,761,c),
(56,761,o),
(47,717,o),
(56,712,c),
(119,674,o),
(130,672,o),
(130,601,c),
(130,159,l),
(130,87,o),
(119,85,o),
(56,47,c),
(47,42,o),
(56,-2,o),
(66,-2,c),
(122,-2,o),
(138,-1,o),
(158,-1,c)
);
}
);
userData = {
com.schriftgestaltung.Glyphs.layer.corners = (
{
name = _corner.mitre;
options = 1;
origin = _corner00;
scale = "{1, -1}";
type = Corner;
},
{
name = _segment.bulge;
origin = _corner01;
type = Segment;
},
{
name = _corner.serif;
origin = _corner02;
scale = "{0.8, -1.1}";
type = Corner;
},
{
name = _corner.serif;
options = 1;
origin = _corner03;
scale = "{0.8, 1.1}";
type = Corner;
},
{
name = _corner.serif;
origin = _corner04;
scale = "{0.9, 1.1}";
type = Corner;
}
);
};
width = 711;
}
);
unicode = 76;
}
{
glyphname = M;
layers = (
{
anchors = (
{
name = bottom;
pos = (550,0);
},
{
name = top;
pos = (550,760);
}
);
layerId = m01;
shapes = (
{
closed = 1;
nodes = (
(528,-4,o),
(574,6,o),
(580,20,cs),
(906,760,l),
(836,760,l),
(568,150,l),
(276,760,l),
(160,760,l),
(521,10,ls)
);
},
{
closed = 1;
nodes = (
(213,760,l),
(181,760,l),
(161,760,o),
(145,761,o),
(81,761,c),
(71,761,o),
(66,734,o),
(75,729,c),
(146,691,o),
(153,694,o),
(153,623,c),
(153,138,l),
(153,66,o),
(146,69,o),
(75,31,c),
(66,26,o),
(71,-1,o),
(81,-1,c),
(145,-1,o),
(161,0,o),
(181,0,c),
(199,0,l),
(219,0,o),
(235,-1,o),
(299,-1,c),
(310,-1,o),
(314,26,o),
(306,31,c),
(234,69,o),
(227,66,o),
(225,137,c)
);
},
{
closed = 1;
nodes = (
(856,760,l),
(848,137,l),
(847,66,o),
(839,69,o),
(768,31,c),
(759,26,o),
(764,-1,o),
(775,-1,c),
(839,-1,o),
(855,0,o),
(875,0,c),
(918,0,l),
(938,0,o),
(954,-1,o),
(1018,-1,c),
(1028,-1,o),
(1033,26,o),
(1024,31,c),
(953,69,o),
(946,66,o),
(946,138,c),
(946,623,l),
(946,694,o),
(953,691,o),
(1024,729,c),
(1033,734,o),
(1028,761,o),
(1018,761,c),
(954,761,o),
(938,760,o),
(918,760,c)
);
}
);
userData = {
com.schriftgestaltung.Glyphs.layer.corners = (
{
name = _corner.serif;
origin = _corner00;
scale = "{0.8, -1.1}";
type = Corner;
},
{
name = _corner.serif;
options = 1;
origin = _corner01;
scale = "{0.8, -1.1}";
type = Corner;
},
{
name = _corner.serif;
origin = _corner02;
scale = "{0.8, -1.1}";
type = Corner;
},
{
name = _corner.serif;
origin = _corner03;
scale = "{0.8, 1.1}";
type = Corner;
},
{
name = _corner.serif;
origin = _corner04;
scale = "{0.8, 1.1}";
type = Corner;
},
{
name = _corner.serif;
origin = _corner05;
scale = "{0.8, 1.1}";
type = Corner;
}
);
};
width = 1099;
},
{
anchors = (
{
name = bottom;
pos = (507,0);
},
{
name = top;
pos = (507,760);
}
);
background = {
shapes = (
{
closed = 1;
nodes = (
(485,-4,o),
(531,6,o),
(537,20,cs),
(863,760,l),
(793,760,l),
(525,150,l),
(233,760,l),
(117,760,l),
(478,10,ls)
);
},
{
closed = 1;
nodes = (
(170,760,l),
(110,760,l,{
name = _corner00;
}),
(110,0,l,{
name = _corner01;
}),
(185,0,l,{
name = _corner02;
})
);
},
{
closed = 1;
nodes = (
(813,760,l),
(803,0,l,{
name = _corner03;
}),
(903,0,l,{
name = _corner04;
}),
(903,760,l,{
name = _corner05;
})
);
}
);
};
layerId = m002;
shapes = (
{
closed = 1;
nodes = (
(485,-4,o),
(536,-4,o),
(542,10,cs),
(878,760,l),
(783,760,l),
(540,220,l),
(283,760,l),
(117,760,l),
(478,10,ls)
);
},
{
closed = 1;
nodes = (
(200,760,l),
(148,760,l),
(128,760,o),
(112,761,o),
(56,761,c),
(46,761,o),
(37,717,o),
(46,712,c),
(109,674,o),
(120,672,o),
(120,601,c),
(120,160,l),
(120,88,o),
(109,86,o),
(46,48,c),
(37,43,o),
(46,-1,o),
(56,-1,c),
(112,-1,o),
(128,0,o),
(148,0,c),
(186,0,l),
(206,0,o),
(222,-1,o),
(278,-1,c),
(288,-1,o),
(297,43,o),
(288,48,c),
(225,86,o),
(213,88,o),
(212,159,c)
);
},
{
closed = 1;
nodes = (
(803,760,l),
(795,159,l),
(794,88,o),
(783,86,o),
(719,48,c),
(711,43,o),
(719,-1,o),
(730,-1,c),
(786,-1,o),
(802,0,o),
(822,0,c),
(905,0,l),
(925,0,o),
(941,-1,o),
(997,-1,c),
(1007,-1,o),
(1016,43,o),
(1007,48,c),
(944,86,o),
(933,88,o),
(933,160,c),
(933,601,l),
(933,672,o),
(944,674,o),
(1007,712,c),
(1016,717,o),
(1007,761,o),
(997,761,c),
(941,761,o),
(925,760,o),
(905,760,c)
);
}
);
userData = {
com.schriftgestaltung.Glyphs.layer.corners = (
{
name = _corner.serif;
origin = _corner00;
scale = "{0.8, -1.1}";
type = Corner;
},
{
name = _corner.serif;
options = 1;
origin = _corner01;
scale = "{0.8, -1.1}";
type = Corner;
},
{
name = _corner.serif;
origin = _corner02;
scale = "{0.8, -1.1}";
type = Corner;
},
{
name = _corner.serif;
origin = _corner03;
scale = "{0.8, 1.1}";
type = Corner;
},
{
name = _corner.serif;
origin = _corner04;
scale = "{0.8, 1.1}";
type = Corner;
},
{
name = _corner.serif;
origin = _corner05;
scale = "{0.8, 1.1}";
type = Corner;
}
);
};
width = 1013;
}
);
unicode = 77;
}
{
glyphname = N;
layers = (
{
anchors = (
{
name = bottom;
pos = (447,0);
},
{
name = top;
pos = (447,760);
}
);
layerId = m01;
shapes = (
{
closed = 1;
nodes = (
(692,170,l),
(213,760,l),
(181,760,l),
(161,760,o),
(145,761,o),
(81,761,c),
(71,761,o),
(66,734,o),
(75,729,c),
(146,691,o),
(153,694,o),
(153,623,c),
(153,138,l),
(153,66,o),
(146,69,o),
(75,31,c),
(66,26,o),
(71,-1,o),
(81,-1,c),
(145,-1,o),
(161,0,o),
(181,0,c),
(194,0,l),
(214,0,o),
(230,-1,o),
(294,-1,c),
(305,-1,o),
(309,26,o),
(301,31,c),
(229,69,o),
(222,66,o),
(221,137,c),
(213,600,l),
(697,-10,l),
(699,-25,o),
(759,-15,o),
(757,0,c),
(752,160,l),
(752,623,l),
(752,694,o),
(759,691,o),
(830,729,c),
(839,734,o),
(834,761,o),
(824,761,c),
(760,761,o),
(744,760,o),
(724,760,c),
(711,760,l),
(691,760,o),
(675,761,o),
(611,761,c),
(600,761,o),
(596,734,o),
(604,729,c),
(676,691,o),
(683,694,o),
(684,623,c)
);
}
);
userData = {
com.schriftgestaltung.Glyphs.layer.corners = (
{
name = _corner.serif;
origin = _corner00;
scale = "{0.8, 1.1}";
type = Corner;
},
{
name = _corner.serif;
options = 1;
origin = _corner01;
scale = "{0.8, -1.1}";
type = Corner;
},
{
name = _corner.serif;
options = 1;
origin = _corner02;
scale = "{0.8, -1.1}";
type = Corner;
},
{
name = _corner.serif;
origin = _corner03;
scale = "{0.8, 1.1}";
type = Corner;
},
{
name = _corner.serif;
options = 1;
origin = _corner04;
scale = "{0.8, -1.1}";
type = Corner;
},
{
name = _segment.bulge;
origin = _corner05;
type = Segment;
}
);
};
width = 905;
},
{
anchors = (
{
name = bottom;
pos = (404,0);
},
{
name = top;
pos = (404,760);
}
);
layerId = m002;
shapes = (
{
closed = 1;
nodes = (
(619,250,l),
(190,760,l),
(138,760,l),
(118,760,o),
(102,761,o),
(46,761,c),
(36,761,o),
(27,717,o),
(36,712,c),
(99,674,o),
(110,672,o),
(110,601,c),
(110,160,l),
(110,88,o),
(99,86,o),
(36,48,c),
(27,43,o),
(36,-1,o),
(46,-1,c),
(102,-1,o),
(118,0,o),
(138,0,c),
(177,0,l),
(199,0,o),
(217,-1,o),
(280,-1,c),
(292,-1,o),
(302,43,o),
(292,48,c),
(221,86,o),
(207,88,o),
(205,159,c),
(195,510,l),
(634,0,l),
(636,-15,o),
(716,-5,o),
(714,10,c),
(709,160,l),
(709,601,l),
(709,672,o),
(720,674,o),
(783,712,c),
(792,717,o),
(783,761,o),
(773,761,c),
(717,761,o),
(701,760,o),
(681,760,c),
(638,760,l),
(618,760,o),
(602,761,o),
(546,761,c),
(536,761,o),
(527,717,o),
(536,712,c),
(599,674,o),
(611,672,o),
(612,601,c)
);
}
);
userData = {
com.schriftgestaltung.Glyphs.layer.corners = (
{
name = _corner.serif;
origin = _corner00;
scale = "{0.8, 1.1}";
type = Corner;
},
{
name = _corner.serif;
options = 1;
origin = _corner01;
scale = "{0.8, -1.1}";
type = Corner;
},
{
name = _corner.serif;
options = 1;
origin = _corner02;
scale = "{0.8, -1.1}";
type = Corner;
},
{
name = _corner.serif;
origin = _corner03;
scale = "{0.8, 1.1}";
type = Corner;
},
{
name = _corner.serif;
options = 1;
origin = _corner04;
scale = "{0.9, -1.1}";
type = Corner;
},
{
name = _segment.bulge;
origin = _corner05;
type = Segment;
}
);
};
width = 808;
}
);
unicode = 78;
}
{
glyphname = R;
layers = (
{
anchors = (
{
name = bottom;
pos = (386,0);
},
{
name = top;
pos = (336,740);
}
);
background = {
shapes = (
{
closed = 1;
nodes = (
(179,0,l,{
name = _corner00;
}),
(179,320,l),
(357,297,o),
(550,377,o),
(550,534,cs),
(550,650,o),
(488,760,o),
(286,760,cs),
(79,760,l,{
name = _corner01;
}),
(79,0,l,{
name = _corner02;
})
);
},
{
closed = 1;
nodes = (
(605,0,l,{
name = _corner03;
}),
(395,360,l),
(292,360,l),
(485,0,l)
);
},
{
closed = 1;
nodes = (
(179,695,l),
(328,720,o),
(445,673,o),
(445,530,cs),
(445,392,o),
(316,350,o),
(179,390,c)
);
}
);
};
layerId = m01;
shapes = (
{
closed = 1;
nodes = (
(225,0,l),
(245,0,o),
(261,-1,o),
(325,-1,c),
(335,-1,o),
(340,26,o),
(331,31,c),
(260,69,o),
(253,66,o),
(253,138,c),
(253,313,l),
(387,322,l),
(559,0,l),
(635,0,l),
(650,0,o),
(662,-1,o),
(710,-1,c),
(717,-1,o),
(721,24,o),
(714,28,c),
(661,63,o),
(646,57,o),
(613,113,c),
(477,346,l),
(704,429,o),
(671,760,o),
(370,760,cs),
(181,760,l),
(161,760,o),
(145,761,o),
(81,761,c),
(71,761,o),
(66,734,o),
(75,729,c),
(146,691,o),
(153,694,o),
(153,623,c),
(153,138,l),
(153,66,o),
(146,69,o),
(75,31,c),
(66,26,o),
(71,-1,o),
(81,-1,c),
(145,-1,o),
(161,0,o),
(181,0,c)
);
},
{
closed = 1;
nodes = (
(253,695,l),
(402,720,o),
(519,673,o),
(519,530,cs),
(519,392,o),
(390,360,o),
(253,380,c)
);
}
);
userData = {
com.schriftgestaltung.Glyphs.layer.corners = (
{
name = _corner.serif;
options = 1;
origin = _corner00;
scale = "{0.8, -1.1}";
type = Corner;
},
{
name = _corner.serif;
options = 1;
origin = _corner01;
scale = "{0.8, -1.1}";
type = Corner;
},
{
name = _corner.serif;
origin = _corner02;
scale = "{0.8, 1.1}";
type = Corner;
},
{
name = _corner.serif;
options = 1;
origin = _corner03;
scale = "{0.6, -1}";
type = Corner;
}
);
};
width = 748;
},
{
anchors = (
{
name = bottom;
pos = (356,0);
},
{
name = top;
pos = (356,760);
}
);
background = {
shapes = (
{
closed = 1;
nodes = (
(335,336,l),
(515,0,l),
(685,0,l,{
name = _corner08;
}),
(475,360,l)
);
},
{
closed = 1;
nodes = (
(259,0,l,{
name = _corner09;
}),
(259,330,l),
(447,317,o),
(640,367,o),
(640,549,cs),
(640,660,o),
(568,760,o),
(366,760,cs),
(109,760,l,{
name = _corner10;
}),
(109,0,l,{
name = _corner11;
})
);
},
{
closed = 1;
nodes = (
(259,685,l),
(368,700,o),
(485,683,o),
(485,540,cs),
(485,412,o),
(359,385,o),
(259,410,c)
);
}
);
};
layerId = m002;
shapes = (
{
closed = 1;
nodes = (
(231,0,l),
(251,0,o),
(267,-1,o),
(323,-1,c),
(333,-1,o),
(342,43,o),
(333,48,c),
(270,86,o),
(259,88,o),
(259,160,c),
(259,325,l),
(339,330,l),
(515,0,l),
(629,0,l),
(644,0,o),
(656,-1,o),
(698,-1,c),
(706,-1,o),
(712,39,o),
(706,44,c),
(658,78,o),
(640,77,o),
(607,133,c),
(480,351,l),
(722,428,o),
(692,760,o),
(386,760,cs),
(137,760,l),
(117,760,o),
(101,761,o),
(45,761,c),
(35,761,o),
(26,717,o),
(35,712,c),
(98,674,o),
(109,672,o),
(109,601,c),
(109,160,l),
(109,88,o),
(98,86,o),
(35,48,c),
(26,43,o),
(35,-1,o),
(45,-1,c),
(101,-1,o),
(117,0,o),
(137,0,c)
);
},
{
closed = 1;
nodes = (
(259,685,l),
(368,700,o),
(485,673,o),
(485,540,cs),
(485,412,o),
(359,385,o),
(259,410,c)
);
}
);
userData = {
com.schriftgestaltung.Glyphs.layer.corners = (
{
name = _corner.serif;
options = 1;
origin = _corner00;
scale = "{0.6, -1}";
type = Corner;
},
{
name = _corner.serif;
options = 1;
origin = _corner01;
scale = "{0.8, -1.1}";
type = Corner;
},
{
name = _corner.serif;
options = 1;
origin = _corner02;
scale = "{0.8, -1.1}";
type = Corner;
},
{
name = _corner.serif;
origin = _corner03;
scale = "{0.8, 1.1}";
type = Corner;
}
);
};
width = 712;
}
);
unicode = 82;
}
{
glyphname = U;
layers = (
{
anchors = (
{
name = bottom;
pos = (458,0);
},
{
name = ogonek;
pos = (574,10);
},
{
name = top;
pos = (488,760);
},
{
name = topright;
pos = (846,760);
}
);
hints = (
{
name = _corner.serif;
origin = (0,12);
scale = (0.8,1.1);
type = Corner;
},
{
name = _corner.serif;
options = 1;
origin = (0,13);
scale = (0.8,-1.1);
type = Corner;
},
{
name = _corner.serif;
origin = (0,3);
scale = (0.8,1.1);
type = Corner;
},
{
name = _corner.serif;
options = 1;
origin = (0,4);
scale = (0.8,-1.1);
type = Corner;
}
);
layerId = m01;
shapes = (
{
closed = 1;
nodes = (
(674,-10,o),
(763,133,o),
(763,295,cs),
(763,760,l),
(703,760,l),
(703,295,ls),
(703,150,o),
(612,70,o),
(483,70,cs),
(365,70,o),
(253,113,o),
(253,296,cs),
(253,760,l),
(153,760,l),
(153,305,ls),
(153,87,o),
(264,-10,o),
(459,-10,cs)
);
}
);
userData = {
com.schriftgestaltung.Glyphs.layer.corners = (
{
name = _corner.serif;
origin = _corner00;
scale = "{0.8, 1.1}";
type = Corner;
},
{
name = _corner.serif;
options = 1;
origin = _corner01;
scale = "{0.8, -1.1}";
type = Corner;
},
{
name = _corner.serif;
origin = _corner02;
scale = "{0.8, 1.1}";
type = Corner;
},
{
name = _corner.serif;
options = 1;
origin = _corner03;
scale = "{0.8, -1.1}";
type = Corner;
}
);
};
width = 896;
},
{
anchors = (
{
name = bottom;
pos = (433,0);
},
{
name = ogonek;
pos = (531,3);
},
{
name = top;
pos = (433,760);
},
{
name = topright;
pos = (846,760);
}
);
hints = (
{
name = _corner.serif;
origin = (0,12);
scale = (0.8,1.1);
type = Corner;
},
{
name = _corner.serif;
options = 1;
origin = (0,13);
scale = (0.8,-1.1);
type = Corner;
},
{
name = _corner.serif;
origin = (0,3);
scale = (0.9,1.1);
type = Corner;
},
{
name = _corner.serif;
options = 1;
origin = (0,4);
scale = (0.9,-1.1);
type = Corner;
}
);
layerId = m002;
shapes = (
{
closed = 1;
nodes = (
(654,-10,o),
(753,133,o),
(753,295,cs),
(753,760,l),
(663,760,l),
(663,305,ls),
(663,160,o),
(572,90,o),
(463,90,cs),
(365,90,o),
(258,153,o),
(258,306,cs),
(258,760,l),
(103,760,l),
(103,305,ls),
(103,87,o),
(204,-10,o),
(429,-10,cs)
);
}
);
userData = {
com.schriftgestaltung.Glyphs.layer.corners = (
{
name = _corner.serif;
origin = _corner00;
scale = "{0.8, 1.1}";
type = Corner;
},
{
name = _corner.serif;
options = 1;
origin = _corner01;
scale = "{0.8, -1.1}";
type = Corner;
},
{
name = _corner.serif;
origin = _corner02;
scale = "{0.9, 1.1}";
type = Corner;
},
{
name = _corner.serif;
options = 1;
origin = _corner03;
scale = "{0.9, -1.1}";
type = Corner;
}
);
};
width = 866;
}
);
unicode = 85;
}
{
glyphname = V;
layers = (
{
anchors = (
{
name = bottom;
pos = (375,0);
},
{
name = top;
pos = (375,760);
}
);
background = {
shapes = (
{
closed = 1;
nodes = (
(520,760,l,{
name = _corner00;
}),
(285,114,l),
(35,760,l,{
name = _corner01;
}),
(-75,760,l,{
name = _corner02;
}),
(227,-10,l),
(297,0,l),
(605,760,l,{
name = _corner03;
})
);
}
);
};
layerId = m01;
shapes = (
{
closed = 1;
nodes = (
(405,-10,l),
(671,630,l),
(698,696,o),
(712,691,o),
(766,729,c),
(772,734,o),
(769,761,o),
(761,761,c),
(713,761,o),
(701,760,o),
(686,760,c),
(655,760,l),
(632,760,o),
(614,761,o),
(542,761,c),
(531,761,o),
(525,734,o),
(535,729,c),
(615,691,o),
(616,695,o),
(591,628,c),
(395,109,l),
(195,629,l),
(170,695,o),
(168,691,o),
(230,729,c),
(238,734,o),
(234,761,o),
(225,761,c),
(169,761,o),
(155,760,o),
(137,760,c),
(73,760,l),
(58,760,o),
(46,761,o),
(-2,761,c),
(-9,761,o),
(-13,734,o),
(-6,729,c),
(47,691,o),
(61,696,o),
(87,629,c),
(340,-10,l)
);
}
);
userData = {
com.schriftgestaltung.Glyphs.layer.corners = (
{
name = _corner.serif;
options = 1;
origin = _corner00;
scale = "{0.9, -1.1}";
type = Corner;
},
{
name = _corner.serif;
origin = _corner01;
scale = "{0.7, 1.1}";
type = Corner;
},
{
name = _corner.serif;
options = 1;
origin = _corner02;
scale = "{0.6, -1.1}";
type = Corner;
},
{
name = _corner.serif;
origin = _corner03;
scale = "{0.6, 1.1}";
type = Corner;
}
);
};
width = 759;
},
{
anchors = (
{
name = bottom;
pos = (386,0);
},
{
name = top;
pos = (386,760);
}
);
background = {
shapes = (
{
closed = 1;
nodes = (
(626,760,l,{
name = _corner04;
}),
(381,109,l),
(131,760,l,{
name = _corner05;
}),
(21,760,l,{
name = _corner06;
}),
(326,-10,l),
(391,-10,l),
(711,760,l,{
name = _corner07;
})
);
}
);
};
layerId = m002;
shapes = (
{
closed = 1;
nodes = (
(431,-1,l),
(687,608,l),
(715,674,o),
(732,674,o),
(779,712,c),
(786,717,o),
(779,761,o),
(771,761,c),
(729,761,o),
(717,760,o),
(702,760,c),
(661,760,l),
(639,760,o),
(621,761,o),
(558,761,c),
(546,761,o),
(536,717,o),
(546,712,c),
(617,674,o),
(622,674,o),
(595,607,c),
(431,195,l),
(256,608,l),
(228,674,o),
(229,674,o),
(284,712,c),
(292,717,o),
(284,761,o),
(275,761,c),
(226,761,o),
(212,760,o),
(195,760,c),
(71,760,l),
(56,760,o),
(44,761,o),
(2,761,c),
(-6,761,o),
(-13,717,o),
(-6,712,c),
(41,674,o),
(58,674,o),
(87,608,c),
(351,0,l)
);
}
);
userData = {
com.schriftgestaltung.Glyphs.layer.corners = (
{
name = _corner.serif;
origin = _corner00;
scale = "{0.7, 1.1}";
type = Corner;
},
{
name = _corner.serif;
options = 1;
origin = _corner01;
scale = "{0.6, -1.1}";
type = Corner;
},
{
name = _corner.serif;
origin = _corner02;
scale = "{0.6, 1.1}";
type = Corner;
},
{
name = _corner.serif;
options = 1;
origin = _corner03;
scale = "{0.9, -1.1}";
type = Corner;
}
);
};
width = 771;
}
);
unicode = 86;
}
{
glyphname = W;
layers = (
{
anchors = (
{
name = bottom;
pos = (582,0);
},
{
name = top;
pos = (582,760);
}
);
layerId = m01;
shapes = (
{
closed = 1;
nodes = (
(377,-10,l),
(652,740,l),
(587,740,l),
(362,115,l),
(191,627,l),
(169,695,o),
(168,691,o),
(230,729,c),
(238,734,o),
(234,761,o),
(225,761,c),
(169,761,o),
(155,760,o),
(137,760,c),
(74,760,l),
(59,760,o),
(47,761,o),
(-1,761,c),
(-9,761,o),
(-13,734,o),
(-6,729,c),
(47,691,o),
(60,695,o),
(84,628,c),
(312,-10,l)
);
},
{
closed = 1;
nodes = (
(847,-10,l),
(1079,628,l),
(1103,695,o),
(1116,691,o),
(1170,729,c),
(1176,734,o),
(1173,761,o),
(1165,761,c),
(1117,761,o),
(1105,760,o),
(1090,760,c),
(1060,760,l),
(1037,760,o),
(1019,761,o),
(947,761,c),
(935,761,o),
(930,734,o),
(940,729,c),
(1020,691,o),
(1021,695,o),
(1000,627,c),
(837,115,l),
(666,627,l),
(644,695,o),
(643,691,o),
(705,729,c),
(713,734,o),
(709,761,o),
(700,761,c),
(644,761,o),
(630,760,o),
(612,760,c),
(558,760,l),
(543,760,o),
(531,761,o),
(483,761,c),
(475,761,o),
(471,734,o),
(478,729,c),
(531,691,o),
(544,695,o),
(567,627,c),
(782,-10,l)
);
}
);
userData = {
com.schriftgestaltung.Glyphs.layer.corners = (
{
name = _corner.serif;
origin = _corner00;
scale = "{0.7, 1.1}";
type = Corner;
},
{
name = _corner.serif;
options = 1;
origin = _corner01;
scale = "{0.6, -1.1}";
type = Corner;
},
{
name = _corner.serif;
origin = _corner02;
scale = "{0.6, 1.1}";
type = Corner;
},
{
name = _corner.serif;
options = 1;
origin = _corner03;
scale = "{0.9, -1.1}";
type = Corner;
},
{
name = _corner.serif;
origin = _corner04;
scale = "{0.7, 1.1}";
type = Corner;
},
{
name = _corner.serif;
options = 1;
origin = _corner05;
scale = "{0.6, -1.1}";
type = Corner;
}
);
};
width = 1163;
},
{
anchors = (
{
name = bottom;
pos = (562,0);
},
{
name = top;
pos = (562,760);
}
);
background = {
shapes = (
{
closed = 1;
nodes = (
(821,-1,l),
(1091,760,l),
(996,760,l),
(821,195,l),
(611,760,l,{
name = _corner00;
}),
(441,760,l,{
name = _corner01;
}),
(741,0,l)
);
}
);
};
layerId = m002;
shapes = (
{
closed = 1;
nodes = (
(416,-1,l),
(631,600,l),
(536,600,l),
(411,225,l),
(276,606,l),
(252,673,o),
(254,674,o),
(310,712,c),
(317,717,o),
(310,761,o),
(300,761,c),
(251,761,o),
(237,760,o),
(220,760,c),
(96,760,l),
(81,760,o),
(69,761,o),
(27,761,c),
(20,761,o),
(13,717,o),
(20,712,c),
(67,674,o),
(83,673,o),
(108,606,c),
(331,0,l)
);
},
{
closed = 1;
nodes = (
(811,-1,l),
(1018,606,l),
(1041,673,o),
(1057,674,o),
(1104,712,c),
(1111,717,o),
(1104,761,o),
(1096,761,c),
(1054,761,o),
(1042,760,o),
(1027,760,c),
(977,760,l),
(954,760,o),
(936,761,o),
(873,761,c),
(862,761,o),
(852,717,o),
(862,712,c),
(933,674,o),
(939,673,o),
(917,605,c),
(801,235,l),
(681,605,l),
(659,673,o),
(662,674,o),
(717,712,c),
(725,717,o),
(717,761,o),
(708,761,c),
(659,761,o),
(645,760,o),
(628,760,c),
(511,760,l),
(499,760,o),
(489,761,o),
(454,761,c),
(447,761,o),
(442,717,o),
(447,712,c),
(487,674,o),
(501,673,o),
(524,606,c),
(731,0,l)
);
}
);
userData = {
com.schriftgestaltung.Glyphs.layer.corners = (
{
name = _corner.serif;
origin = _corner00;
scale = "{0.7, 1.1}";
type = Corner;
},
{
name = _corner.serif;
options = 1;
origin = _corner01;
scale = "{0.6, -1.1}";
type = Corner;
},
{
name = _corner.serif;
origin = _corner02;
scale = "{0.6, 1.1}";
type = Corner;
},
{
name = _corner.serif;
options = 1;
origin = _corner03;
scale = "{0.9, -1.1}";
type = Corner;
},
{
name = _corner.serif;
origin = _corner04;
scale = "{0.7, 1.1}";
type = Corner;
},
{
name = _corner.serif;
options = 1;
origin = _corner05;
scale = "{0.5, -1.1}";
type = Corner;
}
);
};
width = 1124;
}
);
unicode = 87;
}
{
glyphname = Y;
layers = (
{
anchors = (
{
name = bottom;
pos = (443,0);
},
{
name = top;
pos = (463,740);
},
{
name = topleft;
pos = (110,760);
}
);
hints = (
{
name = _corner.serif;
origin = (0,4);
scale = (0.8,1.1);
type = Corner;
},
{
name = _corner.serif;
options = 1;
origin = (0,5);
scale = (0.8,-1.1);
type = Corner;
}
);
layerId = m01;
shapes = (
{
closed = 1;
nodes = (
(136,701,o),
(140,714,o),
(223,595,cs),
(384,365,l),
(384,0,l),
(484,0,l),
(484,365,l),
(653,595,ls),
(739,712,o),
(760,701,o),
(802,729,cs),
(810,734,o),
(806,761,o),
(795,761,cs),
(755,760,o),
(670,760,o),
(590,761,cs),
(580,761,o),
(575,734,o),
(584,729,cs),
(631,703,o),
(633,693,o),
(564,587,cs),
(461,429,l),
(352,587,ls),
(279,693,o),
(267,708,o),
(322,729,cs),
(332,733,o),
(326,761,o),
(316,761,cs),
(236,760,o),
(151,760,o),
(91,761,cs),
(80,761,o),
(76,734,o),
(84,729,cs)
);
}
);
userData = {
com.schriftgestaltung.Glyphs.layer.corners = (
{
name = _corner.serif;
origin = _corner00;
scale = "{0.8, 1.1}";
type = Corner;
},
{
name = _corner.serif;
options = 1;
origin = _corner01;
scale = "{0.8, -1.1}";
type = Corner;
}
);
};
width = 886;
},
{
anchors = (
{
name = bottom;
pos = (376,0);
},
{
name = top;
pos = (376,760);
},
{
name = topleft;
pos = (20,760);
}
);
background = {
shapes = (
{
closed = 1;
nodes = (
(51,701,o),
(55,714,o),
(138,595,cs),
(299,365,l),
(299,0,l,{
name = _corner00;
}),
(399,0,l,{
name = _corner01;
}),
(399,365,l),
(568,595,ls),
(654,712,o),
(675,701,o),
(717,729,cs),
(725,734,o),
(721,761,o),
(710,761,cs),
(670,760,o),
(585,760,o),
(505,761,cs),
(495,761,o),
(490,734,o),
(499,729,cs),
(546,703,o),
(548,693,o),
(479,587,cs),
(376,429,l),
(267,587,ls),
(194,693,o),
(182,708,o),
(237,729,cs),
(247,733,o),
(241,761,o),
(231,761,cs),
(151,760,o),
(66,760,o),
(6,761,cs),
(-5,761,o),
(-9,734,o),
(-1,729,cs)
);
}
);
};
hints = (
{
name = _corner.serif;
origin = (0,4);
scale = (0.8,1.1);
type = Corner;
},
{
name = _corner.serif;
options = 1;
origin = (0,5);
scale = (0.8,-1.1);
type = Corner;
}
);
layerId = m002;
shapes = (
{
closed = 1;
nodes = (
(66,681,o),
(83,672,o),
(133,595,cs),
(304,331,l),
(304,0,l),
(444,0,l),
(444,345,l),
(608,595,ls),
(663,679,o),
(695,681,o),
(757,709,c),
(765,714,o),
(761,761,o),
(750,761,cs),
(690,760,o),
(595,760,o),
(505,761,cs),
(495,761,o),
(490,714,o),
(499,710,cs),
(556,683,o),
(557,679,o),
(499,587,cs),
(405,439,l),
(312,587,ls),
(252,682,o),
(227,688,o),
(282,709,cs),
(292,713,o),
(286,761,o),
(276,761,cs),
(196,760,o),
(81,760,o),
(1,761,cs),
(-10,761,o),
(-14,714,o),
(-6,709,c)
);
}
);
userData = {
com.schriftgestaltung.Glyphs.layer.corners = (
{
name = _corner.serif;
origin = _corner00;
scale = "{0.8, 1.1}";
type = Corner;
},
{
name = _corner.serif;
options = 1;
origin = _corner01;
scale = "{0.8, -1.1}";
type = Corner;
}
);
};
width = 751;
}
);
unicode = 89;
}
{
glyphname = Z;
layers = (
{
anchors = (
{
name = bottom;
pos = (385,0);
},
{
name = center;
pos = (385,380);
},
{
name = top;
pos = (405,740);
}
);
hints = (
{
name = _corner.mitre;
options = 1;
origin = (0,11);
scale = (1,-1);
type = Corner;
},
{
name = _corner.mitre;
options = 1;
origin = (0,2);
scale = (1,-1);
type = Corner;
},
{
name = _segment.bulge;
origin = (0,13);
type = Segment;
},
{
name = _segment.bulge;
origin = (0,4);
type = Segment;
}
);
layerId = m01;
shapes = (
{
closed = 1;
nodes = (
(700,715,l),
(683,760,l),
(135,760,l),
(109,601,l),
(142,587,l),
(199,677,o),
(213,695,o),
(385,700,cs),
(575,705,l),
(70,45,l),
(87,0,l),
(665,0,l),
(691,169,l),
(658,183,l),
(601,83,o),
(587,73,o),
(415,65,cs),
(200,55,l)
);
}
);
userData = {
com.schriftgestaltung.Glyphs.layer.corners = (
{
name = _corner.mitre;
options = 1;
origin = _corner00;
scale = "{1, -1}";
type = Corner;
},
{
name = _corner.mitre;
options = 1;
origin = _corner01;
scale = "{1, -1}";
type = Corner;
},
{
name = _segment.bulge;
origin = _corner02;
type = Segment;
},
{
name = _segment.bulge;
origin = _corner03;
type = Segment;
}
);
};
width = 770;
},
{
anchors = (
{
name = bottom;
pos = (365,0);
},
{
name = center;
pos = (365,380);
},
{
name = top;
pos = (365,760);
}
);
hints = (
{
name = _corner.mitre;
options = 1;
origin = (0,11);
scale = (1,-1);
type = Corner;
},
{
name = _corner.mitre;
options = 1;
origin = (0,2);
scale = (1,-1);
type = Corner;
},
{
name = _segment.bulge;
origin = (0,13);
type = Segment;
},
{
name = _segment.bulge;
origin = (0,4);
type = Segment;
}
);
layerId = m002;
shapes = (
{
closed = 1;
nodes = (
(680,715,l),
(663,760,l),
(115,760,l),
(89,571,l),
(142,557,l),
(199,647,o),
(213,671,o),
(385,680,cs),
(485,685,l),
(50,45,l),
(67,0,l),
(645,0,l),
(671,199,l),
(618,213,l),
(551,113,o),
(537,97,o),
(375,85,cs),
(240,75,l)
);
}
);
userData = {
com.schriftgestaltung.Glyphs.layer.corners = (
{
name = _corner.mitre;
options = 1;
origin = _corner00;
scale = "{1, -1}";
type = Corner;
},
{
name = _corner.mitre;
options = 1;
origin = _corner01;
scale = "{1, -1}";
type = Corner;
},
{
name = _segment.bulge;
origin = _corner02;
type = Segment;
},
{
name = _segment.bulge;
origin = _corner03;
type = Segment;
}
);
};
width = 730;
}
);
unicode = 90;
}
{
glyphname = bracketleft;
layers = (
{
layerId = m01;
shapes = (
{
closed = 1;
nodes = (
(120,-120,l),
(130,-131,l),
(171,-136,l),
(196,-138,o),
(215,-142,o),
(295,-150,c),
(308,-152,o),
(317,-128,o),
(306,-123,c),
(221,-78,o),
(210,-80,o),
(210,-15,c),
(210,655,l),
(210,720,o),
(221,718,o),
(306,763,c),
(317,768,o),
(308,792,o),
(295,790,c),
(215,782,o),
(196,778,o),
(171,776,c),
(130,771,l),
(120,760,l)
);
}
);
userData = {
com.schriftgestaltung.Glyphs.layer.corners = (
{
name = _corner.serifR;
options = 1;
origin = _corner00;
scale = "{1.5, 1}";
type = Corner;
},
{
name = _corner.serifL;
origin = _corner01;
scale = "{1.5, 1}";
type = Corner;
},
{
name = _corner.mitre;
options = 2;
origin = _corner02;
type = Corner;
},
{
name = _corner.mitre;
origin = _corner03;
type = Corner;
},
{
name = _corner.serif;
options = 1;
origin = _corner04;
scale = "{-1, 1}";
type = Corner;
},
{
name = _corner.serif;
origin = _corner05;
type = Corner;
}
);
};
width = 361;
},
{
layerId = m002;
shapes = (
{
closed = 1;
nodes = (
(120,-110,l),
(140,-132,l),
(200,-137,l),
(225,-139,o),
(245,-141,o),
(315,-147,c),
(328,-148,o),
(342,-109,o),
(331,-103,c),
(255,-63,o),
(240,-60,o),
(240,5,c),
(240,635,l),
(240,700,o),
(255,703,o),
(331,743,c),
(342,749,o),
(328,788,o),
(315,787,c),
(245,781,o),
(225,779,o),
(200,777,c),
(140,772,l),
(120,750,l)
);
}
);
userData = {
com.schriftgestaltung.Glyphs.layer.corners = (
{
name = _corner.serifR;
options = 1;
origin = _corner00;
scale = "{1.5, 1}";
type = Corner;
},
{
name = _corner.serifL;
origin = _corner01;
scale = "{1.5, 1}";
type = Corner;
},
{
name = _corner.mitre;
options = 2;
origin = _corner02;
type = Corner;
},
{
name = _corner.mitre;
origin = _corner03;
type = Corner;
},
{
name = _corner.serif;
options = 1;
origin = _corner04;
scale = "{-1, 1}";
type = Corner;
},
{
name = _corner.serif;
origin = _corner05;
type = Corner;
}
);
};
width = 361;
}
);
unicode = 91;
}
{
glyphname = asciicircum;
layers = (
{
layerId = m01;
shapes = (
{
closed = 1;
nodes = (
(271,813,ls),
(296,836,o),
(304,836,o),
(329,813,cs),
(500,651,ls),
(513,639,o),
(484,603,o),
(470,611,cs),
(300,716,l),
(130,611,ls),
(116,603,o),
(87,639,o),
(100,651,cs)
);
}
);
width = 600;
},
{
layerId = m002;
shapes = (
{
closed = 1;
nodes = (
(271,812,ls),
(297,834,o),
(303,834,o),
(329,812,cs),
(500,670,ls),
(514,659,o),
(474,602,o),
(460,610,cs),
(300,695,l),
(140,610,ls),
(126,602,o),
(86,659,o),
(100,670,cs)
);
}
);
width = 600;
}
);
unicode = 94;
}
{
glyphname = a;
layers = (
{
anchors = (
{
name = bottom;
pos = (264,0);
},
{
name = ogonek;
pos = (474,10);
},
{
name = top;
pos = (254,500);
}
);
background = {
shapes = (
{
closed = 1;
nodes = (
(330,85,l),
(341,-36,o),
(436,-27,o),
(516,35,c),
(501,70,l),
(450,44,o),
(408,55,o),
(410,110,cs),
(418,338,ls),
(425,529,o),
(246,559,o),
(78,430,c),
(99,390,l),
(199,457,o),
(323,451,o),
(331,321,cs),
(334,274,l)
);
},
{
closed = 1;
nodes = (
(345,135,l),
(309,96,o),
(256,65,o),
(212,65,cs),
(123,65,o),
(103,188,o),
(210,212,cs),
(344,242,l),
(345,288,l),
(169,258,ls),
(-19,226,o),
(26,-10,o),
(177,-10,cs),
(232,-10,o),
(295,29,o),
(345,76,c)
);
}
);
};
hints = (
{
name = _segment.bulge;
origin = (0,0);
type = Segment;
},
{
name = _segment.bulge;
origin = (0,15);
type = Segment;
}
);
layerId = m01;
shapes = (
{
closed = 1;
nodes = (
(99,390,l),
(199,457,o),
(324,451,o),
(331,321,cs),
(333,286,l),
(169,258,ls),
(-19,226,o),
(26,-10,o),
(177,-10,cs),
(228,-10,o),
(285,33,o),
(333,75,c),
(352,-35,o),
(441,-23,o),
(516,35,c),
(501,70,l),
(450,44,o),
(408,55,o),
(410,110,cs),
(418,338,ls),
(425,529,o),
(246,559,o),
(78,430,c)
);
},
{
closed = 1;
nodes = (
(333,240,l),
(331,121,l),
(296,89,o),
(241,65,o),
(202,65,cs),
(113,65,o),
(103,188,o),
(210,212,cs)
);
}
);
userData = {
com.schriftgestaltung.Glyphs.layer.corners = (
{
name = _segment.bulge;
origin = _corner00;
type = Segment;
},
{
name = _segment.bulge;
origin = _corner01;
type = Segment;
}
);
};
width = 527;
},
{
anchors = (
{
name = bottom;
pos = (279,0);
},
{
name = ogonek;
pos = (501,10);
},
{
name = top;
pos = (279,500);
}
);
background = {
shapes = (
{
closed = 1;
nodes = (
(384,-35,o),
(473,-23,o),
(548,35,c),
(533,70,l),
(482,44,o),
(440,55,o),
(442,110,cs),
(450,338,ls),
(457,529,o),
(278,559,o),
(115,430,c),
(136,390,l),
(231,457,o),
(365,451,o),
(365,321,cs),
(365,286,l),
(201,258,ls),
(13,226,o),
(58,-10,o),
(209,-10,cs),
(260,-10,o),
(317,23,o),
(365,65,c)
);
},
{
closed = 1;
nodes = (
(135,189,o),
(242,212,cs),
(365,239,l),
(365,124,l),
(330,90,o),
(284,65,o),
(244,65,cs),
(155,65,o)
);
}
);
};
hints = (
{
name = _segment.bulge;
origin = (0,0);
type = Segment;
},
{
name = _segment.bulge;
origin = (0,15);
type = Segment;
}
);
layerId = m002;
shapes = (
{
closed = 1;
nodes = (
(111,365,l),
(209,435,o),
(307,411,o),
(313,321,cs),
(315,287,l),
(163,258,ls),
(5,228,o),
(48,-10,o),
(199,-10,cs),
(246,-10,o),
(291,18,o),
(322,55,c),
(373,-35,o),
(445,-22,o),
(548,45,c),
(523,90,l),
(471,59,o),
(440,95,o),
(442,140,cs),
(449,308,ls),
(457,499,o),
(278,591,o),
(80,410,c)
);
},
{
closed = 1;
nodes = (
(315,234,l),
(313,103,l),
(298,89,o),
(279,80,o),
(254,80,cs),
(165,80,o),
(163,192,o),
(225,209,cs)
);
}
);
userData = {
com.schriftgestaltung.Glyphs.layer.corners = (
{
name = _segment.bulge;
origin = _corner00;
type = Segment;
},
{
name = _segment.bulge;
origin = _corner01;
type = Segment;
}
);
};
width = 557;
}
);
unicode = 97;
}
{
glyphname = d;
layers = (
{
anchors = (
{
name = bottom;
pos = (304,0);
},
{
name = center;
pos = (304,250);
},
{
name = top;
pos = (304,800);
},
{
name = topright;
pos = (568,790);
}
);
background = {
shapes = (
{
closed = 1;
nodes = (
(516,15,l,{
name = _corner00;
}),
(516,815,l,{
name = _corner01;
}),
(486,803,o),
(457,791,o),
(426,780,c,{
name = _corner02;
}),
(426,-10,l,{
name = _corner03;
})
);
},
{
closed = 1;
nodes = (
(45,100,o),
(120,-10,o),
(244,-10,cs),
(315,-10,o),
(396,33,o),
(475,140,c),
(436,150,l),
(386,95,o),
(333,69,o),
(285,69,cs),
(191,69,o),
(135,147,o),
(135,279,cs),
(135,390,o),
(199,438,o),
(276,438,cs),
(327,438,o),
(383,418,o),
(430,380,c),
(455,465,l),
(430,480,o),
(376,511,o),
(301,511,cs),
(188,511,o),
(45,393,o),
(45,232,cs)
);
}
);
};
layerId = m01;
shapes = (
{
closed = 1;
nodes = (
(50,100,o),
(110,-10,o),
(244,-10,cs),
(295,-10,o),
(386,33,o),
(475,140,c),
(436,150,l),
(386,95,o),
(333,69,o),
(285,69,cs),
(181,69,o),
(140,147,o),
(140,279,cs),
(140,390,o),
(199,438,o),
(276,438,cs),
(327,438,o),
(383,418,o),
(430,380,c),
(455,465,l),
(430,480,o),
(376,511,o),
(301,511,cs),
(188,511,o),
(50,393,o),
(50,232,cs)
);
},
{
closed = 1;
nodes = (
(407,689,o),
(426,605,o),
(426,495,cs),
(426,0,l),
(436,-7,l),
(515,16,l),
(527,19,o),
(570,29,o),
(582,32,c),
(590,34,o),
(595,63,o),
(583,68,c),
(518,93,o),
(513,100,o),
(511,135,c),
(511,530,ls),
(511,622,o),
(516,713,o),
(520,805,c),
(511,811,l),
(472,796,o),
(439,782,o),
(400,772,c),
(392,760,l)
);
}
);
userData = {
com.schriftgestaltung.Glyphs.layer.corners = (
{
name = _corner.mitre;
options = 1;
origin = _corner00;
type = Corner;
},
{
name = _corner.mitre;
options = 1;
origin = _corner01;
type = Corner;
},
{
name = _corner.beak;
options = 1;
origin = _corner02;
scale = "{0.8, -1}";
type = Corner;
},
{
name = _corner.mitre;
origin = _corner03;
type = Corner;
}
);
};
width = 630;
},
{
anchors = (
{
name = bottom;
pos = (314,0);
},
{
name = center;
pos = (314,250);
},
{
name = top;
pos = (314,800);
},
{
name = topright;
pos = (588,800);
}
);
background = {
shapes = (
{
closed = 1;
nodes = (
(60,100,o),
(120,-10,o),
(254,-10,cs),
(325,-10,o),
(406,33,o),
(485,140,c),
(446,150,l),
(396,95,o),
(343,69,o),
(295,69,cs),
(191,69,o),
(150,147,o),
(150,279,cs),
(150,390,o),
(209,438,o),
(286,438,cs),
(337,438,o),
(393,418,o),
(440,380,c),
(465,465,l),
(440,480,o),
(386,511,o),
(311,511,cs),
(198,511,o),
(60,393,o),
(60,232,cs)
);
},
{
closed = 1;
nodes = (
(415,697,o),
(436,610,o),
(436,495,cs),
(436,-10,l,{
name = _corner04;
}),
(521,15,l,{
name = _corner05;
}),
(521,530,ls),
(521,625,o),
(526,720,o),
(531,815,c,{
name = _corner06;
}),
(485,798,o),
(446,781,o),
(400,770,c,{
name = _corner07;
})
);
}
);
};
layerId = m002;
shapes = (
{
closed = 1;
nodes = (
(51,77,o),
(133,-8,o),
(231,-8,cs),
(315,-8,o),
(411,55,o),
(476,190,c),
(437,190,l),
(381,124,o),
(334,98,o),
(296,98,cs),
(228,98,o),
(186,170,o),
(186,278,cs),
(186,394,o),
(229,434,o),
(281,434,cs),
(334,434,o),
(395,394,o),
(431,350,c),
(456,495,l),
(420,504,o),
(384,508,o),
(349,508,cs),
(168,508,o),
(51,416,o),
(51,232,cs)
);
},
{
closed = 1;
nodes = (
(385,637,o),
(401,570,o),
(402,433,cs),
(404,1,l),
(423,-13,l),
(547,37,l),
(583,51,o),
(604,58,o),
(640,70,c),
(648,73,o),
(655,116,o),
(643,118,c),
(572,136,o),
(532,129,o),
(530,164,c),
(530,538,ls),
(530,626,o),
(534,715,o),
(539,803,c),
(520,816,l),
(478,801,o),
(419,784,o),
(377,773,c),
(362,748,l)
);
}
);
userData = {
com.schriftgestaltung.Glyphs.layer.corners = (
{
name = _corner.mitre;
origin = _corner00;
type = Corner;
},
{
name = _corner.beak;
options = 1;
origin = _corner01;
scale = "{0.85, -1}";
type = Corner;
},
{
name = _corner.mitre;
options = 1;
origin = _corner02;
type = Corner;
},
{
name = _corner.mitre;
options = 1;
origin = _corner03;
type = Corner;
}
);
};
width = 628;
}
);
unicode = 100;
}
{
glyphname = f;
layers = (
{
anchors = (
{
name = bottom;
pos = (179,0);
},
{
name = top;
pos = (179,800);
}
);
hints = (
{
name = _corner.serif;
origin = (0,0);
scale = (0.7,1);
type = Corner;
},
{
name = _corner.serif;
options = 1;
origin = (0,1);
scale = (1,-1);
type = Corner;
},
{
name = _segment.bulge;
origin = (1,0);
type = Segment;
},
{
name = _segment.bulge;
origin = (1,2);
type = Segment;
}
);
layerId = m01;
shapes = (
{
closed = 1;
nodes = (
(122,0,l),
(207,0,l),
(207,559,ls),
(207,695,o),
(261,765,o),
(418,682,cs),
(449,666,o),
(485,768,o),
(458,783,cs),
(360,837,o),
(122,786,o),
(122,517,cs)
);
},
{
closed = 1;
nodes = (
(41,430,l),
(321,430,l),
(321,490,l),
(131,490,l),
(41,480,l)
);
}
);
userData = {
com.schriftgestaltung.Glyphs.layer.corners = (
{
name = _corner.serif;
origin = _corner00;
scale = "{0.7, 1}";
type = Corner;
},
{
name = _corner.serif;
options = 1;
origin = _corner01;
scale = "{1, -1}";
type = Corner;
},
{
name = _segment.bulge;
origin = _corner02;
type = Segment;
},
{
name = _segment.bulge;
origin = _corner03;
type = Segment;
}
);
};
width = 358;
},
{
anchors = (
{
name = bottom;
pos = (179,0);
},
{
name = top;
pos = (179,800);
}
);
hints = (
{
name = _corner.serif;
origin = (0,0);
scale = (0.7,1);
type = Corner;
},
{
name = _corner.serif;
options = 1;
origin = (0,1);
scale = (1,-1.1);
type = Corner;
},
{
name = _segment.bulge;
origin = (1,0);
type = Segment;
},
{
name = _segment.bulge;
origin = (1,2);
type = Segment;
}
);
layerId = m002;
shapes = (
{
closed = 1;
nodes = (
(122,0,l),
(257,0,l),
(257,559,ls),
(257,695,o),
(291,715,o),
(448,632,cs),
(479,616,o),
(515,768,o),
(488,783,cs),
(390,837,o),
(122,786,o),
(122,517,cs)
);
},
{
closed = 1;
nodes = (
(41,410,l),
(371,410,l),
(371,500,l),
(131,490,l),
(41,480,l)
);
}
);
userData = {
com.schriftgestaltung.Glyphs.layer.corners = (
{
name = _corner.serif;
origin = _corner00;
scale = "{0.7, 1}";
type = Corner;
},
{
name = _corner.serif;
options = 1;
origin = _corner01;
scale = "{1, -1.1}";
type = Corner;
},
{
name = _segment.bulge;
origin = _corner02;
type = Segment;
},
{
name = _segment.bulge;
origin = _corner03;
type = Segment;
}
);
};
width = 358;
}
);
unicode = 102;
}
{
glyphname = h;
layers = (
{
anchors = (
{
name = bottom;
pos = (314,0);
},
{
name = center;
pos = (314,400);
},
{
name = top;
pos = (314,800);
}
);
hints = (
{
name = _corner.serif;
options = 1;
origin = (0,0);
scale = (0.7,-1);
type = Corner;
},
{
name = _corner.serif;
origin = (0,12);
scale = (0.7,1);
type = Corner;
},
{
name = _corner.serif;
origin = (1,3);
scale = (0.7,1);
type = Corner;
},
{
name = _corner.serif;
options = 1;
origin = (1,4);
scale = (0.8,-1);
type = Corner;
},
{
name = _corner.mitre;
origin = (1,8);
type = Corner;
},
{
name = _corner.mitre;
origin = (1,11);
type = Corner;
}
);
layerId = m01;
shapes = (
{
closed = 1;
nodes = (
(516,0,l),
(526,340,ls),
(528,424,o),
(481,511,o),
(378,511,cs),
(303,511,o),
(232,459,o),
(151,381,c),
(170,360,l),
(343,493,o),
(436,426,o),
(436,300,cs),
(436,0,l)
);
},
{
closed = 1;
nodes = (
(90,697,o),
(111,610,o),
(111,435,cs),
(111,0,l),
(196,0,l),
(196,530,ls),
(196,625,o),
(201,720,o),
(206,815,c),
(160,798,o),
(121,781,o),
(75,770,c)
);
}
);
userData = {
com.schriftgestaltung.Glyphs.layer.corners = (
{
name = _corner.serif;
options = 1;
origin = _corner00;
scale = "{0.7, -1}";
type = Corner;
},
{
name = _corner.serif;
origin = _corner01;
scale = "{0.7, 1}";
type = Corner;
},
{
name = _corner.serif;
origin = _corner02;
scale = "{0.7, 1}";
type = Corner;
},
{
name = _corner.serif;
options = 1;
origin = _corner03;
scale = "{0.8, -1}";
type = Corner;
},
{
name = _corner.mitre;
origin = _corner04;
type = Corner;
},
{
name = _corner.mitre;
origin = _corner05;
type = Corner;
}
);
};
width = 628;
},
{
anchors = (
{
name = bottom;
pos = (314,0);
},
{
name = center;
pos = (314,400);
},
{
name = top;
pos = (314,800);
}
);
background = {
shapes = (
{
closed = 1;
nodes = (
(516,0,l,{
name = _corner00;
}),
(526,340,ls),
(528,424,o),
(481,511,o),
(378,511,cs),
(303,511,o),
(232,459,o),
(151,381,c),
(170,360,l),
(343,493,o),
(436,426,o),
(436,300,cs),
(436,0,l,{
name = _corner01;
})
);
},
{
closed = 1;
nodes = (
(90,697,o),
(111,610,o),
(111,435,cs),
(111,0,l,{
name = _corner02;
}),
(196,0,l,{
name = _corner03;
}),
(196,530,ls),
(196,625,o),
(201,720,o),
(206,815,c,{
name = _corner04;
}),
(160,798,o),
(121,781,o),
(75,770,c,{
name = _corner05;
})
);
}
);
};
hints = (
{
name = _corner.serif;
options = 1;
origin = (0,0);
scale = (0.7,-1);
type = Corner;
},
{
name = _corner.serif;
origin = (0,12);
scale = (0.7,1);
type = Corner;
},
{
name = _corner.serif;
origin = (1,3);
scale = (0.7,1);
type = Corner;
},
{
name = _corner.serif;
options = 1;
origin = (1,4);
scale = (0.8,-1);
type = Corner;
},
{
name = _corner.mitre;
origin = (1,8);
type = Corner;
},
{
name = _corner.mitre;
origin = (1,11);
type = Corner;
}
);
layerId = m002;
shapes = (
{
closed = 1;
nodes = (
(543,0,l),
(553,320,ls),
(557,435,o),
(492,510,o),
(403,510,cs),
(332,510,o),
(248,461,o),
(178,341,c),
(202,320,l),
(275,439,o),
(428,417,o),
(428,270,cs),
(428,0,l)
);
},
{
closed = 1;
nodes = (
(87,637,o),
(108,570,o),
(108,395,cs),
(108,0,l),
(228,0,l),
(228,530,ls),
(228,625,o),
(233,720,o),
(238,815,c),
(192,798,o),
(108,772,o),
(62,760,c)
);
}
);
userData = {
com.schriftgestaltung.Glyphs.layer.corners = (
{
name = _corner.serif;
options = 1;
origin = _corner00;
scale = "{0.7, -1}";
type = Corner;
},
{
name = _corner.serif;
origin = _corner01;
scale = "{0.7, 1}";
type = Corner;
},
{
name = _corner.serif;
origin = _corner02;
scale = "{0.7, 1}";
type = Corner;
},
{
name = _corner.serif;
options = 1;
origin = _corner03;
scale = "{0.8, -1}";
type = Corner;
},
{
name = _corner.mitre;
origin = _corner04;
type = Corner;
},
{
name = _corner.mitre;
origin = _corner05;
type = Corner;
}
);
};
width = 628;
}
);
unicode = 104;
}
{
glyphname = k;
layers = (
{
anchors = (
{
name = bottom;
pos = (311,0);
},
{
name = top;
pos = (286,800);
}
);
background = {
shapes = (
{
closed = 1;
nodes = (
(92,697,o),
(113,610,o),
(113,435,cs),
(113,0,l,{
name = _corner00;
}),
(192,0,l,{
name = _corner01;
}),
(198,530,ls),
(199,625,o),
(203,720,o),
(208,815,c,{
name = _corner02;
}),
(162,798,o),
(123,781,o),
(77,770,c,{
name = _corner03;
})
);
},
{
closed = 1;
nodes = (
(217,270,l),
(392,0,l),
(512,0,l,{
name = _corner04;
}),
(298,305,l)
);
},
{
closed = 1;
nodes = (
(522,490,l,{
name = _corner05;
}),
(427,490,l,{
name = _corner06;
}),
(122,175,l),
(182,172,l)
);
}
);
};
layerId = m01;
shapes = (
{
closed = 1;
nodes = (
(463,0,l),
(478,0,o),
(490,-1,o),
(538,-1,c),
(546,-1,o),
(549,24,o),
(543,28,c),
(489,63,o),
(472,56,o),
(435,110,c),
(308,290,l),
(417,392,l),
(465,436,o),
(484,427,o),
(528,462,c),
(534,466,o),
(531,491,o),
(524,491,c),
(484,491,o),
(474,490,o),
(462,490,c),
(410,490,l),
(395,490,o),
(383,491,o),
(335,491,c),
(327,491,o),
(323,466,o),
(330,462,c),
(383,427,o),
(375,436,o),
(330,389,c),
(240,295,ls),
(211,265,o),
(217,271,o),
(181,270,c),
(170,229,l),
(245,228,o),
(241,234,o),
(259,206,cs),
(392,0,l)
);
},
{
closed = 1;
nodes = (
(171,0,l),
(186,0,o),
(198,-1,o),
(246,-1,c),
(254,-1,o),
(258,24,o),
(251,28,c),
(198,63,o),
(193,60,o),
(193,125,c),
(198,530,ls),
(199,621,o),
(203,713,o),
(207,804,c),
(199,812,l),
(160,797,o),
(126,782,o),
(87,772,c),
(79,760,l),
(94,689,o),
(113,602,o),
(113,435,cs),
(113,125,l),
(113,60,o),
(107,63,o),
(44,28,c),
(37,24,o),
(41,-1,o),
(50,-1,c),
(106,-1,o),
(120,0,o),
(138,0,c)
);
}
);
userData = {
com.schriftgestaltung.Glyphs.layer.corners = (
{
name = _corner.serif;
origin = _corner00;
scale = "{0.7, 1}";
type = Corner;
},
{
name = _corner.serif;
options = 1;
origin = _corner01;
scale = "{0.6, -1}";
type = Corner;
},
{
name = _corner.mitre;
origin = _corner02;
type = Corner;
},
{
name = _corner.mitre;
origin = _corner03;
type = Corner;
},
{
name = _corner.serif;
options = 1;
origin = _corner04;
scale = "{0.6, -1}";
type = Corner;
},
{
name = _corner.serif;
origin = _corner05;
scale = "{0.5, 1}";
type = Corner;
},
{
name = _corner.serif;
options = 1;
origin = _corner06;
scale = "{0.6, -1}";
type = Corner;
}
);
};
width = 571;
},
{
anchors = (
{
name = bottom;
pos = (284,0);
},
{
name = top;
pos = (284,800);
}
);
background = {
shapes = (
{
closed = 1;
nodes = (
(92,697,o),
(113,610,o),
(113,435,cs),
(113,0,l,{
name = _corner00;
}),
(192,0,l,{
name = _corner01;
}),
(198,530,ls),
(199,625,o),
(203,720,o),
(208,815,c,{
name = _corner02;
}),
(162,798,o),
(123,781,o),
(77,770,c,{
name = _corner03;
})
);
},
{
closed = 1;
nodes = (
(217,270,l),
(392,0,l),
(512,0,l,{
name = _corner04;
}),
(298,305,l)
);
},
{
closed = 1;
nodes = (
(522,490,l,{
name = _corner05;
}),
(427,490,l,{
name = _corner06;
}),
(122,175,l),
(182,172,l)
);
}
);
};
layerId = m002;
shapes = (
{
closed = 1;
nodes = (
(489,0,l),
(504,0,o),
(516,-1,o),
(558,-1,c),
(566,-1,o),
(572,39,o),
(566,44,c),
(518,78,o),
(498,76,o),
(461,130,c),
(348,290,l),
(436,372,l),
(483,416,o),
(505,412,o),
(544,446,c),
(550,451,o),
(544,491,o),
(538,491,c),
(503,491,o),
(493,490,o),
(480,490,c),
(366,490,l),
(356,490,o),
(348,491,o),
(320,491,c),
(315,491,o),
(310,451,o),
(315,446,c),
(346,412,o),
(340,414,o),
(301,362,c),
(265,314,ls),
(251,296,o),
(245,295,o),
(221,295,c),
(210,229,l),
(235,228,o),
(254,236,o),
(269,206,cs),
(372,0,l)
);
},
{
closed = 1;
nodes = (
(207,0,l),
(222,0,o),
(234,-1,o),
(276,-1,c),
(284,-1,o),
(290,39,o),
(284,44,c),
(236,78,o),
(228,80,o),
(228,145,c),
(228,530,ls),
(228,618,o),
(232,706,o),
(237,793,c),
(219,808,l),
(179,794,o),
(122,777,o),
(81,765,c),
(66,740,l),
(89,629,o),
(108,560,o),
(108,395,cs),
(108,145,l),
(108,80,o),
(98,78,o),
(43,44,c),
(35,39,o),
(43,-1,o),
(52,-1,c),
(101,-1,o),
(115,0,o),
(133,0,c)
);
}
);
userData = {
com.schriftgestaltung.Glyphs.layer.corners = (
{
name = _corner.serif;
options = 1;
origin = _corner00;
scale = "{0.6, -1}";
type = Corner;
},
{
name = _corner.serif;
origin = _corner01;
scale = "{0.5, 1}";
type = Corner;
},
{
name = _corner.serif;
options = 1;
origin = _corner02;
scale = "{0.4, -1}";
type = Corner;
},
{
name = _corner.serif;
options = 1;
origin = _corner03;
scale = "{0.6, -1}";
type = Corner;
},
{
name = _corner.mitre;
origin = _corner04;
type = Corner;
},
{
name = _corner.mitre;
origin = _corner05;
type = Corner;
},
{
name = _corner.serif;
origin = _corner06;
scale = "{0.7, 1}";
type = Corner;
}
);
};
width = 568;
}
);
unicode = 107;
}
{
glyphname = l;
layers = (
{
anchors = (
{
name = bottom;
pos = (161,0);
},
{
name = center;
pos = (161,400);
},
{
name = top;
pos = (161,800);
},
{
name = topright;
pos = (241,800);
}
);
background = {
shapes = (
{
closed = 1;
nodes = (
(203,0,l,{
name = _corner00;
}),
(203,815,l,{
name = _corner01;
}),
(173,805,o),
(153,800,o),
(113,790,c,{
name = _corner02;
}),
(113,0,l,{
name = _corner03;
})
);
}
);
};
hints = (
{
name = _corner.serif;
options = 1;
origin = (0,4);
scale = (0.8,-1);
type = Corner;
},
{
name = _corner.mitre;
origin = (0,8);
type = Corner;
},
{
name = _corner.serif;
origin = (0,3);
scale = (0.7,1);
type = Corner;
},
{
name = _corner.mitre;
origin = (0,11);
type = Corner;
}
);
layerId = m01;
shapes = (
{
closed = 1;
nodes = (
(92,697,o),
(113,610,o),
(113,435,cs),
(113,0,l),
(198,0,l),
(198,530,ls),
(198,625,o),
(203,720,o),
(208,815,c),
(162,798,o),
(123,781,o),
(77,770,c)
);
}
);
userData = {
com.schriftgestaltung.Glyphs.layer.corners = (
{
name = _corner.serif;
options = 1;
origin = _corner00;
scale = "{0.8, -1}";
type = Corner;
},
{
name = _corner.mitre;
origin = _corner01;
type = Corner;
},
{
name = _corner.serif;
origin = _corner02;
scale = "{0.7, 1}";
type = Corner;
},
{
name = _corner.mitre;
origin = _corner03;
type = Corner;
}
);
};
width = 321;
},
{
anchors = (
{
name = bottom;
pos = (173,0);
},
{
name = center;
pos = (173,400);
},
{
name = top;
pos = (173,800);
},
{
name = topright;
pos = (326,800);
}
);
background = {
shapes = (
{
closed = 1;
nodes = (
(243,0,l,{
name = _corner00;
}),
(243,815,l,{
name = _corner01;
}),
(213,805,o),
(193,800,o),
(153,790,c,{
name = _corner02;
}),
(153,0,l,{
name = _corner03;
})
);
}
);
};
hints = (
{
name = _corner.serif;
options = 1;
origin = (0,4);
scale = (0.8,-1);
type = Corner;
},
{
name = _corner.mitre;
origin = (0,8);
type = Corner;
},
{
name = _corner.serif;
origin = (0,3);
scale = (0.7,1);
type = Corner;
},
{
name = _corner.mitre;
origin = (0,11);
type = Corner;
}
);
layerId = m002;
shapes = (
{
closed = 1;
nodes = (
(87,637,o),
(108,570,o),
(108,395,cs),
(108,0,l),
(228,0,l),
(228,530,ls),
(228,625,o),
(233,720,o),
(238,815,c),
(192,798,o),
(108,772,o),
(62,760,c)
);
}
);
userData = {
com.schriftgestaltung.Glyphs.layer.corners = (
{
name = _corner.serif;
options = 1;
origin = _corner00;
scale = "{0.8, -1}";
type = Corner;
},
{
name = _corner.mitre;
origin = _corner01;
type = Corner;
},
{
name = _corner.serif;
origin = _corner02;
scale = "{0.7, 1}";
type = Corner;
},
{
name = _corner.mitre;
origin = _corner03;
type = Corner;
}
);
};
width = 346;
}
);
unicode = 108;
}
{
glyphname = m;
layers = (
{
anchors = (
{
name = bottom;
pos = (490,0);
},
{
name = top;
pos = (490,500);
}
);
background = {
shapes = (
{
closed = 1;
nodes = (
(212,0,l,{
name = _corner08;
}),
(212,515,l,{
name = _corner09;
}),
(182,505,o),
(162,500,o),
(122,490,c,{
name = _corner10;
}),
(122,0,l,{
name = _corner11;
})
);
},
{
closed = 1;
nodes = (
(542,0,l,{
name = _corner12;
}),
(542,330,ls),
(542,414,o),
(497,511,o),
(384,511,cs),
(339,511,o),
(248,489,o),
(162,341,c),
(205,300,l),
(220,392,o),
(278,434,o),
(338,434,cs),
(406,434,o),
(452,396,o),
(452,300,cs),
(452,0,l,{
name = _corner13;
})
);
},
{
closed = 1;
nodes = (
(872,0,l,{
name = _corner14;
}),
(872,330,ls),
(872,414,o),
(827,511,o),
(714,511,cs),
(669,511,o),
(578,489,o),
(492,341,c),
(535,300,l),
(550,392,o),
(608,434,o),
(668,434,cs),
(736,434,o),
(782,396,o),
(782,300,cs),
(782,0,l,{
name = _corner15;
})
);
}
);
};
hints = (
{
name = _corner.serif;
options = 1;
origin = (1,0);
scale = (0.7,-1);
type = Corner;
},
{
name = _corner.serif;
origin = (1,12);
scale = (0.7,1);
type = Corner;
},
{
name = _corner.serif;
options = 1;
origin = (2,0);
scale = (0.7,-1);
type = Corner;
},
{
name = _corner.serif;
origin = (2,12);
scale = (0.7,1);
type = Corner;
},
{
name = _corner.serif;
options = 1;
origin = (0,0);
scale = (0.8,-1);
type = Corner;
},
{
name = _corner.mitre;
origin = (0,1);
type = Corner;
},
{
name = _corner.beak;
options = 1;
origin = (0,4);
scale = (0.7,-1);
type = Corner;
},
{
name = _corner.serif;
origin = (0,5);
scale = (0.7,1);
type = Corner;
}
);
layerId = m01;
shapes = (
{
closed = 1;
nodes = (
(212,0,l),
(212,515,l),
(182,503,o),
(158,492,o),
(127,480,c),
(127,0,l)
);
},
{
closed = 1;
nodes = (
(537,0,l),
(537,340,ls),
(537,424,o),
(497,511,o),
(394,511,cs),
(319,511,o),
(248,459,o),
(162,381,c),
(186,360,l),
(359,493,o),
(452,426,o),
(452,300,cs),
(452,0,l)
);
},
{
closed = 1;
nodes = (
(857,0,l),
(867,340,ls),
(869,424,o),
(822,511,o),
(719,511,cs),
(644,511,o),
(573,459,o),
(487,381,c),
(511,360,l),
(684,493,o),
(777,426,o),
(777,300,cs),
(777,0,l)
);
}
);
userData = {
com.GeorgSeifert.ImageExportSettings = {
path = "../../../Downloads";
presets = (
{
filename = "{{{glyph.name}}}";
format = SVG;
name = default;
size = 1050;
}
);
};
com.schriftgestaltung.Glyphs.layer.corners = (
{
name = _corner.serif;
options = 1;
origin = _corner00;
scale = "{0.7, -1}";
type = Corner;
},
{
name = _corner.serif;
origin = _corner01;
scale = "{0.7, 1}";
type = Corner;
},
{
name = _corner.serif;
options = 1;
origin = _corner02;
scale = "{0.7, -1}";
type = Corner;
},
{
name = _corner.serif;
origin = _corner03;
scale = "{0.7, 1}";
type = Corner;
},
{
name = _corner.serif;
options = 1;
origin = _corner04;
scale = "{0.8, -1}";
type = Corner;
},
{
name = _corner.mitre;
origin = _corner05;
type = Corner;
},
{
name = _corner.beak;
options = 1;
origin = _corner06;
scale = "{0.7, -1}";
type = Corner;
},
{
name = _corner.serif;
origin = _corner07;
scale = "{0.7, 1}";
type = Corner;
}
);
};
width = 966;
},
{
anchors = (
{
name = bottom;
pos = (487,0);
},
{
name = top;
pos = (487,500);
}
);
background = {
shapes = (
{
closed = 1;
nodes = (
(568,0,l,{
name = _corner16;
}),
(568,340,ls),
(568,424,o),
(528,511,o),
(425,511,cs),
(350,511,o),
(279,459,o),
(193,381,c),
(217,360,l),
(390,493,o),
(483,426,o),
(483,300,cs),
(483,0,l,{
name = _corner17;
})
);
},
{
closed = 1;
nodes = (
(888,0,l,{
name = _corner18;
}),
(898,340,ls),
(900,424,o),
(853,511,o),
(750,511,cs),
(675,511,o),
(604,459,o),
(518,381,c),
(542,360,l),
(715,493,o),
(808,426,o),
(808,300,cs),
(808,0,l,{
name = _corner19;
})
);
},
{
closed = 1;
nodes = (
(243,0,l,{
name = _corner20;
}),
(243,515,l,{
name = _corner21;
}),
(213,503,o),
(189,492,o),
(158,480,c,{
name = _corner22;
}),
(158,0,l,{
name = _corner23;
})
);
}
);
};
hints = (
{
name = _corner.serif;
options = 1;
origin = (1,0);
scale = (0.7,-1);
type = Corner;
},
{
name = _corner.serif;
origin = (1,12);
scale = (0.7,1);
type = Corner;
},
{
name = _corner.serif;
options = 1;
origin = (2,0);
scale = (0.7,-1);
type = Corner;
},
{
name = _corner.serif;
origin = (2,12);
scale = (0.7,1);
type = Corner;
},
{
name = _corner.serif;
options = 1;
origin = (0,0);
scale = (0.8,-1);
type = Corner;
},
{
name = _corner.mitre;
origin = (0,1);
type = Corner;
},
{
name = _corner.beak;
options = 1;
origin = (0,4);
scale = (0.7,-1);
type = Corner;
},
{
name = _corner.serif;
origin = (0,5);
scale = (0.7,1);
type = Corner;
}
);
layerId = m002;
shapes = (
{
closed = 1;
nodes = (
(233,0,l),
(233,515,l),
(203,503,o),
(139,482,o),
(108,470,c),
(108,0,l)
);
},
{
closed = 1;
nodes = (
(558,0,l),
(558,320,ls),
(558,435,o),
(497,510,o),
(408,510,cs),
(337,510,o),
(253,461,o),
(183,341,c),
(207,320,l),
(281,440,o),
(433,416,o),
(433,270,cs),
(433,0,l)
);
},
{
closed = 1;
nodes = (
(868,0,l),
(878,320,ls),
(882,442,o),
(808,508,o),
(718,508,cs),
(642,508,o),
(555,461,o),
(493,361,c),
(527,310,l),
(600,439,o),
(753,418,o),
(753,270,cs),
(753,0,l)
);
}
);
userData = {
com.schriftgestaltung.Glyphs.layer.corners = (
{
name = _corner.serif;
options = 1;
origin = _corner00;
scale = "{0.7, -1}";
type = Corner;
},
{
name = _corner.serif;
origin = _corner01;
scale = "{0.7, 1}";
type = Corner;
},
{
name = _corner.serif;
options = 1;
origin = _corner02;
scale = "{0.7, -1}";
type = Corner;
},
{
name = _corner.serif;
origin = _corner03;
scale = "{0.7, 1}";
type = Corner;
},
{
name = _corner.serif;
options = 1;
origin = _corner04;
scale = "{0.8, -1}";
type = Corner;
},
{
name = _corner.mitre;
origin = _corner05;
type = Corner;
},
{
name = _corner.beak;
options = 1;
origin = _corner06;
scale = "{0.7, -1}";
type = Corner;
},
{
name = _corner.serif;
origin = _corner07;
scale = "{0.7, 1}";
type = Corner;
}
);
};
width = 973;
}
);
unicode = 109;
}
{
glyphname = n;
layers = (
{
anchors = (
{
name = bottom;
pos = (328,0);
},
{
name = top;
pos = (338,500);
}
);
background = {
shapes = (
{
closed = 1;
nodes = (
(212,0,l,{
name = _corner06;
}),
(212,515,l,{
name = _corner07;
}),
(182,505,o),
(162,500,o),
(122,490,c,{
name = _corner08;
}),
(122,0,l,{
name = _corner09;
})
);
}
);
};
layerId = m01;
shapes = (
{
closed = 1;
nodes = (
(509,0,l),
(526,0,o),
(540,-1,o),
(596,-1,c),
(605,-1,o),
(609,24,o),
(602,28,c),
(539,63,o),
(534,60,o),
(536,125,c),
(542,340,ls),
(544,424,o),
(497,511,o),
(394,511,cs),
(319,511,o),
(248,459,o),
(162,381,c),
(186,360,l),
(359,493,o),
(452,426,o),
(452,300,cs),
(452,125,l),
(452,60,o),
(446,63,o),
(383,28,c),
(376,24,o),
(380,-1,o),
(389,-1,c),
(445,-1,o),
(459,0,o),
(477,0,c)
);
},
{
closed = 1;
nodes = (
(184,0,l),
(204,0,o),
(220,-1,o),
(284,-1,c),
(294,-1,o),
(299,24,o),
(290,28,c),
(219,63,o),
(212,60,o),
(212,125,c),
(212,504,l),
(203,511,l),
(184,504,o),
(168,497,o),
(108,472,c),
(98,469,o),
(61,456,o),
(51,453,c),
(44,450,o),
(44,421,o),
(54,418,c),
(116,396,o),
(126,391,o),
(127,356,c),
(127,125,l),
(127,60,o),
(121,63,o),
(58,28,c),
(51,24,o),
(55,-1,o),
(64,-1,c),
(120,-1,o),
(134,0,o),
(152,0,c)
);
}
);
userData = {
com.schriftgestaltung.Glyphs.layer.corners = (
{
name = _corner.serif;
options = 1;
origin = _corner00;
scale = "{0.7, -1}";
type = Corner;
},
{
name = _corner.serif;
origin = _corner01;
scale = "{0.7, 1}";
type = Corner;
},
{
name = _corner.serif;
options = 1;
origin = _corner02;
scale = "{0.8, -1}";
type = Corner;
},
{
name = _corner.mitre;
origin = _corner03;
type = Corner;
},
{
name = _corner.beak;
options = 1;
origin = _corner04;
scale = "{0.7, -1}";
type = Corner;
},
{
name = _corner.serif;
origin = _corner05;
scale = "{0.7, 1}";
type = Corner;
}
);
};
width = 641;
},
{
anchors = (
{
name = bottom;
pos = (334,0);
},
{
name = top;
pos = (334,500);
}
);
background = {
shapes = (
{
closed = 1;
nodes = (
(198,0,l,{
name = _corner06;
}),
(198,515,l,{
name = _corner07;
}),
(168,505,o),
(148,500,o),
(108,490,c,{
name = _corner08;
}),
(108,0,l,{
name = _corner09;
})
);
}
);
};
layerId = m002;
shapes = (
{
closed = 1;
nodes = (
(530,0,l),
(548,0,o),
(562,-1,o),
(611,-1,c),
(620,-1,o),
(628,39,o),
(620,44,c),
(565,78,o),
(555,80,o),
(558,145,c),
(563,320,ls),
(567,435,o),
(502,510,o),
(413,510,cs),
(342,510,o),
(258,461,o),
(188,341,c),
(212,320,l),
(285,439,o),
(438,417,o),
(438,270,cs),
(438,145,l),
(438,80,o),
(428,78,o),
(373,44,c),
(365,39,o),
(373,-1,o),
(382,-1,c),
(431,-1,o),
(445,0,o),
(463,0,c)
);
},
{
closed = 1;
nodes = (
(210,0,l),
(230,0,o),
(246,-1,o),
(302,-1,c),
(312,-1,o),
(321,39,o),
(312,44,c),
(249,78,o),
(238,80,o),
(238,145,c),
(238,494,l),
(219,508,l),
(195,499,o),
(162,488,o),
(96,464,c),
(66,453,o),
(48,449,o),
(18,440,c),
(11,438,o),
(7,397,o),
(17,393,c),
(77,369,o),
(112,373,o),
(113,338,c),
(113,145,l),
(113,80,o),
(103,78,o),
(48,44,c),
(40,39,o),
(48,-1,o),
(57,-1,c),
(106,-1,o),
(120,0,o),
(138,0,c)
);
}
);
userData = {
com.schriftgestaltung.Glyphs.layer.corners = (
{
name = _corner.serif;
options = 1;
origin = _corner00;
scale = "{0.7, -1}";
type = Corner;
},
{
name = _corner.serif;
origin = _corner01;
scale = "{0.7, 1}";
type = Corner;
},
{
name = _corner.serif;
options = 1;
origin = _corner02;
scale = "{0.8, -1}";
type = Corner;
},
{
name = _corner.mitre;
origin = _corner03;
type = Corner;
},
{
name = _corner.beak;
options = 1;
origin = _corner04;
scale = "{0.7, -1}";
type = Corner;
},
{
name = _corner.serif;
origin = _corner05;
scale = "{0.7, 1}";
type = Corner;
}
);
};
width = 667;
}
);
unicode = 110;
}
{
glyphname = o;
layers = (
{
anchors = (
{
name = bottom;
pos = (291,0);
},
{
name = center;
pos = (291,250);
},
{
name = ogonek;
pos = (524,10);
},
{
name = top;
pos = (291,500);
},
{
name = topright;
pos = (562,500);
}
);
background = {
shapes = (
{
closed = 1;
nodes = (
(150,-10,o),
(40,97,o),
(40,232,cs),
(40,384,o),
(165,510,o),
(309,510,cs),
(432,510,o),
(542,403,o),
(542,268,cs),
(542,112,o),
(413,-10,o),
(273,-10,cs)
);
},
{
closed = 1;
nodes = (
(397,60,o),
(452,126,o),
(452,221,cs),
(452,345,o),
(374,440,o),
(271,440,cs),
(185,440,o),
(130,374,o),
(130,279,cs),
(130,155,o),
(208,60,o),
(311,60,cs)
);
}
);
};
layerId = m01;
shapes = (
{
closed = 1;
nodes = (
(403,-10,o),
(532,112,o),
(532,268,cs),
(532,403,o),
(442,510,o),
(309,510,cs),
(175,510,o),
(50,384,o),
(50,232,cs),
(50,97,o),
(140,-10,o),
(273,-10,cs)
);
},
{
closed = 1;
nodes = (
(208,60,o),
(145,135,o),
(145,279,cs),
(145,374,o),
(185,440,o),
(271,440,cs),
(374,440,o),
(437,365,o),
(437,221,cs),
(437,126,o),
(397,60,o),
(311,60,cs)
);
}
);
width = 582;
},
{
anchors = (
{
name = bottom;
pos = (297,0);
},
{
name = center;
pos = (297,250);
},
{
name = ogonek;
pos = (535,10);
},
{
name = top;
pos = (297,500);
},
{
name = topright;
pos = (574,500);
}
);
background = {
shapes = (
{
closed = 1;
nodes = (
(409,-10,o),
(538,112,o),
(538,268,cs),
(538,403,o),
(448,510,o),
(315,510,cs),
(181,510,o),
(56,384,o),
(56,232,cs),
(56,97,o),
(146,-10,o),
(279,-10,cs)
);
},
{
closed = 1;
nodes = (
(214,60,o),
(151,135,o),
(151,279,cs),
(151,374,o),
(191,440,o),
(277,440,cs),
(380,440,o),
(443,365,o),
(443,221,cs),
(443,126,o),
(403,60,o),
(317,60,cs)
);
}
);
};
layerId = m002;
shapes = (
{
closed = 1;
nodes = (
(456,-10,o),
(544,128,o),
(544,262,cs),
(544,388,o),
(467,510,o),
(315,510,cs),
(138,510,o),
(50,372,o),
(50,238,cs),
(50,112,o),
(127,-10,o),
(279,-10,cs)
);
},
{
closed = 1;
nodes = (
(237,58,o),
(191,159,o),
(191,281,cs),
(191,382,o),
(220,430,o),
(277,435,cs),
(358,442,o),
(403,341,o),
(403,219,cs),
(403,118,o),
(374,70,o),
(317,65,cs)
);
}
);
width = 594;
}
);
unicode = 111;
}
{
glyphname = p;
layers = (
{
anchors = (
{
name = bottom;
pos = (293,0);
},
{
name = top;
pos = (293,500);
}
);
layerId = m01;
shapes = (
{
closed = 1;
nodes = (
(532,400,o),
(472,510,o),
(338,510,cs),
(267,510,o),
(186,467,o),
(107,360,c),
(146,350,l),
(196,405,o),
(249,431,o),
(297,431,cs),
(401,431,o),
(446,353,o),
(446,221,cs),
(446,100,o),
(371,57,o),
(295,57,cs),
(241,57,o),
(186,78,o),
(152,110,c),
(127,25,l),
(152,10,o),
(206,-11,o),
(281,-11,cs),
(394,-11,o),
(532,107,o),
(532,268,cs)
);
},
{
closed = 1;
nodes = (
(148,-250,l),
(173,-250,o),
(193,-251,o),
(273,-251,c),
(286,-251,o),
(292,-224,o),
(281,-219,c),
(192,-181,o),
(183,-184,o),
(183,-112,c),
(183,504,l),
(174,511,l),
(155,504,o),
(139,497,o),
(79,472,c),
(69,469,o),
(32,456,o),
(22,453,c),
(15,450,o),
(15,421,o),
(25,418,c),
(87,396,o),
(97,391,o),
(98,356,c),
(98,-112,l),
(98,-184,o),
(92,-181,o),
(29,-219,c),
(22,-224,o),
(26,-251,o),
(35,-251,c),
(91,-251,o),
(105,-250,o),
(123,-250,c)
);
}
);
userData = {
com.schriftgestaltung.Glyphs.layer.corners = (
{
name = _corner.serif;
options = 1;
origin = _corner00;
scale = "{1, -1.1}";
type = Corner;
},
{
name = _corner.mitre;
origin = _corner01;
type = Corner;
},
{
name = _corner.beak;
options = 1;
origin = _corner02;
scale = "{0.7, -1}";
type = Corner;
},
{
name = _corner.serif;
origin = _corner03;
scale = "{0.7, 1.1}";
type = Corner;
}
);
};
width = 585;
},
{
anchors = (
{
name = bottom;
pos = (315,0);
},
{
name = top;
pos = (315,500);
}
);
layerId = m002;
shapes = (
{
closed = 1;
nodes = (
(577,423,o),
(495,508,o),
(397,508,cs),
(313,508,o),
(217,445,o),
(152,310,c),
(191,310,l),
(247,376,o),
(294,402,o),
(332,402,cs),
(400,402,o),
(442,340,o),
(442,242,cs),
(442,145,o),
(418,68,o),
(339,68,cs),
(280,68,o),
(233,116,o),
(197,150,c),
(172,5,l),
(208,-4,o),
(244,-8,o),
(279,-8,cs),
(440,-8,o),
(577,84,o),
(577,268,cs)
);
},
{
closed = 1;
nodes = (
(193,-250,l),
(218,-250,o),
(238,-251,o),
(308,-251,c),
(321,-251,o),
(332,-207,o),
(321,-202,c),
(242,-164,o),
(228,-162,o),
(228,-90,c),
(228,494,l),
(209,508,l),
(185,499,o),
(152,488,o),
(86,464,c),
(56,453,o),
(38,449,o),
(8,440,c),
(1,438,o),
(-3,397,o),
(7,393,c),
(67,369,o),
(102,373,o),
(103,338,c),
(103,-105,l),
(103,-170,o),
(93,-172,o),
(38,-206,c),
(30,-211,o),
(38,-251,o),
(47,-251,c),
(96,-251,o),
(110,-250,o),
(128,-250,c)
);
}
);
userData = {
com.schriftgestaltung.Glyphs.layer.corners = (
{
name = _corner.serif;
origin = _corner00;
scale = "{0.7, 1}";
type = Corner;
},
{
name = _corner.serif;
origin = _corner01;
scale = "{1, -1.1}";
type = Corner;
},
{
name = _corner.beak;
options = 1;
origin = _corner02;
scale = "{0.7, -1}";
type = Corner;
},
{
name = _corner.mitre;
origin = _corner03;
type = Corner;
}
);
};
width = 630;
}
);
unicode = 112;
}
{
glyphname = q;
layers = (
{
anchors = (
{
name = bottom;
pos = (301,0);
},
{
name = top;
pos = (301,500);
}
);
layerId = m01;
shapes = (
{
closed = 1;
nodes = (
(532,-139,o),
(511,-52,o),
(513,115,cs),
(518,495,l),
(508,502,l),
(431,480,l),
(431,20,l),
(431,-71,o),
(426,-163,o),
(422,-254,c),
(430,-261,l),
(469,-247,o),
(501,-232,o),
(539,-222,c),
(547,-210,l)
);
},
{
closed = 1;
nodes = (
(55,100,o),
(115,-10,o),
(249,-10,cs),
(320,-10,o),
(401,33,o),
(480,140,c),
(484,155,o),
(445,165,o),
(441,150,c),
(391,95,o),
(338,69,o),
(290,69,cs),
(186,69,o),
(145,147,o),
(145,279,cs),
(145,400,o),
(216,443,o),
(292,443,cs),
(346,443,o),
(401,422,o),
(435,390,c),
(460,475,l),
(435,490,o),
(381,511,o),
(306,511,cs),
(193,511,o),
(55,393,o),
(55,232,cs)
);
}
);
userData = {
com.schriftgestaltung.Glyphs.layer.corners = (
{
name = _corner.mitre;
origin = _corner00;
type = Corner;
},
{
name = _corner.mitre;
origin = _corner01;
type = Corner;
},
{
name = _corner.mitre;
origin = _corner02;
type = Corner;
},
{
name = _segment.bulge;
origin = _corner03;
type = Segment;
}
);
};
width = 602;
},
{
anchors = (
{
name = bottom;
pos = (306,0);
},
{
name = top;
pos = (306,500);
}
);
background = {
shapes = (
{
closed = 1;
nodes = (
(540,-87,o),
(517,-20,o),
(520,215,cs),
(524,510,l,{
name = _corner00;
}),
(399,480,l),
(399,20,ls),
(399,-75,o),
(394,-170,o),
(389,-265,c,{
name = _corner01;
}),
(435,-248,o),
(519,-222,o),
(565,-210,c,{
name = _corner02;
})
);
},
{
closed = 1;
nodes = (
(51,77,o),
(133,-8,o),
(231,-8,cs),
(315,-8,o),
(411,55,o),
(476,190,c),
(437,190,l,{
name = _corner03;
}),
(381,124,o),
(334,98,o),
(296,98,cs),
(228,98,o),
(186,170,o),
(186,278,cs),
(186,394,o),
(229,434,o),
(281,434,cs),
(334,434,o),
(395,394,o),
(431,350,c),
(456,475,l),
(430,494,o),
(384,508,o),
(349,508,cs),
(168,508,o),
(51,416,o),
(51,232,cs)
);
}
);
};
layerId = m002;
shapes = (
{
closed = 1;
nodes = (
(523,2,o),
(518,49,o),
(520,215,cs),
(524,489,l),
(505,505,l),
(399,480,l),
(399,20,ls),
(399,-68,o),
(395,-156,o),
(390,-243,c),
(408,-258,l),
(448,-244,o),
(505,-227,o),
(546,-215,c),
(561,-190,l)
);
},
{
closed = 1;
nodes = (
(51,77,o),
(133,-8,o),
(231,-8,cs),
(315,-8,o),
(411,55,o),
(476,190,c),
(476,205,o),
(437,205,o),
(437,190,c),
(381,124,o),
(334,98,o),
(296,98,cs),
(228,98,o),
(186,170,o),
(186,278,cs),
(186,394,o),
(229,434,o),
(281,434,cs),
(334,434,o),
(395,394,o),
(431,350,c),
(456,475,l),
(426,497,o),
(379,510,o),
(328,510,cs),
(203,510,o),
(51,435,o),
(51,232,cs)
);
}
);
userData = {
com.schriftgestaltung.Glyphs.layer.corners = (
{
name = _corner.mitre;
origin = _corner00;
type = Corner;
},
{
name = _corner.mitre;
origin = _corner01;
type = Corner;
},
{
name = _corner.mitre;
origin = _corner02;
type = Corner;
},
{
name = _segment.bulge;
origin = _corner03;
type = Segment;
}
);
};
width = 611;
}
);
unicode = 113;
}
{
glyphname = w;
layers = (
{
anchors = (
{
name = bottom;
pos = (431,0);
},
{
name = top;
pos = (441,490);
}
);
background = {
shapes = (
{
closed = 1;
nodes = (
(343,87,l),
(495,490,l),
(420,490,l,{
name = _corner00;
}),
(293,84,l),
(152,490,l,{
name = _corner01;
}),
(52,490,l,{
name = _corner02;
}),
(240,-10,l,{
name = _corner03;
}),
(310,0,l)
);
},
{
closed = 1;
nodes = (
(665,97,l),
(805,490,l,{
name = _corner04;
}),
(720,490,l,{
name = _corner05;
}),
(613,89,l),
(462,490,l,{
name = _corner06;
}),
(435,490,l),
(402,410,l),
(560,-10,l,{
name = _corner07;
}),
(630,0,l)
);
}
);
};
layerId = m01;
shapes = (
{
closed = 1;
nodes = (
(343,87,l),
(495,490,l),
(428,490,l),
(413,490,o),
(401,491,o),
(353,491,c),
(346,491,o),
(342,466,o),
(349,462,c),
(402,427,o),
(402,431,o),
(382,369,c),
(293,84,l),
(194,370,l),
(172,431,o),
(170,427,o),
(215,462,c),
(220,466,o),
(217,491,o),
(211,491,c),
(171,491,o),
(161,490,o),
(148,490,c),
(85,490,l),
(72,490,o),
(62,491,o),
(22,491,c),
(16,491,o),
(13,466,o),
(18,462,c),
(63,427,o),
(74,431,o),
(97,370,c),
(236,0,l),
(250,-9,l),
(310,0,l)
);
},
{
closed = 1;
nodes = (
(665,97,l),
(762,370,l),
(784,431,o),
(795,427,o),
(840,462,c),
(845,466,o),
(842,491,o),
(836,491,c),
(796,491,o),
(786,490,o),
(773,490,c),
(730,490,l),
(715,490,o),
(703,491,o),
(655,491,c),
(648,491,o),
(644,466,o),
(651,462,c),
(704,427,o),
(704,431,o),
(687,368,c),
(613,89,l),
(507,370,l),
(484,431,o),
(482,427,o),
(526,462,c),
(532,466,o),
(529,491,o),
(522,491,c),
(482,491,o),
(472,490,o),
(460,490,c),
(435,490,l),
(402,410,l),
(556,0,l),
(570,-9,l),
(630,0,l)
);
}
);
userData = {
com.schriftgestaltung.Glyphs.layer.corners = (
{
name = _corner.serif;
options = 1;
origin = _corner00;
scale = "{-0.5, 1}";
type = Corner;
},
{
name = _corner.serif;
options = 1;
origin = _corner01;
scale = "{-0.6, 1}";
type = Corner;
},
{
name = _corner.serif;
options = 1;
origin = _corner02;
scale = "{-0.6, 1}";
type = Corner;
},
{
name = _corner.serif;
origin = _corner03;
scale = "{0.5, 1}";
type = Corner;
},
{
name = _corner.serif;
origin = _corner04;
scale = "{0.5, 1}";
type = Corner;
},
{
name = _corner.serif;
origin = _corner05;
scale = "{0.5, 1}";
type = Corner;
},
{
name = _corner.mitre;
origin = _corner06;
type = Corner;
},
{
name = _corner.mitre;
origin = _corner07;
type = Corner;
}
);
};
width = 861;
},
{
anchors = (
{
name = bottom;
pos = (430,0);
},
{
name = top;
pos = (430,500);
}
);
background = {
shapes = (
{
closed = 1;
nodes = (
(532,490,l,{
name = _corner00;
}),
(405,84,l),
(264,490,l,{
name = _corner01;
}),
(164,490,l,{
name = _corner02;
}),
(352,-10,l,{
name = _corner03;
}),
(422,0,l),
(607,490,l)
);
},
{
closed = 1;
nodes = (
(832,490,l,{
name = _corner04;
}),
(725,89,l),
(574,490,l,{
name = _corner05;
}),
(547,490,l),
(514,410,l),
(672,-10,l,{
name = _corner06;
}),
(742,0,l),
(917,490,l,{
name = _corner07;
})
);
}
);
};
layerId = m002;
shapes = (
{
closed = 1;
nodes = (
(373,133,l),
(537,490,l),
(425,490,l),
(410,490,o),
(398,491,o),
(356,491,c),
(349,491,o),
(342,451,o),
(349,446,c),
(396,412,o),
(399,411,o),
(380,348,c),
(324,157,l),
(245,351,l),
(221,411,o),
(220,412,o),
(260,446,c),
(265,451,o),
(260,491,o),
(253,491,c),
(218,491,o),
(208,490,o),
(196,490,c),
(81,490,l),
(68,490,o),
(58,491,o),
(23,491,c),
(17,491,o),
(11,451,o),
(17,446,c),
(56,412,o),
(71,411,o),
(96,351,c),
(243,-10,l),
(257,-19,l),
(337,-10,l)
);
},
{
closed = 1;
nodes = (
(673,133,l),
(771,352,l),
(797,412,o),
(811,412,o),
(842,446,c),
(847,451,o),
(842,491,o),
(837,491,c),
(809,491,o),
(801,490,o),
(791,490,c),
(721,490,l),
(706,490,o),
(694,491,o),
(652,491,c),
(644,491,o),
(638,451,o),
(644,446,c),
(692,412,o),
(695,411,o),
(677,348,c),
(624,157,l),
(548,351,l),
(525,411,o),
(524,412,o),
(564,446,c),
(569,451,o),
(564,491,o),
(557,491,c),
(522,491,o),
(512,490,o),
(500,490,c),
(444,490,l),
(393,374,l),
(543,-10,l),
(557,-19,l),
(637,-10,l)
);
}
);
userData = {
com.schriftgestaltung.Glyphs.layer.corners = (
{
name = _corner.serif;
options = 1;
origin = _corner00;
scale = "{-0.5, 1}";
type = Corner;
},
{
name = _corner.serif;
options = 1;
origin = _corner01;
scale = "{-0.6, 1}";
type = Corner;
},
{
name = _corner.serif;
options = 1;
origin = _corner02;
scale = "{-0.6, 1}";
type = Corner;
},
{
name = _corner.serif;
origin = _corner03;
scale = "{0.5, 1}";
type = Corner;
},
{
name = _corner.serif;
origin = _corner04;
scale = "{0.5, 1}";
type = Corner;
},
{
name = _corner.serif;
origin = _corner05;
scale = "{0.4, 1}";
type = Corner;
},
{
name = _corner.mitre;
origin = _corner06;
scale = "{0.5, 0.5}";
type = Corner;
},
{
name = _corner.mitre;
origin = _corner07;
scale = "{0.5, 0.5}";
type = Corner;
}
);
};
width = 859;
}
);
unicode = 119;
}
{
glyphname = z;
layers = (
{
anchors = (
{
name = bottom;
pos = (263,0);
},
{
name = center;
pos = (263,250);
},
{
name = top;
pos = (253,460);
}
);
layerId = m01;
shapes = (
{
closed = 1;
nodes = (
(80,450,l),
(77,432,o),
(74,417,o),
(66,357,c),
(65,348,o),
(89,340,o),
(94,348,c),
(138,409,o),
(136,421,o),
(200,427,c),
(345,440,l),
(55,40,l),
(65,0,l),
(445,0,l),
(450,40,l),
(453,59,o),
(456,73,o),
(464,133,c),
(465,143,o),
(441,150,o),
(436,143,c),
(392,81,o),
(394,70,o),
(329,64,c),
(170,50,l),
(465,450,l),
(455,490,l),
(85,490,l)
);
}
);
userData = {
com.schriftgestaltung.Glyphs.layer.corners = (
{
name = _corner.serif;
options = 1;
origin = _corner00;
scale = "{0.75, -1}";
type = Corner;
},
{
name = _corner.serif;
options = 1;
origin = _corner01;
scale = "{0.75, -1}";
type = Corner;
}
);
};
width = 525;
},
{
anchors = (
{
name = bottom;
pos = (263,0);
},
{
name = center;
pos = (263,250);
},
{
name = top;
pos = (293,500);
}
);
layerId = m002;
shapes = (
{
closed = 1;
nodes = (
(79,433,l),
(77,415,o),
(75,400,o),
(69,348,c),
(68,338,o),
(107,326,o),
(113,333,c),
(153,389,o),
(156,403,o),
(221,410,c),
(325,420,l),
(55,50,l),
(75,0,l),
(485,0,l),
(491,55,l),
(493,75,o),
(496,91,o),
(501,147,c),
(503,157,o),
(464,170,o),
(458,162,c),
(417,102,o),
(414,87,o),
(349,81,c),
(230,70,l),
(505,440,l),
(485,490,l),
(85,490,l)
);
}
);
userData = {
com.schriftgestaltung.Glyphs.layer.corners = (
{
name = _corner.serif;
options = 1;
origin = _corner00;
scale = "{0.8, -1}";
type = Corner;
},
{
name = _corner.serif;
options = 1;
origin = _corner01;
scale = "{0.75, -1}";
type = Corner;
}
);
};
width = 525;
}
);
unicode = 122;
}
{
glyphname = asciitilde;
layers = (
{
layerId = m01;
shapes = (
{
closed = 1;
nodes = (
(211,345,o),
(120,367,o),
(36,225,cs),
(30,216,o),
(69,186,o),
(76,195,cs),
(144,281,o),
(216,233,o),
(300,210,cs),
(389,182,o),
(480,160,o),
(564,302,cs),
(570,311,o),
(531,341,o),
(524,332,cs),
(456,246,o),
(384,294,o),
(300,317,cs)
);
}
);
width = 600;
},
{
layerId = m002;
shapes = (
{
closed = 1;
nodes = (
(211,355,o),
(90,367,o),
(6,225,cs),
(0,216,o),
(69,156,o),
(76,165,cs),
(144,251,o),
(216,193,o),
(300,170,cs),
(389,142,o),
(510,130,o),
(594,272,cs),
(600,281,o),
(531,341,o),
(524,332,cs),
(456,246,o),
(384,304,o),
(300,327,cs)
);
}
);
width = 600;
}
);
unicode = 126;
}
{
glyphname = cent;
layers = (
{
layerId = m01;
shapes = (
{
closed = 1;
nodes = (
(343,-10,o),
(409,12,o),
(485,70,c),
(498,77,o),
(477,117,o),
(464,110,c),
(287,24,o),
(150,81,o),
(150,279,cs),
(150,374,o),
(210,440,o),
(290,440,cs),
(348,440,o),
(388,407,o),
(430,370,cs),
(457,346,o),
(491,449,o),
(470,470,cs),
(450,490,o),
(396,511,o),
(331,511,cs),
(208,511,o),
(55,393,o),
(55,232,cs),
(55,97,o),
(165,-10,o),
(288,-10,cs)
);
},
{
closed = 1;
nodes = (
(320,655,o),
(260,655,o),
(260,640,c),
(260,-150,l),
(260,-165,o),
(320,-165,o),
(320,-150,c),
(320,640,l)
);
}
);
userData = {
com.schriftgestaltung.Glyphs.layer.corners = (
{
name = _segment.bulge;
origin = _corner00;
type = Segment;
},
{
name = _segment.bulge;
origin = _corner01;
type = Segment;
},
{
name = _segment.bulge;
origin = _corner02;
type = Segment;
}
);
};
width = 600;
},
{
layerId = m002;
shapes = (
{
closed = 1;
nodes = (
(355,-9,o),
(426,16,o),
(495,70,c),
(508,77,o),
(477,137,o),
(464,130,c),
(313,61,o),
(190,96,o),
(190,279,cs),
(190,382,o),
(243,415,o),
(286,415,cs),
(329,415,o),
(382,372,o),
(424,345,cs),
(461,322,o),
(502,448,o),
(480,470,cs),
(454,496,o),
(410,509,o),
(360,509,cs),
(236,509,o),
(55,424,o),
(55,232,cs),
(55,81,o),
(170,-9,o),
(291,-9,cs)
);
},
{
closed = 1;
nodes = (
(340,655,o),
(270,655,o),
(270,640,c),
(270,-150,l),
(270,-165,o),
(340,-165,o),
(340,-150,c),
(340,640,l)
);
}
);
userData = {
com.schriftgestaltung.Glyphs.layer.corners = (
{
name = _segment.bulge;
origin = _corner00;
type = Segment;
},
{
name = _segment.bulge;
origin = _corner01;
type = Segment;
},
{
name = _segment.bulge;
origin = _corner02;
type = Segment;
}
);
};
width = 600;
}
);
unicode = 162;
}
{
glyphname = yen;
layers = (
{
hints = (
{
name = _corner.serif;
origin = (1,3);
scale = (0.8,1.1);
type = Corner;
},
{
name = _corner.serif;
options = 1;
origin = (1,4);
scale = (0.8,-1.1);
type = Corner;
},
{
name = _segment.bulge;
origin = (0,38);
type = Segment;
},
{
name = _segment.bulge;
origin = (0,1);
type = Segment;
},
{
name = _segment.bulge;
origin = (1,7);
type = Segment;
},
{
name = _segment.bulge;
origin = (1,1);
type = Segment;
}
);
layerId = m01;
shapes = (
{
closed = 1;
nodes = (
(551,350,l),
(551,410,l),
(427,410,l),
(563,595,ls),
(649,712,o),
(670,701,o),
(712,729,cs),
(720,734,o),
(716,761,o),
(705,761,cs),
(665,760,o),
(580,760,o),
(500,761,cs),
(490,761,o),
(485,734,o),
(494,729,cs),
(541,703,o),
(543,693,o),
(474,587,cs),
(371,429,l),
(262,587,ls),
(189,693,o),
(177,708,o),
(232,729,cs),
(242,733,o),
(236,761,o),
(226,761,cs),
(146,760,o),
(61,760,o),
(1,761,cs),
(-10,761,o),
(-14,734,o),
(-6,729,cs),
(46,701,o),
(50,714,o),
(133,595,cs),
(263,410,l),
(141,410,l),
(141,350,l)
);
},
{
closed = 1;
nodes = (
(141,280,l),
(141,220,l),
(294,220,l),
(294,0,l),
(394,0,l),
(394,220,l),
(551,220,l),
(551,280,l)
);
}
);
userData = {
com.schriftgestaltung.Glyphs.layer.corners = (
{
name = _corner.serif;
origin = _corner00;
scale = "{0.8, 1.1}";
type = Corner;
},
{
name = _corner.serif;
options = 1;
origin = _corner01;
scale = "{0.8, -1.1}";
type = Corner;
},
{
name = _segment.bulge;
origin = _corner02;
type = Segment;
},
{
name = _segment.bulge;
origin = _corner03;
type = Segment;
},
{
name = _segment.bulge;
origin = _corner04;
type = Segment;
},
{
name = _segment.bulge;
origin = _corner05;
type = Segment;
}
);
};
width = 706;
},
{
hints = (
{
name = _segment.bulge;
origin = (1,1);
type = Segment;
},
{
name = _segment.bulge;
origin = (1,7);
type = Segment;
},
{
name = _segment.bulge;
origin = (0,1);
type = Segment;
},
{
name = _segment.bulge;
origin = (0,38);
type = Segment;
},
{
name = _corner.serif;
origin = (1,3);
scale = (0.8,1.1);
type = Corner;
},
{
name = _corner.serif;
options = 1;
origin = (1,4);
scale = (0.8,-1.1);
type = Corner;
}
);
layerId = m002;
shapes = (
{
closed = 1;
nodes = (
(581,310,l),
(581,380,l),
(467,380,l),
(608,595,ls),
(663,679,o),
(695,681,o),
(757,709,c),
(765,714,o),
(761,761,o),
(750,761,cs),
(690,760,o),
(595,760,o),
(505,761,cs),
(495,761,o),
(490,714,o),
(499,710,cs),
(556,683,o),
(557,679,o),
(499,587,cs),
(405,439,l),
(312,587,ls),
(252,682,o),
(227,688,o),
(282,709,cs),
(292,713,o),
(286,761,o),
(276,761,cs),
(196,760,o),
(81,760,o),
(1,761,cs),
(-10,761,o),
(-14,714,o),
(-6,709,c),
(66,681,o),
(83,672,o),
(133,595,cs),
(272,380,l),
(161,380,l),
(161,310,l)
);
},
{
closed = 1;
nodes = (
(161,240,l),
(161,170,l),
(304,170,l),
(304,0,l),
(444,0,l),
(444,170,l),
(581,170,l),
(581,240,l)
);
}
);
userData = {
com.schriftgestaltung.Glyphs.layer.corners = (
{
name = _segment.bulge;
origin = _corner00;
type = Segment;
},
{
name = _segment.bulge;
origin = _corner01;
type = Segment;
},
{
name = _segment.bulge;
origin = _corner02;
type = Segment;
},
{
name = _segment.bulge;
origin = _corner03;
type = Segment;
},
{
name = _corner.serif;
origin = _corner04;
scale = "{0.8, 1.1}";
type = Corner;
},
{
name = _corner.serif;
options = 1;
origin = _corner05;
scale = "{0.8, -1.1}";
type = Corner;
}
);
};
width = 751;
}
);
unicode = 165;
}
{
glyphname = registered;
layers = (
{
hints = (
{
name = _corner.serif;
options = 1;
origin = (0,0);
scale = (0.33928,-0.46651);
type = Corner;
},
{
name = _corner.serif;
options = 1;
origin = (0,4);
scale = (0.25446,-0.4241);
type = Corner;
},
{
name = _corner.serif;
options = 1;
origin = (0,9);
scale = (0.33928,-0.46651);
type = Corner;
},
{
name = _corner.serif;
origin = (0,10);
scale = (0.33928,0.46651);
type = Corner;
}
);
layerId = m01;
shapes = (
{
closed = 1;
nodes = (
(249,430,l),
(249,515,l),
(283,515,l),
(330,430,l),
(386,430,l),
(326,523,l),
(410,548,o),
(383,637,o),
(302,637,cs),
(201,637,l),
(201,430,l)
);
},
{
closed = 1;
nodes = (
(249,612,l),
(287,612,ls),
(345,612,o),
(349,520,o),
(249,540,c)
);
},
{
closed = 1;
nodes = (
(168,326,o),
(77,417,o),
(77,529,cs),
(77,641,o),
(168,732,o),
(280,732,cs),
(392,732,o),
(483,641,o),
(483,529,cs),
(483,417,o),
(392,326,o),
(280,326,cs)
);
},
{
closed = 1;
nodes = (
(413,288,o),
(521,396,o),
(521,529,cs),
(521,662,o),
(413,770,o),
(280,770,cs),
(147,770,o),
(39,662,o),
(39,529,cs),
(39,396,o),
(147,288,o),
(280,288,cs)
);
}
);
userData = {
com.schriftgestaltung.Glyphs.layer.corners = (
{
name = _corner.serif;
options = 1;
origin = _corner00;
scale = "{0.33928, -0.46651}";
type = Corner;
},
{
name = _corner.serif;
options = 1;
origin = _corner01;
scale = "{0.25446, -0.4241}";
type = Corner;
},
{
name = _corner.serif;
options = 1;
origin = _corner02;
scale = "{0.33928, -0.46651}";
type = Corner;
},
{
name = _corner.serif;
origin = _corner03;
scale = "{0.33928, 0.46651}";
type = Corner;
}
);
};
width = 600;
},
{
hints = (
{
name = _corner.serif;
options = 1;
origin = (0,0);
scale = (0.33928,-0.46651);
type = Corner;
},
{
name = _corner.serif;
options = 1;
origin = (0,4);
scale = (0.25446,-0.4241);
type = Corner;
},
{
name = _corner.serif;
options = 1;
origin = (0,9);
scale = (0.33928,-0.46651);
type = Corner;
},
{
name = _corner.serif;
origin = (0,10);
scale = (0.33928,0.46651);
type = Corner;
}
);
layerId = m002;
shapes = (
{
closed = 1;
nodes = (
(249,430,l),
(249,515,l),
(283,515,l),
(330,430,l),
(386,430,l),
(326,523,l),
(410,548,o),
(383,637,o),
(302,637,cs),
(201,637,l),
(201,430,l)
);
},
{
closed = 1;
nodes = (
(249,612,l),
(287,612,ls),
(345,612,o),
(349,520,o),
(249,540,c)
);
},
{
closed = 1;
nodes = (
(168,326,o),
(77,417,o),
(77,529,cs),
(77,641,o),
(168,732,o),
(280,732,cs),
(392,732,o),
(483,641,o),
(483,529,cs),
(483,417,o),
(392,326,o),
(280,326,cs)
);
},
{
closed = 1;
nodes = (
(413,288,o),
(521,396,o),
(521,529,cs),
(521,662,o),
(413,770,o),
(280,770,cs),
(147,770,o),
(39,662,o),
(39,529,cs),
(39,396,o),
(147,288,o),
(280,288,cs)
);
}
);
userData = {
com.schriftgestaltung.Glyphs.layer.corners = (
{
name = _corner.serif;
options = 1;
origin = _corner00;
scale = "{0.33928, -0.46651}";
type = Corner;
},
{
name = _corner.serif;
options = 1;
origin = _corner01;
scale = "{0.25446, -0.4241}";
type = Corner;
},
{
name = _corner.serif;
options = 1;
origin = _corner02;
scale = "{0.33928, -0.46651}";
type = Corner;
},
{
name = _corner.serif;
origin = _corner03;
scale = "{0.33928, 0.46651}";
type = Corner;
}
);
};
width = 600;
}
);
unicode = 174;
}
{
glyphname = paragraph;
layers = (
{
hints = (
{
name = _corner.mitre;
origin = (0,9);
scale = (0.90703,0.90703);
type = Corner;
},
{
name = _corner.serif;
origin = (0,10);
scale = (-0.8,-1.1);
type = Corner;
},
{
name = _corner.mitre;
origin = (0,0);
type = Corner;
},
{
name = _corner.mitre;
options = 1;
origin = (0,1);
scale = (-1,1);
type = Corner;
},
{
name = _corner.mitre;
options = 1;
origin = (1,3);
scale = (-1,1);
type = Corner;
},
{
name = _corner.serif;
options = 1;
origin = (1,0);
scale = (0.8,-1.1);
type = Corner;
},
{
name = _corner.serif;
origin = (1,1);
scale = (0.8,1.1);
type = Corner;
},
{
name = _corner.mitre;
options = 1;
origin = (1,2);
scale = (-1,1);
type = Corner;
}
);
layerId = m01;
shapes = (
{
closed = 1;
nodes = (
(443,-250,l),
(443,760,l),
(327,760,ls),
(197,760,o),
(100,672,o),
(100,551,cs),
(100,431,o),
(197,343,o),
(327,343,cs),
(373,343,l),
(373,-250,l)
);
},
{
closed = 1;
nodes = (
(573,-250,l),
(573,760,l),
(503,760,l),
(503,-250,l)
);
}
);
userData = {
com.schriftgestaltung.Glyphs.layer.corners = (
{
name = _corner.mitre;
origin = _corner00;
scale = "{0.90703, 0.90703}";
type = Corner;
},
{
name = _corner.serif;
origin = _corner01;
scale = "{-0.8, -1.1}";
type = Corner;
},
{
name = _corner.mitre;
origin = _corner02;
type = Corner;
},
{
name = _corner.mitre;
options = 1;
origin = _corner03;
scale = "{-1, 1}";
type = Corner;
},
{
name = _corner.mitre;
options = 1;
origin = _corner04;
scale = "{-1, 1}";
type = Corner;
},
{
name = _corner.serif;
options = 1;
origin = _corner05;
scale = "{0.8, -1.1}";
type = Corner;
},
{
name = _corner.serif;
origin = _corner06;
scale = "{0.8, 1.1}";
type = Corner;
},
{
name = _corner.mitre;
options = 1;
origin = _corner07;
scale = "{-1, 1}";
type = Corner;
}
);
};
width = 756;
},
{
hints = (
{
name = _corner.serif;
origin = (0,10);
scale = (-0.8,-1.1);
type = Corner;
},
{
name = _corner.serif;
options = 1;
origin = (1,0);
scale = (0.8,-1.1);
type = Corner;
},
{
name = _corner.serif;
origin = (1,1);
scale = (0.8,1.1);
type = Corner;
},
{
name = _corner.mitre;
origin = (0,0);
type = Corner;
},
{
name = _corner.mitre;
options = 1;
origin = (0,1);
scale = (-1,1);
type = Corner;
},
{
name = _corner.mitre;
options = 1;
origin = (1,3);
scale = (-1,1);
type = Corner;
},
{
name = _corner.mitre;
options = 1;
origin = (1,2);
scale = (-1,1);
type = Corner;
},
{
name = _corner.mitre;
origin = (0,9);
type = Corner;
}
);
layerId = m002;
shapes = (
{
closed = 1;
nodes = (
(481,-250,l),
(481,760,l),
(350,760,ls),
(207,760,o),
(100,663,o),
(100,530,cs),
(100,397,o),
(207,300,o),
(350,300,cs),
(401,300,l),
(401,-250,l)
);
},
{
closed = 1;
nodes = (
(631,-250,l),
(631,760,l),
(551,760,l),
(551,-250,l)
);
}
);
userData = {
com.schriftgestaltung.Glyphs.layer.corners = (
{
name = _corner.serif;
origin = _corner00;
scale = "{-0.8, -1.1}";
type = Corner;
},
{
name = _corner.serif;
options = 1;
origin = _corner01;
scale = "{0.8, -1.1}";
type = Corner;
},
{
name = _corner.serif;
origin = _corner02;
scale = "{0.8, 1.1}";
type = Corner;
},
{
name = _corner.mitre;
origin = _corner03;
type = Corner;
},
{
name = _corner.mitre;
options = 1;
origin = _corner04;
scale = "{-1, 1}";
type = Corner;
},
{
name = _corner.mitre;
options = 1;
origin = _corner05;
scale = "{-1, 1}";
type = Corner;
},
{
name = _corner.mitre;
options = 1;
origin = _corner06;
scale = "{-1, 1}";
type = Corner;
},
{
name = _corner.mitre;
origin = _corner07;
type = Corner;
}
);
};
width = 809;
}
);
unicode = 182;
}
{
glyphname = multiply;
layers = (
{
layerId = m01;
shapes = (
{
closed = 1;
nodes = (
(425,407,o),
(389,443,o),
(378,432,c),
(233,305,l),
(88,432,l),
(77,443,o),
(41,407,o),
(52,396,c),
(180,252,l),
(53,107,l),
(42,96,o),
(78,60,o),
(89,71,c),
(233,199,l),
(377,71,l),
(387,60,o),
(424,96,o),
(414,107,c),
(286,252,l),
(414,396,l)
);
}
);
userData = {
com.schriftgestaltung.Glyphs.layer.corners = (
{
name = _segment.bulge;
origin = _corner00;
type = Segment;
},
{
name = _segment.bulge;
origin = _corner01;
type = Segment;
},
{
name = _segment.bulge;
origin = _corner02;
type = Segment;
},
{
name = _segment.bulge;
origin = _corner03;
type = Segment;
}
);
};
width = 466;
},
{
layerId = m002;
shapes = (
{
closed = 1;
nodes = (
(492,384,o),
(435,441,o),
(424,430,c),
(311,327,l),
(198,430,l),
(187,441,o),
(130,384,o),
(141,373,c),
(244,260,l),
(141,147,l),
(130,136,o),
(187,79,o),
(198,90,c),
(311,193,l),
(424,90,l),
(435,79,o),
(492,136,o),
(481,147,c),
(378,260,l),
(481,373,l)
);
}
);
userData = {
com.schriftgestaltung.Glyphs.layer.corners = (
{
name = _segment.bulge;
origin = _corner00;
type = Segment;
},
{
name = _segment.bulge;
origin = _corner01;
type = Segment;
},
{
name = _segment.bulge;
origin = _corner02;
type = Segment;
},
{
name = _segment.bulge;
origin = _corner03;
type = Segment;
}
);
};
width = 600;
}
);
unicode = 215;
}
{
glyphname = germandbls;
layers = (
{
anchors = (
{
name = bottom;
pos = (299,0);
},
{
name = top;
pos = (299,800);
}
);
background = {
shapes = (
{
closed = 1;
nodes = (
(471,700,o),
(396,761,o),
(321,761,cs),
(240,761,o),
(148,714,o),
(118,599,cs),
(114,583,o),
(111,567,o),
(109,549,cs),
(103,490,o),
(101,492,o),
(40,458,cs),
(33,454,o),
(37,430,o),
(46,430,cs),
(108,430,l,{
name = _corner00;
}),
(108,0,l,{
name = _corner01;
}),
(203,0,l,{
name = _corner02;
}),
(193,165,l),
(193,589,ls),
(193,667,o),
(238,696,o),
(283,696,cs),
(342,696,o),
(387,657,o),
(387,604,cs),
(387,576,o),
(374,545,o),
(346,514,cs),
(210,366,o),
(263,286,o),
(341,239,cs),
(432,184,o),
(472,170,o),
(472,115,cs),
(472,35,o),
(355,4,o),
(283,118,cs),
(278,127,o),
(244,119,o),
(247,105,cs),
(265,15,l),
(370,-36,o),
(558,-8,o),
(558,137,cs),
(558,195,o),
(519,237,o),
(473,264,cs),
(310,363,o),
(313,395,o),
(415,508,cs),
(451,548,o),
(471,575,o),
(471,617,cs)
);
}
);
};
hints = (
{
name = _corner.serif;
origin = (0,13);
scale = (0.7,1);
type = Corner;
},
{
name = _corner.mitre;
origin = (0,14);
type = Corner;
},
{
name = _corner.mitre;
origin = (0,12);
type = Corner;
}
);
layerId = m01;
shapes = (
{
closed = 1;
nodes = (
(471,710,o),
(396,771,o),
(321,771,cs),
(240,771,o),
(157,724,o),
(127,609,cs),
(95,488,o),
(116,501,o),
(40,458,cs),
(33,454,o),
(37,430,o),
(46,430,cs),
(108,430,l),
(108,0,l),
(203,0,l),
(193,165,l),
(193,599,ls),
(193,677,o),
(238,696,o),
(283,696,cs),
(368,696,o),
(428,609,o),
(346,514,cs),
(210,356,o),
(263,286,o),
(341,239,cs),
(432,184,o),
(467,170,o),
(467,115,cs),
(467,35,o),
(355,4,o),
(283,118,cs),
(278,127,o),
(244,119,o),
(247,105,cs),
(265,15,l),
(370,-36,o),
(558,-8,o),
(558,137,cs),
(558,195,o),
(519,237,o),
(473,264,cs),
(310,363,o),
(313,395,o),
(415,508,cs),
(451,548,o),
(471,585,o),
(471,627,cs)
);
}
);
userData = {
com.schriftgestaltung.Glyphs.layer.corners = (
{
name = _corner.serif;
origin = _corner00;
scale = "{0.7, 1}";
type = Corner;
},
{
name = _corner.mitre;
origin = _corner01;
type = Corner;
},
{
name = _corner.mitre;
origin = _corner02;
type = Corner;
}
);
};
width = 598;
},
{
anchors = (
{
name = bottom;
pos = (350,0);
},
{
name = top;
pos = (350,800);
}
);
background = {
shapes = (
{
closed = 1;
nodes = (
(466,710,o),
(391,771,o),
(316,771,cs),
(235,771,o),
(152,724,o),
(122,609,cs),
(90,488,o),
(111,501,o),
(35,458,cs),
(28,454,o),
(32,430,o),
(41,430,cs),
(103,430,l,{
name = _corner03;
}),
(103,0,l,{
name = _corner04;
}),
(198,0,l,{
name = _corner05;
}),
(188,165,l),
(188,599,ls),
(188,677,o),
(233,696,o),
(278,696,cs),
(363,696,o),
(423,609,o),
(341,514,cs),
(205,356,o),
(258,286,o),
(336,239,cs),
(427,184,o),
(462,170,o),
(462,115,cs),
(462,35,o),
(350,4,o),
(278,118,cs),
(273,127,o),
(239,119,o),
(242,105,cs),
(260,15,l),
(365,-36,o),
(553,-8,o),
(553,137,cs),
(553,195,o),
(514,237,o),
(468,264,cs),
(305,363,o),
(308,395,o),
(410,508,cs),
(446,548,o),
(466,585,o),
(466,627,cs)
);
}
);
};
hints = (
{
name = _corner.serif;
origin = (0,13);
scale = (0.7,1);
type = Corner;
},
{
name = _corner.mitre;
origin = (0,14);
type = Corner;
},
{
name = _corner.mitre;
origin = (0,12);
scale = (0.3,0.3);
type = Corner;
}
);
layerId = m002;
shapes = (
{
closed = 1;
nodes = (
(552,718,o),
(504,809,o),
(384,809,cs),
(288,809,o),
(173,746,o),
(132,612,cs),
(93,483,o),
(104,488,o),
(47,460,cs),
(34,453,o),
(42,390,o),
(57,390,cs),
(108,390,l),
(108,0,l),
(243,0,l),
(243,166,l),
(243,579,ls),
(243,662,o),
(256,701,o),
(330,701,cs),
(425,701,o),
(451,584,o),
(389,493,cs),
(316,386,o),
(300,326,o),
(437,233,cs),
(489,198,o),
(540,163,o),
(533,115,cs),
(525,55,o),
(425,24,o),
(366,154,cs),
(359,168,o),
(304,159,o),
(308,135,cs),
(325,25,l),
(464,-44,o),
(660,-5,o),
(660,152,cs),
(660,204,o),
(631,252,o),
(582,290,cs),
(486,365,o),
(394,394,o),
(484,499,cs),
(515,535,o),
(552,579,o),
(552,654,cs)
);
}
);
userData = {
com.schriftgestaltung.Glyphs.layer.corners = (
{
name = _corner.serif;
origin = _corner00;
scale = "{0.7, 1}";
type = Corner;
},
{
name = _corner.mitre;
origin = _corner01;
type = Corner;
},
{
name = _corner.mitre;
origin = _corner02;
scale = "{0.3, 0.3}";
type = Corner;
}
);
};
width = 700;
}
);
metricRight = "=s";
unicode = 223;
}
{
glyphname = thorn;
layers = (
{
anchors = (
{
name = bottom;
pos = (299,0);
},
{
name = top;
pos = (299,500);
}
);
hints = (
{
name = _segment.bulge;
origin = (1,6);
type = Segment;
},
{
name = _corner.serif;
origin = (0,3);
scale = (0.7,1);
type = Corner;
},
{
name = _corner.serif;
options = 1;
origin = (0,4);
scale = (1,-1.1);
type = Corner;
},
{
name = _corner.mitre;
origin = (0,8);
type = Corner;
},
{
name = _corner.mitre;
origin = (0,11);
type = Corner;
}
);
layerId = m01;
shapes = (
{
closed = 1;
nodes = (
(90,697,o),
(111,610,o),
(111,435,cs),
(111,-250,l),
(196,-250,l),
(196,530,ls),
(196,625,o),
(201,720,o),
(206,815,c),
(160,798,o),
(121,781,o),
(75,770,c)
);
},
{
closed = 1;
nodes = (
(545,400,o),
(485,510,o),
(351,510,cs),
(280,510,o),
(199,467,o),
(120,360,c),
(159,350,l),
(209,405,o),
(262,431,o),
(310,431,cs),
(414,431,o),
(455,353,o),
(455,221,cs),
(455,100,o),
(384,57,o),
(308,57,cs),
(254,57,o),
(199,78,o),
(165,110,c),
(140,25,l),
(165,10,o),
(219,-11,o),
(294,-11,cs),
(407,-11,o),
(545,107,o),
(545,268,cs)
);
}
);
userData = {
com.schriftgestaltung.Glyphs.layer.corners = (
{
name = _segment.bulge;
origin = _corner00;
type = Segment;
},
{
name = _corner.serif;
origin = _corner01;
scale = "{0.7, 1}";
type = Corner;
},
{
name = _corner.serif;
options = 1;
origin = _corner02;
scale = "{1, -1.1}";
type = Corner;
},
{
name = _corner.mitre;
origin = _corner03;
type = Corner;
},
{
name = _corner.mitre;
origin = _corner04;
type = Corner;
}
);
};
width = 598;
},
{
anchors = (
{
name = bottom;
pos = (318,0);
},
{
name = top;
pos = (318,500);
}
);
hints = (
{
name = _corner.serif;
origin = (0,4);
scale = (1,-1.1);
type = Corner;
},
{
name = _corner.serif;
origin = (0,3);
scale = (0.7,1);
type = Corner;
},
{
name = _corner.mitre;
origin = (0,8);
type = Corner;
},
{
name = _corner.mitre;
origin = (0,11);
type = Corner;
},
{
name = _segment.bulge;
origin = (1,6);
type = Segment;
}
);
layerId = m002;
shapes = (
{
closed = 1;
nodes = (
(92,637,o),
(115,570,o),
(112,335,cs),
(108,-250,l),
(233,-250,l),
(233,530,ls),
(233,625,o),
(238,720,o),
(243,815,c),
(197,798,o),
(113,772,o),
(67,760,c)
);
},
{
closed = 1;
nodes = (
(582,423,o),
(500,508,o),
(402,508,cs),
(318,508,o),
(222,445,o),
(157,310,c),
(196,310,l),
(252,376,o),
(299,402,o),
(337,402,cs),
(405,402,o),
(447,340,o),
(447,242,cs),
(447,145,o),
(423,68,o),
(344,68,cs),
(285,68,o),
(238,116,o),
(202,150,c),
(177,5,l),
(213,-4,o),
(249,-8,o),
(284,-8,cs),
(445,-8,o),
(582,84,o),
(582,268,cs)
);
}
);
userData = {
com.schriftgestaltung.Glyphs.layer.corners = (
{
name = _corner.serif;
origin = _corner00;
scale = "{1, -1.1}";
type = Corner;
},
{
name = _corner.serif;
origin = _corner01;
scale = "{0.7, 1}";
type = Corner;
},
{
name = _corner.mitre;
origin = _corner02;
type = Corner;
},
{
name = _corner.mitre;
origin = _corner03;
type = Corner;
},
{
name = _segment.bulge;
origin = _corner04;
type = Segment;
}
);
};
width = 635;
}
);
metricLeft = "=h";
metricRight = "=p";
unicode = 254;
}
{
glyphname = dcroat;
layers = (
{
hints = (
{
name = _segment.bulge;
origin = (0,0);
type = Segment;
},
{
name = _segment.bulge;
origin = (0,2);
type = Segment;
}
);
layerId = m01;
shapes = (
{
ref = d;
},
{
closed = 1;
nodes = (
(322,590,l,{
name = _corner00;
}),
(622,590,l),
(622,650,l,{
name = _corner01;
}),
(472,645,l),
(322,650,l)
);
}
);
userData = {
com.schriftgestaltung.Glyphs.layer.corners = (
{
name = _segment.bulge;
origin = _corner00;
type = Segment;
},
{
name = _segment.bulge;
origin = _corner01;
type = Segment;
}
);
};
width = 628;
},
{
hints = (
{
name = _segment.bulge;
origin = (0,0);
type = Segment;
},
{
name = _segment.bulge;
origin = (0,2);
type = Segment;
}
);
layerId = m002;
shapes = (
{
ref = d;
},
{
closed = 1;
nodes = (
(282,590,l,{
name = _corner00;
}),
(642,590,l),
(642,670,l,{
name = _corner01;
}),
(462,665,l),
(282,670,l)
);
}
);
userData = {
com.schriftgestaltung.Glyphs.layer.corners = (
{
name = _segment.bulge;
origin = _corner00;
type = Segment;
},
{
name = _segment.bulge;
origin = _corner01;
type = Segment;
}
);
};
width = 600;
}
);
unicode = 273;
}
{
glyphname = Hbar;
layers = (
{
layerId = m01;
shapes = (
{
ref = H;
},
{
closed = 1;
nodes = (
(83,520,l,{
name = _corner00;
}),
(823,520,l),
(823,570,l,{
name = _corner01;
}),
(83,570,l)
);
}
);
userData = {
com.schriftgestaltung.Glyphs.layer.corners = (
{
name = _segment.bulge;
origin = _corner00;
type = Segment;
},
{
name = _segment.bulge;
origin = _corner01;
type = Segment;
}
);
};
width = 906;
},
{
layerId = m002;
shapes = (
{
ref = H;
},
{
closed = 1;
nodes = (
(41,520,l,{
name = _corner00;
}),
(787,520,l),
(787,580,l,{
name = _corner01;
}),
(41,580,l)
);
}
);
userData = {
com.schriftgestaltung.Glyphs.layer.corners = (
{
name = _segment.bulge;
origin = _corner00;
type = Segment;
},
{
name = _segment.bulge;
origin = _corner01;
type = Segment;
}
);
};
width = 828;
}
);
metricLeft = "=H";
metricRight = "=H";
unicode = 294;
}
{
glyphname = idotless;
layers = (
{
anchors = (
{
name = bottom;
pos = (175,0);
},
{
name = ogonek;
pos = (288,0);
},
{
name = top;
pos = (137,500);
}
);
layerId = m01;
shapes = (
{
closed = 1;
nodes = (
(184,0,l),
(204,0,o),
(220,-1,o),
(284,-1,c),
(294,-1,o),
(299,24,o),
(290,28,c),
(219,63,o),
(212,60,o),
(212,125,c),
(212,504,l),
(203,511,l),
(184,504,o),
(168,497,o),
(108,472,c),
(98,469,o),
(61,456,o),
(51,453,c),
(44,450,o),
(44,421,o),
(54,418,c),
(116,396,o),
(126,391,o),
(127,356,c),
(127,125,l),
(127,60,o),
(121,63,o),
(58,28,c),
(51,24,o),
(55,-1,o),
(64,-1,c),
(120,-1,o),
(134,0,o),
(152,0,c)
);
}
);
userData = {
com.schriftgestaltung.Glyphs.layer.corners = (
{
name = _corner.serif;
options = 1;
origin = _corner00;
scale = "{0.8, -1}";
type = Corner;
},
{
name = _corner.mitre;
origin = _corner01;
type = Corner;
},
{
name = _corner.beak;
options = 1;
origin = _corner02;
scale = "{0.7, -1}";
type = Corner;
},
{
name = _corner.serif;
origin = _corner03;
scale = "{0.7, 1}";
type = Corner;
}
);
};
width = 335;
},
{
anchors = (
{
name = bottom;
pos = (176,0);
},
{
name = ogonek;
pos = (299,0);
},
{
name = top;
pos = (158,500);
}
);
layerId = m002;
shapes = (
{
closed = 1;
nodes = (
(205,0,l),
(225,0,o),
(241,-1,o),
(297,-1,c),
(307,-1,o),
(316,39,o),
(307,44,c),
(244,78,o),
(233,80,o),
(233,145,c),
(233,494,l),
(214,508,l),
(190,499,o),
(157,488,o),
(91,464,c),
(61,453,o),
(43,449,o),
(13,440,c),
(6,438,o),
(2,397,o),
(12,393,c),
(72,369,o),
(107,373,o),
(108,338,c),
(108,145,l),
(108,80,o),
(98,78,o),
(43,44,c),
(35,39,o),
(43,-1,o),
(52,-1,c),
(101,-1,o),
(115,0,o),
(133,0,c)
);
}
);
userData = {
com.schriftgestaltung.Glyphs.layer.corners = (
{
name = _corner.serif;
options = 1;
origin = _corner00;
scale = "{0.8, -1}";
type = Corner;
},
{
name = _corner.mitre;
origin = _corner01;
type = Corner;
},
{
name = _corner.beak;
options = 1;
origin = _corner02;
scale = "{0.7, -1}";
type = Corner;
},
{
name = _corner.serif;
origin = _corner03;
scale = "{0.7, 1}";
type = Corner;
}
);
};
width = 351;
}
);
metricLeft = "=i";
metricRight = "=i";
unicode = 305;
}
{
glyphname = OE;
layers = (
{
anchors = (
{
name = bottom;
pos = (562,0);
},
{
name = top;
pos = (562,760);
}
);
layerId = m01;
shapes = (
{
closed = 1;
nodes = (
(1036,0,l),
(1048,10,l),
(1082,179,l),
(1088,193,o),
(1055,207,o),
(1049,193,c),
(982,83,o),
(968,55,o),
(826,55,cs),
(699,55,o),
(681,60,o),
(681,119,cs),
(681,365,l),
(815,365,l),
(880,365,o),
(877,359,o),
(912,296,c),
(916,289,o),
(941,293,o),
(941,302,c),
(941,358,o),
(940,372,o),
(940,393,cs),
(940,413,o),
(941,427,o),
(941,483,c),
(941,492,o),
(916,496,o),
(912,489,c),
(877,426,o),
(880,420,o),
(815,420,c),
(681,420,l),
(681,640,ls),
(681,699,o),
(699,704,o),
(826,704,cs),
(948,704,o),
(952,686,o),
(1019,576,c),
(1025,562,o),
(1058,576,o),
(1052,590,c),
(1027,760,l),
(1016,769,l),
(876,760,l),
(581,760,l),
(581,0,l)
);
},
{
closed = 1;
nodes = (
(249,760,o),
(70,597,o),
(70,365,cs),
(70,147,o),
(241,0,o),
(466,0,cs),
(681,0,l),
(681,760,l),
(494,760,ls)
);
},
{
closed = 1;
nodes = (
(581,75,l),
(571,63,l),
(441,42,o),
(177,75,o),
(177,406,cs),
(177,670,o),
(397,727,o),
(571,697,c),
(581,685,l)
);
}
);
userData = {
com.schriftgestaltung.Glyphs.layer.corners = (
{
name = _corner.mitre;
options = 1;
origin = _corner00;
scale = "{1, -1}";
type = Corner;
},
{
name = _segment.bulge;
origin = _corner01;
type = Segment;
},
{
name = _segment.bulge;
origin = _corner02;
type = Segment;
},
{
name = _corner.mitre;
origin = _corner03;
type = Corner;
},
{
name = _corner.mitre;
origin = _corner04;
type = Corner;
},
{
name = _corner.mitre;
origin = _corner05;
type = Corner;
}
);
};
width = 1153;
},
{
anchors = (
{
name = bottom;
pos = (591,0);
},
{
name = top;
pos = (591,760);
}
);
layerId = m002;
shapes = (
{
closed = 1;
nodes = (
(1086,-1,l),
(1111,19,l),
(1152,189,l),
(1158,203,o),
(1100,227,o),
(1094,213,c),
(1037,103,o),
(958,75,o),
(876,75,cs),
(749,75,o),
(751,85,o),
(751,144,cs),
(751,355,l),
(855,355,ls),
(920,355,o),
(932,342,o),
(961,271,cs),
(966,258,o),
(1013,271,o),
(1011,283,cs),
(1006,316,o),
(1005,344,o),
(1005,390,cs),
(1005,436,o),
(1006,464,o),
(1011,497,cs),
(1013,509,o),
(965,518,o),
(961,509,cs),
(932,438,o),
(920,425,o),
(855,425,cs),
(751,425,l),
(751,615,ls),
(751,674,o),
(749,684,o),
(876,684,cs),
(948,684,o),
(1007,676,o),
(1064,566,c),
(1068,551,o),
(1126,565,o),
(1122,580,c),
(1099,750,l),
(1076,769,l),
(946,760,l),
(601,760,l),
(601,-1,l)
);
},
{
closed = 1;
nodes = (
(229,760,o),
(50,597,o),
(50,365,cs),
(50,147,o),
(221,0,o),
(476,0,cs),
(751,0,l),
(751,760,l),
(504,760,ls)
);
},
{
closed = 1;
nodes = (
(601,90,l),
(591,78,l),
(453,57,o),
(217,84,o),
(217,396,cs),
(217,669,o),
(445,707,o),
(591,677,c),
(601,665,l)
);
}
);
userData = {
com.schriftgestaltung.Glyphs.layer.corners = (
{
name = _corner.mitre;
options = 1;
origin = _corner00;
scale = "{1, -1}";
type = Corner;
},
{
name = _segment.bulge;
origin = _corner01;
type = Segment;
},
{
name = _segment.bulge;
origin = _corner02;
type = Segment;
},
{
name = _corner.mitre;
origin = _corner03;
type = Corner;
},
{
name = _corner.mitre;
origin = _corner04;
scale = "{0.5, 0.5}";
type = Corner;
},
{
name = _corner.mitre;
origin = _corner05;
scale = "{0.5, 0.5}";
type = Corner;
}
);
};
width = 1182;
}
);
metricLeft = "=O";
metricRight = "=E";
unicode = 338;
}
{
glyphname = rcaron;
layers = (
{
hints = (
{
name = _corner.serif;
options = 1;
origin = (0,0);
scale = (1.1,-1.05);
type = Corner;
},
{
name = _corner.mitre;
origin = (0,11);
type = Corner;
},
{
name = _corner.beak;
options = 1;
origin = (0,14);
scale = (0.8,-1);
type = Corner;
},
{
name = _corner.serif;
origin = (0,15);
scale = (0.8,1);
type = Corner;
}
);
layerId = m01;
shapes = (
{
closed = 1;
nodes = (
(208,0,l),
(208,304,ls),
(208,397,o),
(261,424,o),
(366,392,cs),
(382,387,o),
(419,484,o),
(381,497,cs),
(280,533,o),
(272,497,o),
(208,407,c),
(208,520,l),
(178,508,o),
(154,497,o),
(123,485,c),
(123,0,l)
);
},
{
closed = 1;
nodes = (
(273,608,ls),
(249,582,o),
(238,583,o),
(215,608,cs),
(124,710,ls),
(112,724,o),
(141,758,o),
(154,750,cs),
(244,695,l),
(334,750,ls),
(347,758,o),
(376,723,o),
(364,710,cs)
);
}
);
userData = {
com.schriftgestaltung.Glyphs.layer.corners = (
{
name = _corner.serif;
options = 1;
origin = _corner00;
scale = "{1.1, -1.05}";
type = Corner;
},
{
name = _corner.mitre;
origin = _corner01;
type = Corner;
},
{
name = _corner.beak;
options = 1;
origin = _corner02;
scale = "{0.8, -1}";
type = Corner;
},
{
name = _corner.serif;
origin = _corner03;
scale = "{0.8, 1}";
type = Corner;
}
);
};
width = 423;
},
{
hints = (
{
name = _corner.serif;
options = 1;
origin = (0,0);
scale = (0.9,-1);
type = Corner;
},
{
name = _corner.mitre;
origin = (0,11);
type = Corner;
},
{
name = _corner.beak;
options = 1;
origin = (0,14);
scale = (0.7,-1);
type = Corner;
},
{
name = _corner.serif;
origin = (0,15);
scale = (0.7,1);
type = Corner;
}
);
layerId = m002;
shapes = (
{
closed = 1;
nodes = (
(233,0,l),
(233,244,ls),
(233,337,o),
(261,364,o),
(366,332,cs),
(382,327,o),
(437,478,o),
(372,500,cs),
(317,519,o),
(301,491,o),
(233,386,c),
(233,515,l),
(203,503,o),
(139,482,o),
(108,470,c),
(108,0,l)
);
},
{
closed = 1;
nodes = (
(273,576,ls),
(249,550,o),
(238,551,o),
(215,576,cs),
(124,678,ls),
(112,692,o),
(160,745,o),
(174,738,cs),
(244,703,l),
(314,738,ls),
(328,745,o),
(376,691,o),
(364,678,cs)
);
}
);
userData = {
com.schriftgestaltung.Glyphs.layer.corners = (
{
name = _corner.serif;
options = 1;
origin = _corner00;
scale = "{0.9, -1}";
type = Corner;
},
{
name = _corner.mitre;
origin = _corner01;
type = Corner;
},
{
name = _corner.beak;
options = 1;
origin = _corner02;
scale = "{0.7, -1}";
type = Corner;
},
{
name = _corner.serif;
origin = _corner03;
scale = "{0.7, 1}";
type = Corner;
}
);
};
width = 433;
}
);
metricLeft = "=r";
metricRight = "=r";
unicode = 345;
}
{
glyphname = jdotless;
layers = (
{
anchors = (
{
name = bottom;
pos = (166,-250);
},
{
name = top;
pos = (166,500);
}
);
hints = (
{
name = _segment.bulge;
origin = (0,0);
type = Segment;
},
{
name = _corner.mitre;
origin = (0,4);
type = Corner;
},
{
name = _corner.beak;
options = 1;
origin = (0,7);
scale = (0.7,-1);
type = Corner;
}
);
layerId = m01;
shapes = (
{
closed = 1;
nodes = (
(46,-260,l),
(171,-193,o),
(212,-138,o),
(212,-27,cs),
(212,515,l),
(182,503,o),
(158,492,o),
(127,480,c),
(127,-29,ls),
(127,-124,o),
(112,-167,o),
(25,-222,c)
);
}
);
userData = {
com.schriftgestaltung.Glyphs.layer.corners = (
{
name = _segment.bulge;
origin = _corner00;
type = Segment;
},
{
name = _corner.mitre;
origin = _corner01;
type = Corner;
},
{
name = _corner.beak;
options = 1;
origin = _corner02;
scale = "{0.7, -1}";
type = Corner;
}
);
};
width = 309;
},
{
anchors = (
{
name = bottom;
pos = (164,-250);
},
{
name = top;
pos = (164,500);
}
);
hints = (
{
name = _segment.bulge;
origin = (0,0);
type = Segment;
},
{
name = _corner.mitre;
origin = (0,4);
type = Corner;
},
{
name = _corner.beak;
options = 1;
origin = (0,7);
scale = (0.7,-1);
type = Corner;
}
);
layerId = m002;
shapes = (
{
closed = 1;
nodes = (
(43,-260,l),
(168,-193,o),
(234,-138,o),
(234,-27,cs),
(234,515,l),
(204,503,o),
(145,486,o),
(104,470,c),
(104,-9,ls),
(104,-104,o),
(89,-147,o),
(2,-202,c)
);
}
);
userData = {
com.schriftgestaltung.Glyphs.layer.corners = (
{
name = _segment.bulge;
origin = _corner00;
type = Segment;
},
{
name = _corner.mitre;
origin = _corner01;
type = Corner;
},
{
name = _corner.beak;
options = 1;
origin = _corner02;
scale = "{0.7, -1}";
type = Corner;
}
);
};
width = 328;
}
);
metricLeft = "=j";
unicode = 567;
}
{
glyphname = macroncomb;
layers = (
{
anchors = (
{
name = _top;
pos = (211,500);
},
{
name = top;
pos = (211,700);
}
);
layerId = m01;
shapes = (
{
closed = 1;
nodes = (
(376,630,o),
(376,700,o),
(361,700,c),
(61,700,l),
(46,700,o),
(46,630,o),
(61,630,c),
(211,635,l),
(361,630,l)
);
}
);
userData = {
com.schriftgestaltung.Glyphs.layer.corners = (
{
name = _segment.bulge;
origin = _corner00;
scale = "{-1, -1}";
type = Segment;
},
{
name = _segment.bulge;
origin = _corner01;
scale = "{-1, -1}";
type = Segment;
}
);
};
width = 422;
},
{
anchors = (
{
name = _top;
pos = (231,500);
},
{
name = top;
pos = (231,710);
}
);
layerId = m002;
shapes = (
{
closed = 1;
nodes = (
(416,620,o),
(416,710,o),
(401,710,c),
(61,710,l),
(46,710,o),
(46,620,o),
(61,620,c),
(231,625,l),
(401,620,l)
);
}
);
userData = {
com.schriftgestaltung.Glyphs.layer.corners = (
{
name = _segment.bulge;
origin = _corner00;
scale = "{-1, -1}";
type = Segment;
},
{
name = _segment.bulge;
origin = _corner01;
scale = "{-1, -1}";
type = Segment;
}
);
};
width = 462;
}
);
unicode = 772;
}
{
glyphname = brevecomb;
layers = (
{
anchors = (
{
name = _top;
pos = (231,500);
},
{
name = top;
pos = (231,763);
}
);
layerId = m01;
shapes = (
{
closed = 1;
nodes = (
(71,754,o),
(105,769,o),
(115,754,cs),
(188,650,o),
(272,650,o),
(345,754,cs),
(355,769,o),
(389,754,o),
(385,739,cs),
(338,550,o),
(122,550,o),
(75,739,cs)
);
}
);
width = 460;
},
{
anchors = (
{
name = _top;
pos = (240,500);
},
{
name = top;
pos = (240,763);
}
);
layerId = m002;
shapes = (
{
closed = 1;
nodes = (
(66,744,o),
(122,765,o),
(130,749,cs),
(183,645,o),
(297,645,o),
(350,749,cs),
(358,765,o),
(414,744,o),
(410,729,cs),
(353,500,o),
(127,500,o),
(70,729,cs)
);
}
);
width = 480;
}
);
unicode = 774;
}
{
glyphname = caroncomb;
layers = (
{
anchors = (
{
name = _top;
pos = (193,500);
},
{
name = top;
pos = (193,760);
}
);
background = {
shapes = (
{
closed = 1;
nodes = (
(70,738,o),
(98,764,o),
(106,759,cs),
(222,689,l),
(338,759,ls),
(346,764,o),
(374,738,o),
(362,724,cs),
(251,602,ls),
(227,576,o),
(216,577,o),
(193,602,cs),
(82,724,ls)
);
}
);
};
layerId = m01;
shapes = (
{
pos = (0,1343);
ref = circumflexcomb;
scale = (1,-1);
}
);
width = 386;
},
{
anchors = (
{
name = _top;
pos = (233,500);
},
{
name = top;
pos = (233,764);
}
);
layerId = m002;
shapes = (
{
pos = (0,1343);
ref = circumflexcomb;
scale = (1,-1);
}
);
width = 465;
}
);
unicode = 780;
}
{
glyphname = cedillacomb;
layers = (
{
anchors = (
{
name = _bottom;
pos = (149,0);
},
{
name = bottom;
pos = (149,-263);
}
);
background = {
shapes = (
{
closed = 1;
nodes = (
(64,-226,o),
(20,-278,o),
(31,-288,cs),
(42,-297,o),
(83,-307,o),
(119,-307,cs),
(179,-307,o),
(267,-247,o),
(271,-186,cs),
(274,-128,o),
(227,-82,o),
(157,-82,c),
(93,-144,l),
(163,-140,o),
(197,-154,o),
(196,-198,cs),
(194,-236,o),
(172,-247,o),
(152,-248,cs),
(131,-249,o),
(100,-239,o),
(80,-232,cs)
);
}
);
};
layerId = m01;
shapes = (
{
closed = 1;
nodes = (
(58,-192,o),
(34,-230,o),
(47,-238,c),
(186,-324,o),
(319,-162,o),
(223,-86,cs),
(186,-57,ls),
(163,-39,o),
(184,-19,o),
(224,8,c),
(168,13,l),
(116,-24,o),
(69,-77,o),
(115,-113,cs),
(161,-149,ls),
(204,-183,o),
(152,-249,o),
(71,-200,c)
);
}
);
userData = {
com.schriftgestaltung.Glyphs.layer.corners = (
{
name = _segment.bulge;
origin = _corner00;
type = Segment;
}
);
};
width = 301;
},
{
anchors = (
{
name = _bottom;
pos = (154,0);
},
{
name = bottom;
pos = (154,-276);
}
);
layerId = m002;
shapes = (
{
closed = 1;
nodes = (
(60,-202,o),
(41,-250,o),
(55,-256,c),
(187,-333,o),
(324,-171,o),
(221,-90,cs),
(184,-61,ls),
(159,-41,o),
(178,-19,o),
(211,4,c),
(150,8,l),
(100,-29,o),
(47,-87,o),
(95,-124,cs),
(135,-155,ls),
(181,-191,o),
(146,-248,o),
(74,-208,c)
);
}
);
userData = {
com.schriftgestaltung.Glyphs.layer.corners = (
{
name = _segment.bulge;
origin = _corner00;
type = Segment;
}
);
};
width = 307;
}
);
unicode = 807;
}
{
glyphname = alpha;
layers = (
{
anchors = (
{
name = top;
pos = (300,500);
}
);
hints = (
{
name = _corner.mitre;
origin = (0,1);
type = Corner;
},
{
name = _corner.beak;
options = 1;
origin = (0,2);
scale = (0.7,-1);
type = Corner;
},
{
name = _corner.mitre;
origin = (0,3);
type = Corner;
},
{
name = _segment.bulge;
origin = (1,6);
type = Segment;
}
);
layerId = m01;
shapes = (
{
closed = 1;
nodes = (
(431,480,l),
(431,-10,l),
(516,25,l),
(518,505,l)
);
},
{
closed = 1;
nodes = (
(55,100,o),
(115,-10,o),
(249,-10,cs),
(320,-10,o),
(401,33,o),
(480,140,c),
(441,150,l),
(391,95,o),
(338,69,o),
(290,69,cs),
(186,69,o),
(145,147,o),
(145,279,cs),
(145,400,o),
(216,443,o),
(292,443,cs),
(346,443,o),
(401,422,o),
(435,390,c),
(460,475,l),
(435,490,o),
(381,511,o),
(306,511,cs),
(193,511,o),
(55,393,o),
(55,232,cs)
);
}
);
userData = {
com.schriftgestaltung.Glyphs.layer.corners = (
{
name = _corner.mitre;
origin = _corner00;
type = Corner;
},
{
name = _corner.beak;
options = 1;
origin = _corner01;
scale = "{0.7, -1}";
type = Corner;
},
{
name = _corner.mitre;
origin = _corner02;
type = Corner;
},
{
name = _segment.bulge;
origin = _corner03;
type = Segment;
}
);
};
width = 600;
},
{
anchors = (
{
name = top;
pos = (300,500);
}
);
hints = (
{
name = _corner.mitre;
origin = (0,1);
type = Corner;
},
{
name = _corner.beak;
options = 1;
origin = (0,2);
scale = (0.8,-1);
type = Corner;
},
{
name = _corner.mitre;
origin = (0,3);
type = Corner;
},
{
name = _segment.bulge;
origin = (1,6);
type = Segment;
}
);
layerId = m002;
shapes = (
{
closed = 1;
nodes = (
(398,480,l),
(398,-20,l),
(516,25,l),
(524,510,l)
);
},
{
closed = 1;
nodes = (
(51,77,o),
(133,-8,o),
(231,-8,cs),
(315,-8,o),
(411,55,o),
(476,190,c),
(437,190,l),
(381,124,o),
(334,98,o),
(296,98,cs),
(228,98,o),
(186,170,o),
(186,278,cs),
(186,394,o),
(229,434,o),
(281,434,cs),
(334,434,o),
(395,394,o),
(431,350,c),
(456,475,l),
(426,497,o),
(379,510,o),
(328,510,cs),
(203,510,o),
(51,435,o),
(51,232,cs)
);
}
);
userData = {
com.schriftgestaltung.Glyphs.layer.corners = (
{
name = _corner.mitre;
origin = _corner00;
type = Corner;
},
{
name = _corner.beak;
options = 1;
origin = _corner01;
scale = "{0.8, -1}";
type = Corner;
},
{
name = _corner.mitre;
origin = _corner02;
type = Corner;
},
{
name = _segment.bulge;
origin = _corner03;
type = Segment;
}
);
};
width = 600;
}
);
unicode = 945;
}
{
glyphname = Germandbls;
layers = (
{
anchors = (
{
name = bottom;
pos = (498,0);
},
{
name = top;
pos = (498,760);
}
);
hints = (
{
name = _corner.mitre;
options = 1;
origin = (0,3);
scale = (2,2);
type = Corner;
},
{
name = _corner.mitre;
origin = (0,1);
type = Corner;
},
{
name = _corner.serif;
origin = (0,29);
scale = (0.8,1.1);
type = Corner;
},
{
name = _corner.serif;
options = 1;
origin = (0,28);
scale = (0.8,-1.1);
type = Corner;
},
{
name = _corner.mitre;
origin = (0,0);
type = Corner;
}
);
layerId = m01;
shapes = (
{
closed = 1;
nodes = (
(283,0,l),
(283,700,l),
(724,700,l),
(545,404,l),
(723,381,o),
(775,285,o),
(772,186,cs),
(770,110,o),
(700,53,o),
(617,53,cs),
(545,53,o),
(475,101,o),
(436,235,cs),
(432,248,o),
(392,236,o),
(389,227,c),
(397,57,l),
(457,12,o),
(521,-9,o),
(594,-9,cs),
(719,-9,o),
(866,75,o),
(872,225,cs),
(876,363,o),
(761,457,o),
(667,467,c),
(859,725,l),
(844,760,l),
(183,760,l),
(183,0,l)
);
}
);
userData = {
com.schriftgestaltung.Glyphs.layer.corners = (
{
name = _corner.mitre;
options = 1;
origin = _corner00;
scale = "{2, 2}";
type = Corner;
},
{
name = _corner.mitre;
origin = _corner01;
type = Corner;
},
{
name = _corner.serif;
origin = _corner02;
scale = "{0.8, 1.1}";
type = Corner;
},
{
name = _corner.serif;
options = 1;
origin = _corner03;
scale = "{0.8, -1.1}";
type = Corner;
},
{
name = _corner.mitre;
origin = _corner04;
type = Corner;
}
);
};
width = 972;
},
{
anchors = (
{
name = bottom;
pos = (437,0);
},
{
name = top;
pos = (437,760);
}
);
hints = (
{
name = _corner.serif;
options = 1;
origin = (0,28);
scale = (0.8,-1.1);
type = Corner;
},
{
name = _corner.serif;
origin = (0,29);
scale = (0.8,1.1);
type = Corner;
},
{
name = _corner.mitre;
origin = (0,0);
type = Corner;
},
{
name = _corner.mitre;
origin = (0,1);
type = Corner;
},
{
name = _corner.mitre;
origin = (0,3);
type = Corner;
}
);
layerId = m002;
shapes = (
{
closed = 1;
nodes = (
(259,0,l),
(259,680,l),
(550,680,l),
(428,346,l),
(575,355,o),
(685,303,o),
(685,186,cs),
(685,128,o),
(641,74,o),
(582,74,cs),
(533,74,o),
(473,112,o),
(419,217,cs),
(412,231,o),
(359,218,o),
(360,205,cs),
(375,56,l),
(433,11,o),
(497,-8,o),
(559,-8,cs),
(703,-8,o),
(833,97,o),
(833,225,cs),
(833,380,o),
(702,445,o),
(593,467,c),
(765,725,l),
(750,760,l),
(109,760,l),
(109,0,l)
);
}
);
userData = {
com.schriftgestaltung.Glyphs.layer.corners = (
{
name = _corner.serif;
options = 1;
origin = _corner00;
scale = "{0.8, -1.1}";
type = Corner;
},
{
name = _corner.serif;
origin = _corner01;
scale = "{0.8, 1.1}";
type = Corner;
},
{
name = _corner.mitre;
origin = _corner02;
type = Corner;
},
{
name = _corner.mitre;
origin = _corner03;
type = Corner;
},
{
name = _corner.mitre;
origin = _corner04;
type = Corner;
}
);
};
width = 873;
}
);
metricLeft = "+10";
metricRight = "=S";
unicode = 7838;
}
{
glyphname = emdash;
layers = (
{
hints = (
{
name = _segment.bulge;
origin = (0,0);
type = Segment;
},
{
name = _segment.bulge;
origin = (0,2);
type = Segment;
}
);
layerId = m01;
shapes = (
{
closed = 1;
nodes = (
(91,230,l),
(780,230,l),
(780,290,l),
(91,290,l)
);
}
);
userData = {
com.schriftgestaltung.Glyphs.layer.corners = (
{
name = _segment.bulge;
origin = _corner00;
type = Segment;
},
{
name = _segment.bulge;
origin = _corner01;
type = Segment;
}
);
};
width = 871;
},
{
hints = (
{
name = _segment.bulge;
origin = (0,0);
type = Segment;
},
{
name = _segment.bulge;
origin = (0,2);
type = Segment;
}
);
layerId = m002;
shapes = (
{
closed = 1;
nodes = (
(91,220,l),
(780,220,l),
(780,300,l),
(91,300,l)
);
}
);
userData = {
com.schriftgestaltung.Glyphs.layer.corners = (
{
name = _segment.bulge;
origin = _corner00;
type = Segment;
},
{
name = _segment.bulge;
origin = _corner01;
type = Segment;
}
);
};
width = 871;
}
);
unicode = 8212;
}
{
glyphname = guilsinglleft;
layers = (
{
layerId = m01;
shapes = (
{
closed = 1;
nodes = (
(67,241,ls),
(44,266,o),
(44,274,o),
(67,299,cs),
(229,470,ls),
(241,483,o),
(277,454,o),
(269,440,cs),
(164,270,l),
(269,100,ls),
(277,86,o),
(241,57,o),
(229,70,cs)
);
}
);
width = 320;
},
{
layerId = m002;
shapes = (
{
closed = 1;
nodes = (
(87,241,ls),
(65,267,o),
(65,273,o),
(87,299,cs),
(229,470,ls),
(240,484,o),
(297,444,o),
(289,430,cs),
(204,270,l),
(289,110,ls),
(297,96,o),
(240,56,o),
(229,70,cs)
);
}
);
width = 320;
}
);
unicode = 8249;
}
{
glyphname = minus;
layers = (
{
layerId = m01;
shapes = (
{
closed = 1;
nodes = (
(46,295,o),
(46,225,o),
(61,225,c),
(311,230,l),
(561,225,l),
(576,225,o),
(576,295,o),
(561,295,c),
(311,290,l),
(61,295,l)
);
}
);
userData = {
com.schriftgestaltung.Glyphs.layer.corners = (
{
name = _segment.bulge;
origin = _corner00;
type = Segment;
},
{
name = _segment.bulge;
origin = _corner01;
type = Segment;
}
);
};
width = 622;
},
{
layerId = m002;
shapes = (
{
closed = 1;
nodes = (
(46,305,o),
(46,215,o),
(61,215,c),
(311,220,l),
(561,215,l),
(576,215,o),
(576,305,o),
(561,305,c),
(311,300,l),
(61,305,l)
);
}
);
userData = {
com.schriftgestaltung.Glyphs.layer.corners = (
{
name = _segment.bulge;
origin = _corner00;
type = Segment;
},
{
name = _segment.bulge;
origin = _corner01;
type = Segment;
}
);
};
width = 622;
}
);
unicode = 8722;
}
{
glyphname = Q.ss01;
layers = (
{
anchors = (
{
name = bottom;
pos = (450,0);
},
{
name = top;
pos = (450,760);
}
);
layerId = m01;
shapes = (
{
closed = 1;
nodes = (
(651,-10,o),
(830,163,o),
(830,395,cs),
(830,613,o),
(669,770,o),
(464,770,cs),
(249,770,o),
(70,597,o),
(70,365,cs),
(70,147,o),
(231,-10,o),
(436,-10,cs)
);
},
{
closed = 1;
nodes = (
(325,50,o),
(178,169,o),
(178,406,cs),
(178,609,o),
(304,710,o),
(434,710,cs),
(576,710,o),
(723,591,o),
(723,354,cs),
(723,151,o),
(597,50,o),
(467,50,cs)
);
},
{
closed = 1;
nodes = (
(934,-255,o),
(948,-317,o),
(1159,-214,c),
(1172,-207,o),
(1147,-162,o),
(1134,-169,c),
(1028,-211,o),
(1022,-206,o),
(496,92,c),
(390,44,l)
);
}
);
userData = {
com.schriftgestaltung.Glyphs.layer.corners = (
{
name = _segment.bulge;
origin = _corner00;
type = Segment;
}
);
};
width = 900;
},
{
anchors = (
{
name = bottom;
pos = (440,0);
},
{
name = top;
pos = (440,760);
}
);
layerId = m002;
shapes = (
{
closed = 1;
nodes = (
(641,-10,o),
(830,163,o),
(830,385,cs),
(830,613,o),
(659,770,o),
(454,770,cs),
(239,770,o),
(50,597,o),
(50,375,cs),
(50,147,o),
(221,-10,o),
(426,-10,cs)
);
},
{
closed = 1;
nodes = (
(291,77,o),
(214,253,o),
(214,408,cs),
(214,601,o),
(318,683,o),
(427,683,cs),
(589,683,o),
(666,507,o),
(666,352,cs),
(666,159,o),
(562,77,o),
(453,77,cs)
);
},
{
closed = 1;
nodes = (
(897,-275,o),
(954,-351,o),
(1185,-198,c),
(1198,-190,o),
(1163,-131,o),
(1150,-139,c),
(1029,-201,o),
(965,-136,o),
(470,159,c),
(333,77,l)
);
}
);
userData = {
com.schriftgestaltung.Glyphs.layer.corners = (
{
name = _segment.bulge;
origin = _corner00;
type = Segment;
}
);
};
width = 880;
}
);
metricLeft = "=Q";
}
{
export = 0;
glyphname = _corner.mitre;
layers = (
{
layerId = m01;
shapes = (
{
closed = 0;
nodes = (
(10,0,l),
(0,10,l)
);
}
);
width = 600;
},
{
layerId = m002;
shapes = (
{
closed = 0;
nodes = (
(20,0,l),
(0,20,l)
);
}
);
width = 600;
}
);
}
{
glyphname = f.lig_comp;
layers = (
{
anchors = (
{
name = bottom;
pos = (179,0);
},
{
name = top;
pos = (179,800);
}
);
background = {
shapes = (
{
closed = 1;
nodes = (
(122,0,l,{
name = _corner00;
}),
(207,0,l,{
name = _corner01;
}),
(207,559,ls),
(207,695,o),
(271,755,o),
(462,700,c),
(518,793,l),
(400,837,o),
(122,786,o),
(122,517,cs)
);
},
{
closed = 1;
nodes = (
(41,430,l),
(361,430,l),
(361,490,l),
(131,490,l),
(41,480,l)
);
}
);
};
hints = (
{
name = _corner.serif;
origin = (0,0);
scale = (0.7,1);
type = Corner;
},
{
name = _corner.serif;
options = 1;
origin = (0,1);
scale = (1,-1);
type = Corner;
},
{
name = _segment.bulge;
origin = (1,0);
type = Segment;
},
{
name = _segment.bulge;
origin = (1,2);
type = Segment;
}
);
layerId = m01;
shapes = (
{
closed = 1;
nodes = (
(122,0,l),
(207,0,l),
(207,559,ls),
(207,695,o),
(291,805,o),
(482,680,c),
(518,763,l),
(400,877,o),
(122,786,o),
(122,517,cs)
);
},
{
closed = 1;
nodes = (
(41,430,l),
(361,430,l),
(361,490,l),
(131,490,l),
(41,480,l)
);
}
);
userData = {
com.schriftgestaltung.Glyphs.layer.corners = (
{
name = _corner.serif;
origin = _corner00;
scale = "{0.7, 1}";
type = Corner;
},
{
name = _corner.serif;
options = 1;
origin = _corner01;
scale = "{1, -1}";
type = Corner;
},
{
name = _segment.bulge;
origin = _corner02;
type = Segment;
},
{
name = _segment.bulge;
origin = _corner03;
type = Segment;
}
);
};
width = 358;
},
{
anchors = (
{
name = bottom;
pos = (179,0);
},
{
name = top;
pos = (179,800);
}
);
background = {
shapes = (
{
closed = 1;
nodes = (
(122,0,l,{
name = _corner00;
}),
(257,0,l,{
name = _corner01;
}),
(257,559,ls),
(257,695,o),
(321,695,o),
(478,642,c),
(518,783,l),
(420,837,o),
(122,786,o),
(122,517,cs)
);
},
{
closed = 1;
nodes = (
(41,410,l),
(371,410,l),
(371,500,l),
(131,490,l),
(41,480,l)
);
}
);
};
hints = (
{
name = _corner.serif;
origin = (0,0);
scale = (0.7,1);
type = Corner;
},
{
name = _corner.serif;
options = 1;
origin = (0,1);
scale = (1,-1.1);
type = Corner;
},
{
name = _segment.bulge;
origin = (1,0);
type = Segment;
},
{
name = _segment.bulge;
origin = (1,2);
type = Segment;
}
);
layerId = m002;
shapes = (
{
closed = 1;
nodes = (
(122,0,l),
(257,0,l),
(257,559,ls),
(257,695,o),
(321,745,o),
(478,612,c),
(518,753,l),
(420,867,o),
(122,786,o),
(122,517,cs)
);
},
{
closed = 1;
nodes = (
(41,410,l),
(371,410,l),
(371,500,l),
(131,490,l),
(41,480,l)
);
}
);
userData = {
com.schriftgestaltung.Glyphs.layer.corners = (
{
name = _corner.serif;
origin = _corner00;
scale = "{0.7, 1}";
type = Corner;
},
{
name = _corner.serif;
options = 1;
origin = _corner01;
scale = "{1, -1.1}";
type = Corner;
},
{
name = _segment.bulge;
origin = _corner02;
type = Segment;
},
{
name = _segment.bulge;
origin = _corner03;
type = Segment;
}
);
};
width = 358;
}
);
}
{
glyphname = f_i.liga;
layers = (
{
anchors = (
{
name = bottom_1;
pos = (169,0);
},
{
name = bottom_2;
pos = (507,0);
},
{
name = caret_1;
pos = (338,0);
},
{
name = top_1;
pos = (169,800);
},
{
name = top_2;
pos = (507,800);
}
);
background = {
shapes = (
{
closed = 1;
nodes = (
(122,0,l,{
name = _corner00;
}),
(207,0,l,{
name = _corner01;
}),
(207,559,ls),
(207,695,o),
(261,765,o),
(418,682,cs),
(449,666,o),
(485,768,o),
(458,783,cs),
(360,837,o),
(122,786,o),
(122,517,cs)
);
},
{
closed = 1;
nodes = (
(41,430,l),
(341,430,l),
(341,490,l),
(131,490,l),
(41,480,l)
);
},
{
closed = 1;
nodes = (
(556,640,o),
(578,676,o),
(578,700,c),
(563,734,o),
(526,755,o),
(503,755,c),
(470,740,o),
(448,704,o),
(448,680,c),
(463,646,o),
(500,625,o),
(523,625,c)
);
},
{
closed = 1;
nodes = (
(563,0,l,{
name = _corner02;
}),
(563,515,l,{
name = _corner03;
}),
(533,503,o),
(509,492,o),
(478,480,c,{
name = _corner04;
}),
(478,0,l,{
name = _corner05;
})
);
}
);
};
hints = (
{
name = _segment.bulge;
origin = (1,0);
type = Segment;
},
{
name = _segment.bulge;
origin = (1,2);
type = Segment;
},
{
name = _corner.serif;
options = 1;
origin = (2,0);
scale = (0.8,-1);
type = Corner;
},
{
name = _corner.mitre;
origin = (2,1);
type = Corner;
},
{
name = _corner.serif;
origin = (2,5);
scale = (0.7,1);
type = Corner;
},
{
name = _corner.serif;
origin = (0,12);
scale = (0.7,1);
type = Corner;
},
{
name = _corner.serif;
options = 1;
origin = (0,13);
scale = (1,-1);
type = Corner;
}
);
layerId = m01;
shapes = (
{
closed = 1;
nodes = (
(434,718,o),
(503,635,o),
(523,635,cs),
(543,635,o),
(585,695,o),
(573,710,cs),
(551,738,o),
(463,800,o),
(386,800,cs),
(296,800,o),
(122,716,o),
(122,507,cs),
(122,0,l),
(207,0,l),
(207,559,ls),
(207,655,o),
(244,718,o),
(324,718,cs)
);
},
{
closed = 1;
nodes = (
(41,430,l),
(531,430,l),
(531,490,l),
(131,490,l),
(41,480,l)
);
},
{
closed = 1;
nodes = (
(563,0,l),
(563,515,l),
(533,503,o),
(509,492,o),
(478,480,c),
(478,0,l)
);
}
);
userData = {
com.schriftgestaltung.Glyphs.layer.corners = (
{
name = _segment.bulge;
origin = _corner00;
type = Segment;
},
{
name = _segment.bulge;
origin = _corner01;
type = Segment;
},
{
name = _corner.serif;
options = 1;
origin = _corner02;
scale = "{0.8, -1}";
type = Corner;
},
{
name = _corner.mitre;
origin = _corner03;
type = Corner;
},
{
name = _corner.serif;
origin = _corner04;
scale = "{0.7, 1}";
type = Corner;
},
{
name = _corner.serif;
origin = _corner05;
scale = "{0.7, 1}";
type = Corner;
},
{
name = _corner.serif;
options = 1;
origin = _corner06;
scale = "{1, -1}";
type = Corner;
}
);
};
width = 676;
},
{
anchors = (
{
name = bottom_1;
pos = (180,0);
},
{
name = bottom_2;
pos = (539,0);
},
{
name = caret_1;
pos = (359.5,0);
},
{
name = top_1;
pos = (180,800);
},
{
name = top_2;
pos = (539,800);
}
);
background = {
shapes = (
{
closed = 1;
nodes = (
(122,0,l,{
name = _corner12;
}),
(257,0,l,{
name = _corner13;
}),
(257,559,ls),
(257,695,o),
(291,715,o),
(448,632,cs),
(479,616,o),
(515,768,o),
(488,783,cs),
(390,837,o),
(122,786,o),
(122,517,cs)
);
},
{
closed = 1;
nodes = (
(41,410,l),
(371,410,l),
(371,500,l),
(131,490,l),
(41,480,l)
);
},
{
closed = 1;
nodes = (
(573,635,o),
(601,682,o),
(601,713,c),
(581,758,o),
(533,785,o),
(503,785,c),
(459,765,o),
(431,718,o),
(431,687,c),
(451,642,o),
(499,615,o),
(529,615,c)
);
},
{
closed = 1;
nodes = (
(591,0,l,{
name = _corner14;
}),
(591,515,l,{
name = _corner15;
}),
(561,503,o),
(497,482,o),
(466,470,c,{
name = _corner16;
}),
(466,0,l,{
name = _corner17;
})
);
}
);
};
hints = (
{
name = _corner.serif;
origin = (0,12);
scale = (0.7,1);
type = Corner;
},
{
name = _corner.serif;
options = 1;
origin = (0,13);
scale = (1,-1.1);
type = Corner;
},
{
name = _segment.bulge;
origin = (1,0);
type = Segment;
},
{
name = _segment.bulge;
origin = (1,2);
type = Segment;
},
{
name = _corner.serif;
options = 1;
origin = (2,0);
scale = (0.8,-1);
type = Corner;
},
{
name = _corner.mitre;
origin = (2,1);
type = Corner;
},
{
name = _corner.serif;
origin = (2,5);
scale = (0.7,1);
type = Corner;
}
);
layerId = m002;
shapes = (
{
closed = 1;
nodes = (
(364,687,o),
(423,665,o),
(512,618,cs),
(558,594,o),
(619,719,o),
(586,745,cs),
(535,785,o),
(472,805,o),
(409,805,cs),
(266,805,o),
(122,704,o),
(122,517,cs),
(122,0,l),
(257,0,l),
(257,559,ls),
(257,640,o),
(269,687,o),
(326,687,cs)
);
},
{
closed = 1;
nodes = (
(41,410,l),
(591,410,l),
(591,500,l),
(131,490,l),
(41,480,l)
);
},
{
closed = 1;
nodes = (
(611,0,l),
(611,515,l),
(581,503,o),
(517,482,o),
(486,470,c),
(486,0,l)
);
}
);
userData = {
com.schriftgestaltung.Glyphs.layer.corners = (
{
name = _corner.serif;
origin = _corner00;
scale = "{0.7, 1}";
type = Corner;
},
{
name = _corner.serif;
options = 1;
origin = _corner01;
scale = "{1, -1.1}";
type = Corner;
},
{
name = _segment.bulge;
origin = _corner02;
type = Segment;
},
{
name = _segment.bulge;
origin = _corner03;
type = Segment;
},
{
name = _corner.serif;
options = 1;
origin = _corner04;
scale = "{0.8, -1}";
type = Corner;
},
{
name = _corner.mitre;
origin = _corner05;
type = Corner;
},
{
name = _corner.serif;
origin = _corner06;
scale = "{0.7, 1}";
type = Corner;
}
);
};
width = 719;
}
);
}
{
glyphname = f_j.liga;
layers = (
{
anchors = (
{
name = bottom_1;
pos = (166,0);
},
{
name = bottom_2;
pos = (498,0);
},
{
name = caret_1;
pos = (332,0);
},
{
name = top_1;
pos = (166,800);
},
{
name = top_2;
pos = (498,800);
}
);
background = {
shapes = (
{
closed = 1;
nodes = (
(122,0,l,{
name = _corner00;
}),
(207,0,l,{
name = _corner01;
}),
(207,559,ls),
(207,695,o),
(261,765,o),
(418,682,cs),
(449,666,o),
(485,768,o),
(458,783,cs),
(360,837,o),
(122,786,o),
(122,517,cs)
);
},
{
closed = 1;
nodes = (
(41,430,l),
(341,430,l),
(341,490,l),
(131,490,l),
(41,480,l)
);
},
{
closed = 1;
nodes = (
(556,640,o),
(578,676,o),
(578,700,c),
(563,734,o),
(526,755,o),
(503,755,c),
(470,740,o),
(448,704,o),
(448,680,c),
(463,646,o),
(500,625,o),
(523,625,c)
);
},
{
closed = 1;
nodes = (
(563,0,l,{
name = _corner02;
}),
(563,515,l,{
name = _corner03;
}),
(533,503,o),
(509,492,o),
(478,480,c,{
name = _corner04;
}),
(478,0,l,{
name = _corner05;
})
);
}
);
};
layerId = m01;
shapes = (
{
closed = 1;
nodes = (
(434,718,o),
(503,635,o),
(523,635,cs),
(543,635,o),
(585,695,o),
(573,710,cs),
(551,738,o),
(463,800,o),
(386,800,cs),
(296,800,o),
(122,716,o),
(122,507,cs),
(122,125,l),
(122,60,o),
(116,63,o),
(53,28,c),
(46,24,o),
(50,-1,o),
(59,-1,c),
(115,-1,o),
(129,0,o),
(147,0,c),
(172,0,l),
(197,0,o),
(217,-1,o),
(297,-1,c),
(310,-1,o),
(316,24,o),
(305,28,c),
(216,63,o),
(207,60,o),
(207,125,c),
(207,559,ls),
(207,655,o),
(244,718,o),
(324,718,cs)
);
},
{
closed = 1;
nodes = (
(26,480,o),
(26,430,o),
(41,430,c),
(541,430,l),
(556,430,o),
(556,490,o),
(541,490,c),
(131,490,l),
(41,480,l)
);
},
{
closed = 1;
nodes = (
(379,-229,o),
(400,-267,o),
(413,-260,c),
(538,-193,o),
(579,-138,o),
(579,-27,cs),
(579,504,l),
(570,511,l),
(544,501,o),
(522,491,o),
(494,480,c),
(494,-29,ls),
(494,-124,o),
(479,-167,o),
(392,-222,c)
);
}
);
userData = {
com.schriftgestaltung.Glyphs.layer.corners = (
{
name = _corner.serif;
origin = _corner00;
scale = "{0.7, 1}";
type = Corner;
},
{
name = _corner.serif;
options = 1;
origin = _corner01;
scale = "{1, -1}";
type = Corner;
},
{
name = _segment.bulge;
origin = _corner02;
type = Segment;
},
{
name = _segment.bulge;
origin = _corner03;
type = Segment;
},
{
name = _segment.bulge;
origin = _corner04;
type = Segment;
},
{
name = _corner.mitre;
origin = _corner05;
type = Corner;
}
);
};
width = 664;
},
{
anchors = (
{
name = bottom_1;
pos = (177,0);
},
{
name = bottom_2;
pos = (532,0);
},
{
name = caret_1;
pos = (354.5,0);
},
{
name = top_1;
pos = (177,800);
},
{
name = top_2;
pos = (532,800);
}
);
background = {
shapes = (
{
closed = 1;
nodes = (
(41,430,l),
(341,430,l),
(341,490,l),
(131,490,l),
(41,480,l)
);
},
{
closed = 1;
nodes = (
(434,718,o),
(503,635,o),
(523,635,cs),
(543,635,o),
(585,695,o),
(573,710,cs),
(551,738,o),
(463,800,o),
(386,800,cs),
(296,800,o),
(122,716,o),
(122,507,cs),
(122,0,l,{
name = _corner06;
}),
(207,0,l,{
name = _corner07;
}),
(207,559,ls),
(207,655,o),
(244,718,o),
(324,718,cs)
);
},
{
closed = 1;
nodes = (
(413,-260,l),
(538,-193,o),
(579,-138,o),
(579,-27,cs),
(579,515,l,{
name = _corner08;
}),
(549,503,o),
(525,492,o),
(494,480,c,{
name = _corner09;
}),
(494,-29,ls),
(494,-124,o),
(479,-167,o),
(392,-222,c)
);
}
);
};
layerId = m002;
shapes = (
{
closed = 1;
nodes = (
(364,687,o),
(423,665,o),
(512,618,cs),
(558,594,o),
(619,719,o),
(586,745,cs),
(535,785,o),
(472,805,o),
(409,805,cs),
(266,805,o),
(122,704,o),
(122,517,cs),
(122,145,l),
(122,80,o),
(112,78,o),
(57,44,c),
(49,39,o),
(57,-1,o),
(66,-1,c),
(115,-1,o),
(129,0,o),
(147,0,c),
(222,0,l),
(247,0,o),
(267,-1,o),
(337,-1,c),
(350,-1,o),
(361,43,o),
(350,48,c),
(271,86,o),
(257,88,o),
(257,160,c),
(257,559,ls),
(257,640,o),
(269,687,o),
(326,687,cs)
);
},
{
closed = 1;
nodes = (
(26,480,o),
(26,410,o),
(41,410,c),
(611,410,l),
(626,410,o),
(626,500,o),
(611,500,c),
(131,490,l),
(41,480,l)
);
},
{
closed = 1;
nodes = (
(380,-211,o),
(421,-269,o),
(433,-260,c),
(558,-193,o),
(624,-138,o),
(624,-27,cs),
(624,494,l),
(605,508,l),
(573,497,o),
(528,483,o),
(494,470,c),
(494,-9,ls),
(494,-104,o),
(479,-147,o),
(392,-202,c)
);
}
);
userData = {
com.schriftgestaltung.Glyphs.layer.corners = (
{
name = _corner.serif;
origin = _corner00;
scale = "{0.7, 1}";
type = Corner;
},
{
name = _corner.serif;
options = 1;
origin = _corner01;
scale = "{1, -1.1}";
type = Corner;
},
{
name = _segment.bulge;
origin = _corner02;
type = Segment;
},
{
name = _segment.bulge;
origin = _corner03;
type = Segment;
},
{
name = _segment.bulge;
origin = _corner04;
type = Segment;
},
{
name = _corner.mitre;
origin = _corner05;
type = Corner;
}
);
};
width = 709;
}
);
metricLeft = "=f";
metricRight = "=j";
}
{
glyphname = five.lf;
layers = (
{
background = {
shapes = (
{
closed = 1;
nodes = (
(305,-47,o),
(462,105,o),
(462,259,cs),
(462,361,o),
(399,506,o),
(182,509,c),
(216,663,l),
(454,663,l,{
name = _corner12;
}),
(492,783,l),
(457,807,l),
(432,777,o),
(430,759,o),
(348,759,cs),
(178,759,l),
(100,415,l,{
name = _corner13;
}),
(282,429,o),
(366,348,o),
(366,221,cs),
(366,113,o),
(247,0,o),
(90,104,cs),
(55,127,o),
(29,2,o),
(72,-6,cs)
);
}
);
};
hints = (
{
name = _corner.mitre;
options = 1;
origin = (0,7);
scale = (-1,1);
type = Corner;
},
{
name = _segment.bulge;
origin = (0,9);
type = Segment;
},
{
name = _corner.mitre;
origin = (0,14);
type = Corner;
}
);
layerId = m01;
shapes = (
{
closed = 1;
nodes = (
(305,-47,o),
(462,105,o),
(462,259,cs),
(462,361,o),
(399,506,o),
(182,509,c),
(211,663,l),
(454,663,l),
(492,783,l),
(457,807,l),
(432,777,o),
(430,759,o),
(348,759,cs),
(178,759,l),
(100,415,l),
(282,429,o),
(366,348,o),
(366,221,cs),
(366,113,o),
(247,0,o),
(90,104,cs),
(55,127,o),
(29,2,o),
(72,-6,cs)
);
}
);
userData = {
com.schriftgestaltung.Glyphs.layer.corners = (
{
name = _corner.mitre;
options = 1;
origin = _corner00;
scale = "{-1, 1}";
type = Corner;
},
{
name = _segment.bulge;
origin = _corner01;
type = Segment;
},
{
name = _corner.mitre;
origin = _corner02;
type = Corner;
}
);
};
width = 543;
},
{
background = {
shapes = (
{
closed = 1;
nodes = (
(301,375,o),
(289,54,o),
(22,74,cs),
(4,75,o),
(3,5,o),
(17,4,cs),
(413,-31,o),
(522,454,o),
(136,519,c),
(150,613,l),
(358,613,l,{
name = _corner06;
}),
(396,783,l),
(361,807,l),
(336,777,o),
(334,759,o),
(252,759,cs),
(112,759,l),
(34,395,l,{
name = _corner07;
})
);
}
);
};
hints = (
{
name = _corner.mitre;
options = 1;
origin = (0,7);
scale = (-1,1);
type = Corner;
},
{
name = _segment.bulge;
origin = (0,9);
type = Segment;
},
{
name = _corner.mitre;
origin = (0,14);
type = Corner;
}
);
layerId = m002;
shapes = (
{
closed = 1;
nodes = (
(306,-47,o),
(473,105,o),
(473,259,cs),
(473,361,o),
(400,516,o),
(193,509,c),
(212,613,l),
(455,613,l),
(493,783,l),
(458,807,l),
(433,777,o),
(431,759,o),
(349,759,cs),
(159,759,l),
(91,365,l),
(263,399,o),
(337,308,o),
(337,221,cs),
(337,113,o),
(248,50,o),
(91,144,cs),
(55,166,o),
(30,2,o),
(73,-6,cs)
);
}
);
userData = {
com.schriftgestaltung.Glyphs.layer.corners = (
{
name = _corner.mitre;
options = 1;
origin = _corner00;
scale = "{-1, 1}";
type = Corner;
},
{
name = _segment.bulge;
origin = _corner01;
type = Segment;
},
{
name = _corner.mitre;
origin = _corner02;
type = Corner;
}
);
};
width = 544;
}
);
}
{
glyphname = five.osf;
layers = (
{
background = {
shapes = (
{
closed = 1;
nodes = (
(220,131,o),
(284,56,o),
(284,-23,cs),
(284,-207,o),
(58,-217,o),
(10,-216,cs),
(-10,-215,o),
(-11,-265,o),
(2,-266,cs),
(235,-284,o),
(382,-111,o),
(382,23,cs),
(382,95,o),
(340,157,o),
(245,179,c),
(301,214,o),
(344,260,o),
(344,339,cs),
(344,432,o),
(264,510,o),
(166,510,cs),
(103,510,o),
(34,477,o),
(-21,401,c),
(10,371,l),
(47,404,o),
(84,417,o),
(117,417,cs),
(186,417,o),
(236,358,o),
(236,294,cs),
(236,235,o),
(193,171,o),
(80,145,c),
(91,101,l)
);
}
);
};
layerId = m01;
shapes = (
{
closed = 1;
nodes = (
(373,157,o),
(349,-226,o),
(35,-206,cs),
(17,-205,o),
(16,-255,o),
(30,-256,cs),
(426,-291,o),
(505,214,o),
(129,269,c),
(163,393,l),
(361,393,l),
(374,403,l),
(409,523,l),
(417,535,o),
(382,559,o),
(374,547,c),
(349,517,o),
(347,499,o),
(265,499,cs),
(125,499,l),
(59,195,l),
(67,184,l)
);
}
);
userData = {
com.schriftgestaltung.Glyphs.layer.corners = (
{
name = _corner.mitre;
options = 1;
origin = _corner00;
scale = "{-1, 1}";
type = Corner;
},
{
name = _segment.bulge;
origin = _corner01;
type = Segment;
},
{
name = _corner.mitre;
origin = _corner02;
type = Corner;
}
);
};
width = 470;
},
{
background = {
shapes = (
{
closed = 1;
nodes = (
(360,165,o),
(338,-226,o),
(21,-206,cs),
(3,-205,o),
(2,-255,o),
(16,-256,cs),
(412,-291,o),
(521,224,o),
(115,279,c),
(149,393,l),
(357,393,l,{
name = _corner04;
}),
(395,523,l),
(360,547,l),
(335,517,o),
(333,499,o),
(251,499,cs),
(111,499,l),
(43,185,l,{
name = _corner05;
})
);
}
);
};
layerId = m002;
shapes = (
{
closed = 1;
nodes = (
(299,98,o),
(281,-205,o),
(21,-186,cs),
(3,-185,o),
(2,-255,o),
(16,-256,cs),
(412,-291,o),
(521,194,o),
(135,259,c),
(149,353,l),
(337,353,l),
(361,373,l),
(395,523,l),
(403,535,o),
(368,559,o),
(360,547,c),
(335,517,o),
(333,499,o),
(251,499,cs),
(111,499,l),
(37,155,l),
(53,133,l)
);
}
);
userData = {
com.schriftgestaltung.Glyphs.layer.corners = (
{
name = _corner.mitre;
options = 1;
origin = _corner00;
scale = "{-1, 1}";
type = Corner;
},
{
name = _segment.bulge;
origin = _corner01;
type = Segment;
},
{
name = _corner.mitre;
origin = _corner02;
type = Corner;
}
);
};
width = 426;
}
);
}
{
glyphname = idotaccent;
layers = (
{
background = {
shapes = (
{
closed = 1;
nodes = (
(191,640,o),
(213,676,o),
(213,700,c),
(198,734,o),
(161,755,o),
(138,755,c),
(105,740,o),
(83,704,o),
(83,680,c),
(98,646,o),
(135,625,o),
(158,625,c)
);
},
{
closed = 1;
nodes = (
(198,0,l,{
name = _corner00;
}),
(198,515,l,{
name = _corner01;
}),
(168,503,o),
(144,492,o),
(113,480,c,{
name = _corner02;
}),
(113,0,l,{
name = _corner03;
})
);
}
);
};
layerId = m01;
shapes = (
{
ref = idotless;
},
{
pos = (8,0);
ref = dotaccentcomb;
}
);
width = 321;
},
{
background = {
shapes = (
{
closed = 1;
nodes = (
(215,635,o),
(243,682,o),
(243,713,c),
(223,758,o),
(175,785,o),
(145,785,c),
(101,765,o),
(73,718,o),
(73,687,c),
(93,642,o),
(141,615,o),
(171,615,c)
);
},
{
closed = 1;
nodes = (
(233,0,l,{
name = _corner00;
}),
(233,515,l,{
name = _corner01;
}),
(203,503,o),
(139,482,o),
(108,470,c,{
name = _corner02;
}),
(108,0,l,{
name = _corner03;
})
);
}
);
};
layerId = m002;
shapes = (
{
ref = idotless;
},
{
pos = (23,0);
ref = dotaccentcomb;
}
);
width = 351;
}
);
}
{
glyphname = nine.lf;
layers = (
{
background = {
shapes = (
{
closed = 1;
nodes = (
(199,-6,l),
(427,123,o),
(549,345,o),
(549,490,cs),
(549,633,o),
(464,766,o),
(306,766,cs),
(174,766,o),
(68,676,o),
(68,540,cs),
(68,346,o),
(293,247,o),
(443,387,c),
(446,440,l),
(326,318,o),
(176,417,o),
(176,562,cs),
(176,762,o),
(439,780,o),
(439,509,cs),
(439,362,o),
(356,166,o),
(171,32,c)
);
}
);
};
layerId = m01;
shapes = (
{
closed = 1;
nodes = (
(132,-20,o),
(163,-54,o),
(174,-44,c),
(443,120,o),
(570,330,o),
(570,500,cs),
(570,656,o),
(460,768,o),
(321,768,cs),
(150,768,o),
(50,643,o),
(50,513,cs),
(50,392,o),
(138,265,o),
(284,265,cs),
(336,265,o),
(401,282,o),
(449,319,c),
(455,382,l),
(428,343,o),
(369,329,o),
(332,329,cs),
(103,329,o),
(110,709,o),
(302,709,cs),
(380,709,o),
(463,616,o),
(463,483,cs),
(463,334,o),
(365,145,o),
(143,-10,c)
);
}
);
userData = {
com.schriftgestaltung.Glyphs.layer.corners = (
{
name = _segment.bulge;
origin = _corner00;
type = Segment;
}
);
};
width = 620;
},
{
layerId = m002;
shapes = (
{
closed = 1;
nodes = (
(131,40,o),
(172,-14,o),
(184,-5,c),
(473,149,o),
(590,359,o),
(590,519,cs),
(590,685,o),
(490,807,o),
(331,807,cs),
(160,807,o),
(50,682,o),
(50,552,cs),
(50,401,o),
(148,304,o),
(294,304,cs),
(346,304,o),
(401,321,o),
(449,358,c),
(455,436,l),
(428,397,o),
(379,383,o),
(342,383,cs),
(153,383,o),
(160,728,o),
(312,728,cs),
(390,728,o),
(433,655,o),
(433,512,cs),
(433,373,o),
(365,204,o),
(143,49,c)
);
}
);
userData = {
com.schriftgestaltung.Glyphs.layer.corners = (
{
name = _segment.bulge;
origin = _corner00;
type = Segment;
}
);
};
width = 640;
}
);
}
{
glyphname = one.lf;
layers = (
{
layerId = m01;
shapes = (
{
closed = 1;
nodes = (
(158,138,l),
(158,66,o),
(149,69,o),
(60,31,c),
(49,26,o),
(55,-1,o),
(68,-1,c),
(148,-1,o),
(168,0,o),
(193,0,c),
(223,0,l),
(248,0,o),
(268,-1,o),
(348,-1,c),
(361,-1,o),
(367,26,o),
(356,31,c),
(267,69,o),
(258,66,o),
(258,138,c),
(258,759,l),
(249,767,l),
(174,741,ls),
(150,733,o),
(116,722,o),
(59,706,cs),
(46,702,o),
(49,675,o),
(60,674,cs),
(157,662,o),
(158,667,o),
(158,596,c)
);
}
);
userData = {
com.schriftgestaltung.Glyphs.layer.corners = (
{
name = _corner.serif;
origin = _corner00;
scale = "{1, 1.1}";
type = Corner;
},
{
name = _corner.serif;
options = 1;
origin = _corner01;
scale = "{1, -1.1}";
type = Corner;
},
{
name = _corner.mitre;
origin = _corner02;
type = Corner;
}
);
};
width = 412;
},
{
background = {
shapes = (
{
closed = 1;
nodes = (
(156,0,l,{
name = _corner00;
}),
(256,0,l,{
name = _corner01;
}),
(256,770,l,{
name = _corner02;
}),
(172,741,ls),
(148,733,o),
(114,722,o),
(57,706,cs),
(44,702,o),
(47,675,o),
(58,674,cs),
(155,662,o),
(156,667,o),
(156,596,cs)
);
}
);
};
layerId = m002;
shapes = (
{
closed = 1;
nodes = (
(156,160,l),
(156,88,o),
(142,86,o),
(63,48,c),
(52,43,o),
(63,-1,o),
(76,-1,c),
(146,-1,o),
(166,0,o),
(191,0,c),
(271,0,l),
(296,0,o),
(316,-1,o),
(386,-1,c),
(399,-1,o),
(410,43,o),
(399,48,c),
(320,86,o),
(306,88,o),
(306,160,c),
(306,758,l),
(287,773,l),
(164,723,ls),
(141,714,o),
(122,708,o),
(57,682,cs),
(45,677,o),
(51,632,o),
(63,631,cs),
(150,625,o),
(156,627,o),
(156,555,cs)
);
}
);
userData = {
com.schriftgestaltung.Glyphs.layer.corners = (
{
name = _corner.serif;
origin = _corner00;
scale = "{1, 1.1}";
type = Corner;
},
{
name = _corner.serif;
options = 1;
origin = _corner01;
scale = "{1, -1.1}";
type = Corner;
},
{
name = _corner.mitre;
origin = _corner02;
type = Corner;
}
);
};
width = 454;
}
);
}
{
glyphname = one.osf;
layers = (
{
hints = (
{
name = _corner.serif;
origin = (0,0);
scale = (1,1.1);
type = Corner;
},
{
name = _corner.serif;
options = 1;
origin = (0,1);
scale = (1,-1.1);
type = Corner;
},
{
name = _corner.serif;
origin = (0,2);
scale = (1,1.1);
type = Corner;
},
{
name = _corner.serif;
options = 1;
origin = (0,3);
scale = (1,-1.1);
type = Corner;
}
);
layerId = m01;
shapes = (
{
closed = 1;
nodes = (
(154,0,l),
(249,0,l),
(249,500,l),
(154,500,l)
);
}
);
userData = {
com.schriftgestaltung.Glyphs.layer.corners = (
{
name = _corner.serif;
origin = _corner00;
scale = "{1, 1.1}";
type = Corner;
},
{
name = _corner.serif;
options = 1;
origin = _corner01;
scale = "{1, -1.1}";
type = Corner;
},
{
name = _corner.serif;
origin = _corner02;
scale = "{1, 1.1}";
type = Corner;
},
{
name = _corner.serif;
options = 1;
origin = _corner03;
scale = "{1, -1.1}";
type = Corner;
}
);
};
width = 403;
},
{
hints = (
{
name = _corner.serif;
origin = (0,0);
scale = (1,1.1);
type = Corner;
},
{
name = _corner.serif;
options = 1;
origin = (0,1);
scale = (1,-1.1);
type = Corner;
},
{
name = _corner.serif;
origin = (0,2);
scale = (1,1.1);
type = Corner;
},
{
name = _corner.serif;
options = 1;
origin = (0,3);
scale = (1,-1.1);
type = Corner;
}
);
layerId = m002;
shapes = (
{
closed = 1;
nodes = (
(124,0,l),
(274,0,l),
(274,500,l),
(124,500,l)
);
}
);
userData = {
com.schriftgestaltung.Glyphs.layer.corners = (
{
name = _corner.serif;
origin = _corner00;
scale = "{1, 1.1}";
type = Corner;
},
{
name = _corner.serif;
options = 1;
origin = _corner01;
scale = "{1, -1.1}";
type = Corner;
},
{
name = _corner.serif;
origin = _corner02;
scale = "{1, 1.1}";
type = Corner;
},
{
name = _corner.serif;
options = 1;
origin = _corner03;
scale = "{1, -1.1}";
type = Corner;
}
);
};
width = 398;
}
);
}
{
glyphname = seven.lf;
layers = (
{
layerId = m01;
shapes = (
{
closed = 1;
nodes = (
(50,580,l),
(47,565,o),
(87,556,o),
(90,571,c),
(132,663,o),
(139,665,o),
(241,665,cs),
(441,665,l),
(167,18,l),
(181,0,l),
(277,0,l),
(510,725,l),
(495,760,l),
(101,760,l),
(89,750,l)
);
}
);
userData = {
com.schriftgestaltung.Glyphs.layer.corners = (
{
name = _segment.bulge;
origin = _corner00;
type = Segment;
},
{
name = _corner.mitre;
origin = _corner01;
type = Corner;
},
{
name = _corner.mitre;
options = 1;
origin = _corner02;
scale = "{2, 2}";
type = Corner;
}
);
};
width = 560;
},
{
layerId = m002;
shapes = (
{
closed = 1;
nodes = (
(50,585,l),
(47,570,o),
(107,556,o),
(110,571,c),
(142,633,o),
(174,631,o),
(276,635,cs),
(400,640,l),
(139,37,l),
(167,0,l),
(311,0,l),
(505,735,l),
(490,760,l),
(106,760,l),
(82,740,l)
);
}
);
userData = {
com.schriftgestaltung.Glyphs.layer.corners = (
{
name = _segment.bulge;
origin = _corner00;
type = Segment;
},
{
name = _corner.mitre;
options = 1;
origin = _corner01;
scale = "{2, 2}";
type = Corner;
},
{
name = _corner.mitre;
origin = _corner02;
type = Corner;
}
);
};
width = 555;
}
);
}
{
glyphname = seven.osf;
layers = (
{
layerId = m01;
shapes = (
{
closed = 1;
nodes = (
(30,350,l),
(27,335,o),
(72,326,o),
(75,341,c),
(107,403,o),
(109,405,o),
(211,405,cs),
(405,405,l),
(146,-231,l),
(160,-250,l),
(256,-250,l),
(480,475,l),
(465,510,l),
(260,500,l),
(71,500,l),
(59,490,l)
);
}
);
userData = {
com.schriftgestaltung.Glyphs.layer.corners = (
{
name = _segment.bulge;
origin = _corner00;
type = Segment;
},
{
name = _corner.mitre;
origin = _corner01;
type = Corner;
},
{
name = _corner.mitre;
options = 1;
origin = _corner02;
scale = "{2, 2}";
type = Corner;
}
);
};
width = 540;
},
{
layerId = m002;
shapes = (
{
closed = 1;
nodes = (
(20,325,l),
(17,310,o),
(77,296,o),
(80,311,c),
(112,373,o),
(144,371,o),
(246,375,cs),
(370,380,l),
(100,-214,l),
(127,-250,l),
(271,-250,l),
(475,475,l),
(460,510,l),
(255,500,l),
(76,500,l),
(52,480,l)
);
}
);
userData = {
com.schriftgestaltung.Glyphs.layer.corners = (
{
name = _segment.bulge;
origin = _corner00;
type = Segment;
},
{
name = _corner.mitre;
options = 1;
origin = _corner01;
scale = "{2, 2}";
type = Corner;
},
{
name = _corner.mitre;
origin = _corner02;
type = Corner;
}
);
};
width = 505;
}
);
}
{
glyphname = six.osf;
layers = (
{
background = {
shapes = (
{
closed = 1;
nodes = (
(418,766,l),
(180,634,o),
(45,406,o),
(45,261,cs),
(45,107,o),
(148,-6,o),
(284,-6,cs),
(419,-6,o),
(530,88,o),
(530,229,cs),
(530,429,o),
(310,509,o),
(160,393,c),
(155,340,l),
(271,434,o),
(421,365,o),
(421,206,cs),
(421,119,o),
(371,53,o),
(302,53,cs),
(203,53,o),
(150,140,o),
(150,238,cs),
(150,386,o),
(250,590,o),
(445,728,c)
);
}
);
};
hints = (
{
name = _segment.bulge;
origin = (0,0);
type = Segment;
}
);
layerId = m01;
shapes = (
{
closed = 1;
nodes = (
(397,766,l),
(199,644,o),
(45,430,o),
(45,256,cs),
(45,105,o),
(144,-6,o),
(280,-6,cs),
(427,-6,o),
(520,102,o),
(520,233,cs),
(520,368,o),
(409,447,o),
(317,447,cs),
(265,447,o),
(210,430,o),
(162,393,c),
(156,330,l),
(183,369,o),
(232,383,o),
(269,383,cs),
(351,383,o),
(420,318,o),
(420,211,cs),
(420,141,o),
(382,53,o),
(299,53,cs),
(202,53,o),
(150,136,o),
(150,259,cs),
(150,436,o),
(264,611,o),
(428,732,c)
);
}
);
userData = {
com.schriftgestaltung.Glyphs.layer.corners = (
{
name = _segment.bulge;
origin = _corner00;
type = Segment;
}
);
};
width = 580;
},
{
background = {
shapes = (
{
closed = 1;
nodes = (
(459,758,l),
(192,627,o),
(55,415,o),
(55,256,cs),
(55,105,o),
(154,-10,o),
(286,-10,cs),
(463,-10,o),
(548,112,o),
(548,232,cs),
(548,347,o),
(470,460,o),
(323,460,cs),
(291,460,o),
(257,455,o),
(219,444,c),
(210,381,l),
(228,385,o),
(245,387,o),
(261,387,cs),
(364,387,o),
(417,304,o),
(417,214,cs),
(417,120,o),
(363,67,o),
(309,67,cs),
(252,67,o),
(194,124,o),
(194,253,cs),
(194,412,o),
(296,583,o),
(493,707,c)
);
}
);
};
hints = (
{
name = _segment.bulge;
origin = (0,0);
type = Segment;
}
);
layerId = m002;
shapes = (
{
closed = 1;
nodes = (
(459,758,l),
(192,627,o),
(55,415,o),
(55,256,cs),
(55,105,o),
(154,-10,o),
(286,-10,cs),
(467,-10,o),
(552,112,o),
(552,232,cs),
(552,348,o),
(473,462,o),
(326,462,cs),
(293,462,o),
(258,456,o),
(219,444,c),
(210,381,l),
(227,385,o),
(243,387,o),
(258,387,cs),
(360,387,o),
(410,292,o),
(410,205,cs),
(410,133,o),
(376,67,o),
(309,67,cs),
(252,67,o),
(204,124,o),
(204,253,cs),
(204,412,o),
(296,583,o),
(493,707,c)
);
}
);
userData = {
com.schriftgestaltung.Glyphs.layer.corners = (
{
name = _segment.bulge;
origin = _corner00;
type = Segment;
}
);
};
width = 592;
}
);
}
{
glyphname = three.lf;
layers = (
{
background = {
shapes = (
{
closed = 1;
nodes = (
(445,402,o),
(476,-107,o),
(97,26,cs),
(56,40,o),
(30,-83,o),
(72,-86,cs),
(450,-112,o),
(617,289,o),
(339,419,c),
(414,465,o),
(439,525,o),
(439,582,cs),
(439,732,o),
(234,862,o),
(73,681,c),
(104,651,l),
(308,805,o),
(470,453,o),
(174,385,c),
(185,341,l)
);
}
);
};
hints = (
{
name = _segment.bulge;
origin = (0,0);
type = Segment;
},
{
name = _segment.bulge;
origin = (0,10);
type = Segment;
}
);
layerId = m01;
shapes = (
{
closed = 1;
nodes = (
(90,631,l),
(127,664,o),
(164,677,o),
(197,677,cs),
(266,677,o),
(316,628,o),
(316,564,cs),
(316,505,o),
(273,441,o),
(160,415,c),
(171,369,l),
(280,389,o),
(347,307,o),
(347,219,cs),
(347,125,o),
(301,35,o),
(90,92,cs),
(56,101,o),
(34,10,o),
(65,0,cs),
(206,-43,o),
(448,62,o),
(448,248,cs),
(448,335,o),
(393,407,o),
(305,433,c),
(371,467,o),
(424,521,o),
(424,609,cs),
(424,702,o),
(344,770,o),
(246,770,cs),
(183,770,o),
(114,737,o),
(59,661,c)
);
}
);
userData = {
com.schriftgestaltung.Glyphs.layer.corners = (
{
name = _segment.bulge;
origin = _corner00;
type = Segment;
},
{
name = _segment.bulge;
origin = _corner01;
type = Segment;
}
);
};
width = 498;
},
{
background = {
shapes = (
{
closed = 1;
nodes = (
(93,631,l),
(130,664,o),
(167,677,o),
(200,677,cs),
(269,677,o),
(319,628,o),
(319,564,cs),
(319,505,o),
(276,441,o),
(163,415,c),
(174,369,l),
(283,389,o),
(350,307,o),
(350,219,cs),
(350,125,o),
(304,35,o),
(93,92,cs),
(59,101,o),
(37,10,o),
(68,0,cs),
(209,-43,o),
(451,62,o),
(451,248,cs),
(451,335,o),
(396,407,o),
(308,433,c),
(374,467,o),
(427,521,o),
(427,609,cs),
(427,702,o),
(347,770,o),
(249,770,cs),
(186,770,o),
(117,737,o),
(62,661,c)
);
}
);
};
hints = (
{
name = _segment.bulge;
origin = (0,0);
type = Segment;
},
{
name = _segment.bulge;
origin = (0,10);
type = Segment;
}
);
layerId = m002;
shapes = (
{
closed = 1;
nodes = (
(93,601,l),
(122,627,o),
(151,638,o),
(178,638,cs),
(234,638,o),
(278,589,o),
(278,537,cs),
(278,492,o),
(246,445,o),
(163,425,c),
(174,349,l),
(263,351,o),
(316,275,o),
(316,207,cs),
(316,134,o),
(255,72,o),
(113,132,cs),
(81,146,o),
(38,42,o),
(54,21,cs),
(119,-63,o),
(451,42,o),
(451,248,cs),
(451,335,o),
(398,408,o),
(308,433,c),
(374,467,o),
(427,521,o),
(427,609,cs),
(427,702,o),
(347,770,o),
(249,770,cs),
(156,770,o),
(98,704,o),
(52,641,c)
);
}
);
userData = {
com.schriftgestaltung.Glyphs.layer.corners = (
{
name = _segment.bulge;
origin = _corner00;
type = Segment;
},
{
name = _segment.bulge;
origin = _corner01;
type = Segment;
}
);
};
width = 501;
}
);
}
{
glyphname = two.lf;
layers = (
{
background = {
shapes = (
{
closed = 1;
nodes = (
(497,-1,l,{
name = _corner03;
}),
(543,129,l),
(510,153,l),
(483,123,o),
(469,95,o),
(367,95,cs),
(192,95,l),
(397,294,o),
(506,388,o),
(506,529,cs),
(506,775,o),
(227,855,o),
(76,651,c),
(107,621,l),
(199,726,o),
(401,700,o),
(401,502,cs),
(401,370,o),
(278,261,o),
(68,49,cs),
(53,33,o),
(67,-1,o),
(82,-1,cs)
);
}
);
};
layerId = m01;
shapes = (
{
closed = 1;
nodes = (
(494,-1,l),
(507,9,l),
(547,139,l),
(556,151,o),
(523,175,o),
(514,163,c),
(488,133,o),
(474,111,o),
(372,105,cs),
(187,95,l),
(386,292,o),
(503,386,o),
(503,533,cs),
(503,678,o),
(399,768,o),
(282,768,cs),
(202,768,o),
(116,726,o),
(52,631,c),
(42,620,o),
(73,590,o),
(83,601,c),
(124,656,o),
(182,682,o),
(237,682,cs),
(321,682,o),
(399,621,o),
(399,509,cs),
(399,368,o),
(268,259,o),
(64,49,cs),
(49,33,o),
(64,-1,o),
(79,-1,cs)
);
}
);
userData = {
com.schriftgestaltung.Glyphs.layer.corners = (
{
name = _segment.bulge;
origin = _corner00;
type = Segment;
},
{
name = _corner.mitre;
options = 1;
origin = _corner01;
scale = "{1, -1}";
type = Corner;
},
{
name = _segment.bulge;
origin = _corner02;
type = Segment;
}
);
};
width = 599;
},
{
background = {
shapes = (
{
closed = 1;
nodes = (
(495,-1,l,{
name = _corner01;
}),
(541,129,l),
(508,153,l),
(481,123,o),
(467,95,o),
(365,95,cs),
(180,95,l),
(385,294,o),
(504,388,o),
(504,539,cs),
(504,775,o),
(215,865,o),
(54,631,c),
(85,601,l),
(187,736,o),
(399,700,o),
(399,512,cs),
(399,370,o),
(266,261,o),
(56,49,cs),
(41,33,o),
(55,-1,o),
(70,-1,cs)
);
}
);
};
layerId = m002;
shapes = (
{
closed = 1;
nodes = (
(485,-1,l),
(512,19,l),
(561,169,l),
(568,182,o),
(520,206,o),
(513,193,c),
(486,163,o),
(472,135,o),
(370,135,cs),
(220,135,l),
(425,314,o),
(514,418,o),
(514,539,cs),
(514,677,o),
(409,769,o),
(289,769,cs),
(208,769,o),
(119,726,o),
(54,631,c),
(44,620,o),
(85,580,o),
(95,591,c),
(132,622,o),
(177,638,o),
(220,638,cs),
(294,638,o),
(359,589,o),
(359,482,cs),
(359,370,o),
(266,281,o),
(56,69,cs),
(41,53,o),
(55,-1,o),
(70,-1,cs)
);
}
);
userData = {
com.schriftgestaltung.Glyphs.layer.corners = (
{
name = _corner.mitre;
options = 1;
origin = _corner00;
scale = "{1, -1}";
type = Corner;
},
{
name = _segment.bulge;
origin = _corner01;
type = Segment;
},
{
name = _segment.bulge;
origin = _corner02;
type = Segment;
}
);
};
width = 612;
}
);
}
{
glyphname = two.osf;
layers = (
{
background = {
shapes = (
{
closed = 1;
nodes = (
(453,-1,l,{
name = _corner02;
}),
(499,119,l),
(466,143,l),
(439,113,o),
(425,90,o),
(323,85,cs),
(228,80,l),
(281,105,o),
(422,198,o),
(422,319,cs),
(422,432,o),
(337,510,o),
(239,510,cs),
(176,510,o),
(107,477,o),
(52,401,c),
(83,371,l),
(125,409,o),
(164,415,o),
(198,415,cs),
(267,415,o),
(313,363,o),
(317,300,cs),
(325,177,o),
(187,105,o),
(68,45,cs),
(54,39,o),
(63,-1,o),
(78,-1,cs)
);
}
);
};
hints = (
{
name = _segment.bulge;
origin = (0,16);
type = Segment;
},
{
name = _corner.mitre;
options = 1;
origin = (0,0);
scale = (1,-1);
type = Corner;
},
{
name = _segment.bulge;
origin = (0,2);
type = Segment;
}
);
layerId = m01;
shapes = (
{
closed = 1;
nodes = (
(453,-1,l),
(499,119,l),
(466,143,l),
(439,113,o),
(425,90,o),
(323,85,cs),
(228,80,l),
(281,105,o),
(422,198,o),
(422,319,cs),
(422,432,o),
(337,510,o),
(239,510,cs),
(176,510,o),
(107,477,o),
(52,401,c),
(83,371,l),
(125,409,o),
(164,425,o),
(198,425,cs),
(287,425,o),
(323,363,o),
(327,300,cs),
(335,177,o),
(187,105,o),
(68,45,cs),
(54,39,o),
(63,-1,o),
(78,-1,cs)
);
}
);
userData = {
com.schriftgestaltung.Glyphs.layer.corners = (
{
name = _segment.bulge;
origin = _corner00;
type = Segment;
},
{
name = _corner.mitre;
options = 1;
origin = _corner01;
scale = "{1, -1}";
type = Corner;
},
{
name = _segment.bulge;
origin = _corner02;
type = Segment;
}
);
};
width = 551;
},
{
background = {
shapes = (
{
closed = 1;
nodes = (
(228,80,l),
(281,105,o),
(422,198,o),
(422,319,cs),
(422,432,o),
(337,510,o),
(239,510,cs),
(176,510,o),
(107,477,o),
(52,401,c),
(83,371,l),
(125,409,o),
(164,425,o),
(198,425,cs),
(267,425,o),
(313,373,o),
(317,310,cs),
(325,187,o),
(187,105,o),
(68,45,c)
);
},
{
closed = 1;
nodes = (
(453,-1,l,{
name = _corner00;
}),
(499,119,l),
(466,143,l),
(439,113,o),
(425,90,o),
(323,85,cs),
(228,80,l),
(68,45,l),
(54,39,o),
(63,-1,o),
(78,-1,cs)
);
}
);
};
hints = (
{
name = _corner.mitre;
options = 1;
origin = (0,0);
scale = (0.5,-0.5);
type = Corner;
},
{
name = _segment.bulge;
origin = (0,2);
type = Segment;
},
{
name = _segment.bulge;
origin = (0,16);
type = Segment;
}
);
layerId = m002;
shapes = (
{
closed = 1;
nodes = (
(453,-1,l),
(499,139,l),
(456,163,l),
(429,133,o),
(404,118,o),
(323,105,cs),
(228,90,l),
(281,115,o),
(422,198,o),
(422,319,cs),
(422,432,o),
(337,510,o),
(239,510,cs),
(176,510,o),
(107,477,o),
(52,401,c),
(93,361,l),
(119,383,o),
(148,393,o),
(180,393,cs),
(232,393,o),
(282,354,o),
(282,287,cs),
(282,222,o),
(227,135,o),
(68,55,cs),
(54,49,o),
(63,-1,o),
(78,-1,cs)
);
}
);
userData = {
com.schriftgestaltung.Glyphs.layer.corners = (
{
name = _corner.mitre;
options = 1;
origin = _corner00;
scale = "{0.5, -0.5}";
type = Corner;
},
{
name = _segment.bulge;
origin = _corner01;
type = Segment;
},
{
name = _segment.bulge;
origin = _corner02;
type = Segment;
}
);
};
width = 551;
}
);
}
